<?xml version="1.0" encoding="UTF-8" standalone="no"?>
<!DOCTYPE svg PUBLIC "-//W3C//DTD SVG 1.1//EN"
 "http://www.w3.org/Graphics/SVG/1.1/DTD/svg11.dtd">
<!-- Generated by graphviz version 2.38.0 (20140413.2041)
 -->
<!-- Title: G Pages: 1 -->
<svg width="227pt" height="66pt"
 viewBox="0.00 0.00 227.00 66.00" xmlns="http://www.w3.org/2000/svg" xmlns:xlink="http://www.w3.org/1999/xlink">
<g id="graph0" class="graph" transform="scale(1 1) rotate(0) translate(4 62)">
<title>G</title>
<!-- annotate&#45;variants&#45;1.0 -->
<g id="node1" class="node"><title>annotate&#45;variants&#45;1.0</title>
<path fill="#ff9955" stroke="black" d="M207,-58C207,-58 12,-58 12,-58 6,-58 -1.42109e-14,-52 -1.42109e-14,-46 -1.42109e-14,-46 -1.42109e-14,-12 -1.42109e-14,-12 -1.42109e-14,-6 6,-0 12,-0 12,-0 207,-0 207,-0 213,-0 219,-6 219,-12 219,-12 219,-46 219,-46 219,-52 213,-58 207,-58"/>
<text text-anchor="start" x="36.5" y="-43.8" font-family="Times,serif" text-decoration="underline" font-size="14.00">ANNOTATE VARIANTS</text>
<text text-anchor="start" x="8" y="-7.4" font-family="Times,serif" font-size="12.00">Uses: snpeff&#45;4.1, gatk&#45;3.4, igvtools&#45;2.3.71.</text>
</g>
</g>
</svg>
