<?xml version="1.0" encoding="UTF-8" standalone="no"?>
<!DOCTYPE svg PUBLIC "-//W3C//DTD SVG 1.1//EN"
 "http://www.w3.org/Graphics/SVG/1.1/DTD/svg11.dtd">
<!-- Generated by graphviz version 2.38.0 (20140413.2041)
 -->
<!-- Title: G Pages: 1 -->
<svg width="972pt" height="536pt"
 viewBox="0.00 0.00 972.00 536.00" xmlns="http://www.w3.org/2000/svg" xmlns:xlink="http://www.w3.org/1999/xlink">
<g id="graph0" class="graph" transform="scale(1 1) rotate(0) translate(4 532)">
<title>G</title>
<!-- quality&#45;control&#45;1.0 -->
<g id="node1" class="node"><title>quality&#45;control&#45;1.0</title>
<path fill="#8dd35f" stroke="black" d="M464,-528C464,-528 252,-528 252,-528 246,-528 240,-522 240,-516 240,-516 240,-482 240,-482 240,-476 246,-470 252,-470 252,-470 464,-470 464,-470 470,-470 476,-476 476,-482 476,-482 476,-516 476,-516 476,-522 470,-528 464,-528"/>
<text text-anchor="start" x="294" y="-513.8" font-family="Times,serif" text-decoration="underline" font-size="14.00">QUALITY CONTROL</text>
<text text-anchor="start" x="248" y="-501.4" font-family="Times,serif" font-size="12.00">Generate quality control reports for FastQ files</text>
<text text-anchor="start" x="311" y="-477.4" font-family="Times,serif" font-size="12.00">Uses: fastqc&#45;0.11.4.</text>
</g>
<!-- align&#45;1.0 -->
<g id="node2" class="node"><title>align&#45;1.0</title>
<path fill="#decd87" stroke="black" d="M756,-528C756,-528 506,-528 506,-528 500,-528 494,-522 494,-516 494,-516 494,-482 494,-482 494,-476 500,-470 506,-470 506,-470 756,-470 756,-470 762,-470 768,-476 768,-482 768,-482 768,-516 768,-516 768,-522 762,-528 756,-528"/>
<text text-anchor="start" x="609.5" y="-513.8" font-family="Times,serif" text-decoration="underline" font-size="14.00">ALIGN</text>
<text text-anchor="start" x="502" y="-501.4" font-family="Times,serif" font-size="12.00">Align reads from FastQ files against reference genome</text>
<text text-anchor="start" x="590" y="-477.4" font-family="Times,serif" font-size="12.00">Uses: star&#45;2.4.2a.</text>
</g>
<!-- add&#45;read&#45;groups&#45;1.0 -->
<g id="node3" class="node"><title>add&#45;read&#45;groups&#45;1.0</title>
<path fill="#bcd35f" stroke="black" d="M735,-434C735,-434 527,-434 527,-434 521,-434 515,-428 515,-422 515,-422 515,-388 515,-388 515,-382 521,-376 527,-376 527,-376 735,-376 735,-376 741,-376 747,-382 747,-388 747,-388 747,-422 747,-422 747,-428 741,-434 735,-434"/>
<text text-anchor="start" x="567.5" y="-419.8" font-family="Times,serif" text-decoration="underline" font-size="14.00">ADD READ GROUPS</text>
<text text-anchor="start" x="523" y="-407.4" font-family="Times,serif" font-size="12.00">Add read group information to the BAM files</text>
<text text-anchor="start" x="584.5" y="-383.4" font-family="Times,serif" font-size="12.00">Uses: picard&#45;1.141.</text>
</g>
<!-- align&#45;1.0&#45;&gt;add&#45;read&#45;groups&#45;1.0 -->
<g id="edge1" class="edge"><title>align&#45;1.0&#45;&gt;add&#45;read&#45;groups&#45;1.0</title>
<path fill="none" stroke="black" d="M631,-469.897C631,-461.858 631,-452.954 631,-444.41"/>
<polygon fill="black" stroke="black" points="634.5,-444.248 631,-434.248 627.5,-444.248 634.5,-444.248"/>
</g>
<!-- sort&#45;and&#45;index&#45;1.0 -->
<g id="node4" class="node"><title>sort&#45;and&#45;index&#45;1.0</title>
<path fill="#ffe680" stroke="black" d="M705,-340C705,-340 557,-340 557,-340 551,-340 545,-334 545,-328 545,-328 545,-294 545,-294 545,-288 551,-282 557,-282 557,-282 705,-282 705,-282 711,-282 717,-288 717,-294 717,-294 717,-328 717,-328 717,-334 711,-340 705,-340"/>
<text text-anchor="start" x="574" y="-325.8" font-family="Times,serif" text-decoration="underline" font-size="14.00">SORT AND INDEX</text>
<text text-anchor="start" x="569.5" y="-313.4" font-family="Times,serif" font-size="12.00">Sort and index BAM files</text>
<text text-anchor="start" x="553" y="-289.4" font-family="Times,serif" font-size="12.00">Uses: sambamba&#45;0.6.5&#45;5a33d57.</text>
</g>
<!-- add&#45;read&#45;groups&#45;1.0&#45;&gt;sort&#45;and&#45;index&#45;1.0 -->
<g id="edge2" class="edge"><title>add&#45;read&#45;groups&#45;1.0&#45;&gt;sort&#45;and&#45;index&#45;1.0</title>
<path fill="none" stroke="black" d="M631,-375.897C631,-367.858 631,-358.954 631,-350.41"/>
<polygon fill="black" stroke="black" points="634.5,-350.248 631,-340.248 627.5,-350.248 634.5,-350.248"/>
</g>
<!-- feature&#45;readcount&#45;1.0 -->
<g id="node5" class="node"><title>feature&#45;readcount&#45;1.0</title>
<path fill="#aaeeff" stroke="black" d="M488,-246C488,-246 322,-246 322,-246 316,-246 310,-240 310,-234 310,-234 310,-200 310,-200 310,-194 316,-188 322,-188 322,-188 488,-188 488,-188 494,-188 500,-194 500,-200 500,-200 500,-234 500,-234 500,-240 494,-246 488,-246"/>
<text text-anchor="start" x="331" y="-231.8" font-family="Times,serif" text-decoration="underline" font-size="14.00">FEATURE READCOUNT</text>
<text text-anchor="start" x="318" y="-219.4" font-family="Times,serif" font-size="12.00">Number of mapped reads per feature</text>
<text text-anchor="start" x="362.5" y="-195.4" font-family="Times,serif" font-size="12.00">Uses: htseq&#45;0.6.1.</text>
</g>
<!-- sort&#45;and&#45;index&#45;1.0&#45;&gt;feature&#45;readcount&#45;1.0 -->
<g id="edge5" class="edge"><title>sort&#45;and&#45;index&#45;1.0&#45;&gt;feature&#45;readcount&#45;1.0</title>
<path fill="none" stroke="black" d="M561.965,-281.897C537.108,-271.778 508.889,-260.291 483.3,-249.874"/>
<polygon fill="black" stroke="black" points="484.583,-246.618 474.002,-246.089 481.944,-253.101 484.583,-246.618"/>
</g>
<!-- collect&#45;alignment&#45;metrics&#45;1.0 -->
<g id="node6" class="node"><title>collect&#45;alignment&#45;metrics&#45;1.0</title>
<path fill="#ffd42a" stroke="black" d="M731.5,-246C731.5,-246 530.5,-246 530.5,-246 524.5,-246 518.5,-240 518.5,-234 518.5,-234 518.5,-200 518.5,-200 518.5,-194 524.5,-188 530.5,-188 530.5,-188 731.5,-188 731.5,-188 737.5,-188 743.5,-194 743.5,-200 743.5,-200 743.5,-234 743.5,-234 743.5,-240 737.5,-246 731.5,-246"/>
<text text-anchor="start" x="526.5" y="-231.8" font-family="Times,serif" text-decoration="underline" font-size="14.00">COLLECT ALIGNMENT METRICS</text>
<text text-anchor="start" x="527" y="-219.4" font-family="Times,serif" font-size="12.00">Report quality statistics of sorted BAM files</text>
<text text-anchor="start" x="584.5" y="-195.4" font-family="Times,serif" font-size="12.00">Uses: picard&#45;1.141.</text>
</g>
<!-- sort&#45;and&#45;index&#45;1.0&#45;&gt;collect&#45;alignment&#45;metrics&#45;1.0 -->
<g id="edge4" class="edge"><title>sort&#45;and&#45;index&#45;1.0&#45;&gt;collect&#45;alignment&#45;metrics&#45;1.0</title>
<path fill="none" stroke="black" d="M631,-281.897C631,-273.858 631,-264.954 631,-256.41"/>
<polygon fill="black" stroke="black" points="634.5,-256.248 631,-246.248 627.5,-256.248 634.5,-256.248"/>
</g>
<!-- variant&#45;calling&#45;1.0 -->
<g id="node7" class="node"><title>variant&#45;calling&#45;1.0</title>
<path fill="#ff9955" stroke="black" d="M952,-246C952,-246 774,-246 774,-246 768,-246 762,-240 762,-234 762,-234 762,-200 762,-200 762,-194 768,-188 774,-188 774,-188 952,-188 952,-188 958,-188 964,-194 964,-200 964,-200 964,-234 964,-234 964,-240 958,-246 952,-246"/>
<text text-anchor="start" x="801" y="-231.8" font-family="Times,serif" text-decoration="underline" font-size="14.00">VARIANT CALLING</text>
<text text-anchor="start" x="770" y="-219.4" font-family="Times,serif" font-size="12.00">Variant calling, filtering and annotation</text>
<text text-anchor="start" x="816.5" y="-195.4" font-family="Times,serif" font-size="12.00">Uses: picard&#45;1.141.</text>
</g>
<!-- sort&#45;and&#45;index&#45;1.0&#45;&gt;variant&#45;calling&#45;1.0 -->
<g id="edge3" class="edge"><title>sort&#45;and&#45;index&#45;1.0&#45;&gt;variant&#45;calling&#45;1.0</title>
<path fill="none" stroke="black" d="M701.868,-281.897C727.385,-271.778 756.353,-260.291 782.622,-249.874"/>
<polygon fill="black" stroke="black" points="784.161,-253.029 792.166,-246.089 781.58,-246.522 784.161,-253.029"/>
</g>
<!-- merge&#45;read&#45;features&#45;1.0 -->
<g id="node8" class="node"><title>merge&#45;read&#45;features&#45;1.0</title>
<path fill="#d38d5f" stroke="black" d="M494,-152C494,-152 316,-152 316,-152 310,-152 304,-146 304,-140 304,-140 304,-106 304,-106 304,-100 310,-94 316,-94 316,-94 494,-94 494,-94 500,-94 506,-100 506,-106 506,-106 506,-140 506,-140 506,-146 500,-152 494,-152"/>
<text text-anchor="start" x="324.5" y="-137.8" font-family="Times,serif" text-decoration="underline" font-size="14.00">MERGE READ FEATURES</text>
<text text-anchor="start" x="312" y="-125.4" font-family="Times,serif" font-size="12.00">Merge feature read count into one table</text>
<text text-anchor="start" x="386.5" y="-101.4" font-family="Times,serif" font-size="12.00">Uses: &#45;.</text>
</g>
<!-- feature&#45;readcount&#45;1.0&#45;&gt;merge&#45;read&#45;features&#45;1.0 -->
<g id="edge6" class="edge"><title>feature&#45;readcount&#45;1.0&#45;&gt;merge&#45;read&#45;features&#45;1.0</title>
<path fill="none" stroke="black" d="M405,-187.897C405,-179.858 405,-170.954 405,-162.41"/>
<polygon fill="black" stroke="black" points="408.5,-162.248 405,-152.248 401.5,-162.248 408.5,-162.248"/>
</g>
<!-- compute&#45;rpkm&#45;values&#45;1.0 -->
<g id="node9" class="node"><title>compute&#45;rpkm&#45;values&#45;1.0</title>
<path fill="#ac93a7" stroke="black" d="M268,-58C268,-58 12,-58 12,-58 6,-58 0,-52 0,-46 0,-46 0,-12 0,-12 0,-6 6,-0 12,-0 12,-0 268,-0 268,-0 274,-0 280,-6 280,-12 280,-12 280,-46 280,-46 280,-52 274,-58 268,-58"/>
<text text-anchor="start" x="57" y="-43.8" font-family="Times,serif" text-decoration="underline" font-size="14.00">COMPUTE RPKM VALUES</text>
<text text-anchor="start" x="8" y="-31.4" font-family="Times,serif" font-size="12.00">Compute reads per kilobase per million (RPKM) values</text>
<text text-anchor="start" x="71" y="-7.4" font-family="Times,serif" font-size="12.00">Uses: r&#45;3.3.2, r&#45;edger&#45;3.16.5.</text>
</g>
<!-- merge&#45;read&#45;features&#45;1.0&#45;&gt;compute&#45;rpkm&#45;values&#45;1.0 -->
<g id="edge7" class="edge"><title>merge&#45;read&#45;features&#45;1.0&#45;&gt;compute&#45;rpkm&#45;values&#45;1.0</title>
<path fill="none" stroke="black" d="M324.051,-93.8971C294.522,-83.6454 260.945,-71.9886 230.629,-61.4635"/>
<polygon fill="black" stroke="black" points="231.504,-58.0626 220.909,-58.0892 229.208,-64.6754 231.504,-58.0626"/>
</g>
<!-- normalize&#45;read&#45;counts&#45;1.0 -->
<g id="node10" class="node"><title>normalize&#45;read&#45;counts&#45;1.0</title>
<path fill="#d35f5f" stroke="black" d="M499.5,-58C499.5,-58 310.5,-58 310.5,-58 304.5,-58 298.5,-52 298.5,-46 298.5,-46 298.5,-12 298.5,-12 298.5,-6 304.5,-0 310.5,-0 310.5,-0 499.5,-0 499.5,-0 505.5,-0 511.5,-6 511.5,-12 511.5,-12 511.5,-46 511.5,-46 511.5,-52 505.5,-58 499.5,-58"/>
<text text-anchor="start" x="315.5" y="-43.8" font-family="Times,serif" text-decoration="underline" font-size="14.00">NORMALIZE READ COUNTS</text>
<text text-anchor="start" x="306.5" y="-31.4" font-family="Times,serif" font-size="12.00">Normalize read counts by their size factor</text>
<text text-anchor="start" x="335.5" y="-7.4" font-family="Times,serif" font-size="12.00">Uses: r&#45;3.3.2, r&#45;deseq&#45;1.26.0.</text>
</g>
<!-- merge&#45;read&#45;features&#45;1.0&#45;&gt;normalize&#45;read&#45;counts&#45;1.0 -->
<g id="edge8" class="edge"><title>merge&#45;read&#45;features&#45;1.0&#45;&gt;normalize&#45;read&#45;counts&#45;1.0</title>
<path fill="none" stroke="black" d="M405,-93.8971C405,-85.8575 405,-76.9539 405,-68.4096"/>
<polygon fill="black" stroke="black" points="408.5,-68.2478 405,-58.2479 401.5,-68.2479 408.5,-68.2478"/>
</g>
<!-- differential&#45;expression&#45;1.0 -->
<g id="node11" class="node"><title>differential&#45;expression&#45;1.0</title>
<path fill="#8dd35f" stroke="black" d="M714.5,-58C714.5,-58 541.5,-58 541.5,-58 535.5,-58 529.5,-52 529.5,-46 529.5,-46 529.5,-12 529.5,-12 529.5,-6 535.5,-0 541.5,-0 541.5,-0 714.5,-0 714.5,-0 720.5,-0 726.5,-6 726.5,-12 726.5,-12 726.5,-46 726.5,-46 726.5,-52 720.5,-58 714.5,-58"/>
<text text-anchor="start" x="537.5" y="-43.8" font-family="Times,serif" text-decoration="underline" font-size="14.00">DIFFERENTIAL EXPRESSION</text>
<text text-anchor="start" x="542" y="-31.4" font-family="Times,serif" font-size="12.00">Do a differential expression analysis</text>
<text text-anchor="start" x="555.5" y="-7.4" font-family="Times,serif" font-size="12.00">Uses: r&#45;3.3.2, r&#45;deseq2&#45;1.14.1.</text>
</g>
<!-- merge&#45;read&#45;features&#45;1.0&#45;&gt;differential&#45;expression&#45;1.0 -->
<g id="edge9" class="edge"><title>merge&#45;read&#45;features&#45;1.0&#45;&gt;differential&#45;expression&#45;1.0</title>
<path fill="none" stroke="black" d="M473.119,-93.8971C497.538,-83.8229 525.246,-72.3919 550.407,-62.0113"/>
<polygon fill="black" stroke="black" points="552.005,-65.1385 559.914,-58.0892 549.335,-58.6676 552.005,-65.1385"/>
</g>
</g>
</svg>
