<?xml version="1.0" encoding="UTF-8" standalone="no"?>
<!DOCTYPE svg PUBLIC "-//W3C//DTD SVG 1.1//EN"
 "http://www.w3.org/Graphics/SVG/1.1/DTD/svg11.dtd">
<!-- Generated by graphviz version 2.38.0 (20140413.2041)
 -->
<!-- Title: G Pages: 1 -->
<svg width="234pt" height="160pt"
 viewBox="0.00 0.00 234.00 160.00" xmlns="http://www.w3.org/2000/svg" xmlns:xlink="http://www.w3.org/1999/xlink">
<g id="graph0" class="graph" transform="scale(1 1) rotate(0) translate(4 156)">
<title>G</title>
<!-- hello&#45;alice&#45;1.0 -->
<g id="node1" class="node"><title>hello&#45;alice&#45;1.0</title>
<path fill="#ffd42a" stroke="black" d="M92,-58C92,-58 12,-58 12,-58 6,-58 0,-52 0,-46 0,-46 0,-12 0,-12 0,-6 6,-0 12,-0 12,-0 92,-0 92,-0 98,-0 104,-6 104,-12 104,-12 104,-46 104,-46 104,-52 98,-58 92,-58"/>
<text text-anchor="start" x="8" y="-43.8" font-family="Times,serif" text-decoration="underline" font-size="14.00">HELLO ALICE</text>
<text text-anchor="start" x="8" y="-31.4" font-family="Times,serif" font-size="12.00">A friendly greeter.</text>
<text text-anchor="start" x="33.5" y="-7.4" font-family="Times,serif" font-size="12.00">Uses: &#45;.</text>
</g>
<!-- hello&#45;bob&#45;1.0 -->
<g id="node2" class="node"><title>hello&#45;bob&#45;1.0</title>
<path fill="#ff9955" stroke="black" d="M214,-58C214,-58 134,-58 134,-58 128,-58 122,-52 122,-46 122,-46 122,-12 122,-12 122,-6 128,-0 134,-0 134,-0 214,-0 214,-0 220,-0 226,-6 226,-12 226,-12 226,-46 226,-46 226,-52 220,-58 214,-58"/>
<text text-anchor="start" x="136" y="-43.8" font-family="Times,serif" text-decoration="underline" font-size="14.00">HELLO BOB</text>
<text text-anchor="start" x="130" y="-31.4" font-family="Times,serif" font-size="12.00">A friendly greeter.</text>
<text text-anchor="start" x="155.5" y="-7.4" font-family="Times,serif" font-size="12.00">Uses: &#45;.</text>
</g>
<!-- hello&#45;world&#45;1.0 -->
<g id="node3" class="node"><title>hello&#45;world&#45;1.0</title>
<path fill="#d38d5f" stroke="black" d="M158.5,-152C158.5,-152 67.5,-152 67.5,-152 61.5,-152 55.5,-146 55.5,-140 55.5,-140 55.5,-106 55.5,-106 55.5,-100 61.5,-94 67.5,-94 67.5,-94 158.5,-94 158.5,-94 164.5,-94 170.5,-100 170.5,-106 170.5,-106 170.5,-140 170.5,-140 170.5,-146 164.5,-152 158.5,-152"/>
<text text-anchor="start" x="63.5" y="-137.8" font-family="Times,serif" text-decoration="underline" font-size="14.00">HELLO WORLD</text>
<text text-anchor="start" x="69" y="-125.4" font-family="Times,serif" font-size="12.00">A friendly greeter.</text>
<text text-anchor="start" x="94.5" y="-101.4" font-family="Times,serif" font-size="12.00">Uses: &#45;.</text>
</g>
<!-- hello&#45;world&#45;1.0&#45;&gt;hello&#45;alice&#45;1.0 -->
<g id="edge1" class="edge"><title>hello&#45;world&#45;1.0&#45;&gt;hello&#45;alice&#45;1.0</title>
<path fill="none" stroke="black" d="M94.3665,-93.8971C88.6845,-85.3275 82.3515,-75.776 76.35,-66.7246"/>
<polygon fill="black" stroke="black" points="79.1727,-64.6481 70.7296,-58.2479 73.3386,-68.5164 79.1727,-64.6481"/>
</g>
<!-- hello&#45;world&#45;1.0&#45;&gt;hello&#45;bob&#45;1.0 -->
<g id="edge2" class="edge"><title>hello&#45;world&#45;1.0&#45;&gt;hello&#45;bob&#45;1.0</title>
<path fill="none" stroke="black" d="M131.633,-93.8971C137.315,-85.3275 143.648,-75.776 149.65,-66.7246"/>
<polygon fill="black" stroke="black" points="152.661,-68.5164 155.27,-58.2479 146.827,-64.6481 152.661,-68.5164"/>
</g>
</g>
</svg>
