<?xml version="1.0" encoding="UTF-8" standalone="no"?>
<svg
   xmlns:dc="http://purl.org/dc/elements/1.1/"
   xmlns:cc="http://creativecommons.org/ns#"
   xmlns:rdf="http://www.w3.org/1999/02/22-rdf-syntax-ns#"
   xmlns:svg="http://www.w3.org/2000/svg"
   xmlns="http://www.w3.org/2000/svg"
   xmlns:xlink="http://www.w3.org/1999/xlink"
   xmlns:sodipodi="http://sodipodi.sourceforge.net/DTD/sodipodi-0.dtd"
   xmlns:inkscape="http://www.inkscape.org/namespaces/inkscape"
   width="1280"
   height="720"
   viewBox="0 0 338.66665 190.50001"
   version="1.1"
   id="svg8"
   inkscape:version="1.0.1 (3bc2e813f5, 2020-09-07)"
   sodipodi:docname="00-title.svg">
  <defs
     id="defs2">
    <inkscape:path-effect
       is_visible="true"
       id="path-effect2491"
       effect="spiro"
       lpeversion="0" />
    <inkscape:path-effect
       simplifyJustCoalesce="false"
       simplifyindividualpaths="false"
       simplify_just_coalesce="false"
       simplify_individual_paths="false"
       helper_size="0"
       smooth_angles="360"
       threshold="0.0165116"
       steps="1"
       is_visible="true"
       id="path-effect2489"
       effect="simplify"
       lpeversion="0" />
    <inkscape:path-effect
       effect="spiro"
       id="path-effect2328"
       is_visible="true"
       lpeversion="0" />
    <inkscape:path-effect
       effect="simplify"
       id="path-effect2326"
       is_visible="true"
       steps="1"
       threshold="0.0165116"
       smooth_angles="360"
       helper_size="0"
       simplify_individual_paths="false"
       simplify_just_coalesce="false"
       simplifyindividualpaths="false"
       simplifyJustCoalesce="false"
       lpeversion="0" />
    <inkscape:path-effect
       effect="spiro"
       id="path-effect2322"
       is_visible="true"
       lpeversion="0" />
    <inkscape:path-effect
       effect="simplify"
       id="path-effect2320"
       is_visible="true"
       steps="1"
       threshold="0.0165116"
       smooth_angles="360"
       helper_size="0"
       simplify_individual_paths="false"
       simplify_just_coalesce="false"
       simplifyindividualpaths="false"
       simplifyJustCoalesce="false"
       lpeversion="0" />
    <inkscape:path-effect
       effect="spiro"
       id="path-effect2316"
       is_visible="true"
       lpeversion="0" />
    <inkscape:path-effect
       effect="simplify"
       id="path-effect2314"
       is_visible="true"
       steps="1"
       threshold="0.0165116"
       smooth_angles="360"
       helper_size="0"
       simplify_individual_paths="false"
       simplify_just_coalesce="false"
       simplifyindividualpaths="false"
       simplifyJustCoalesce="false"
       lpeversion="0" />
    <inkscape:path-effect
       effect="spiro"
       id="path-effect2298"
       is_visible="true"
       lpeversion="0" />
    <inkscape:path-effect
       effect="simplify"
       id="path-effect2296"
       is_visible="true"
       steps="1"
       threshold="0.0165116"
       smooth_angles="360"
       helper_size="0"
       simplify_individual_paths="false"
       simplify_just_coalesce="false"
       simplifyindividualpaths="false"
       simplifyJustCoalesce="false"
       lpeversion="0" />
    <inkscape:path-effect
       effect="spiro"
       id="path-effect2292"
       is_visible="true"
       lpeversion="0" />
    <inkscape:path-effect
       effect="simplify"
       id="path-effect2290"
       is_visible="true"
       steps="1"
       threshold="0.0165116"
       smooth_angles="360"
       helper_size="0"
       simplify_individual_paths="false"
       simplify_just_coalesce="false"
       simplifyindividualpaths="false"
       simplifyJustCoalesce="false"
       lpeversion="0" />
    <inkscape:path-effect
       effect="spiro"
       id="path-effect2286"
       is_visible="true"
       lpeversion="0" />
    <inkscape:path-effect
       effect="simplify"
       id="path-effect2284"
       is_visible="true"
       steps="1"
       threshold="0.0165116"
       smooth_angles="360"
       helper_size="0"
       simplify_individual_paths="false"
       simplify_just_coalesce="false"
       simplifyindividualpaths="false"
       simplifyJustCoalesce="false"
       lpeversion="0" />
    <inkscape:path-effect
       effect="spiro"
       id="path-effect2274"
       is_visible="true"
       lpeversion="0" />
    <inkscape:path-effect
       effect="simplify"
       id="path-effect2272"
       is_visible="true"
       steps="1"
       threshold="0.0165116"
       smooth_angles="360"
       helper_size="0"
       simplify_individual_paths="false"
       simplify_just_coalesce="false"
       simplifyindividualpaths="false"
       simplifyJustCoalesce="false"
       lpeversion="0" />
    <inkscape:path-effect
       effect="spiro"
       id="path-effect2268"
       is_visible="true"
       lpeversion="0" />
    <inkscape:path-effect
       effect="simplify"
       id="path-effect2266"
       is_visible="true"
       steps="1"
       threshold="0.0165116"
       smooth_angles="360"
       helper_size="0"
       simplify_individual_paths="false"
       simplify_just_coalesce="false"
       simplifyindividualpaths="false"
       simplifyJustCoalesce="false"
       lpeversion="0" />
    <inkscape:path-effect
       effect="spiro"
       id="path-effect2130"
       is_visible="true"
       lpeversion="0" />
    <inkscape:path-effect
       effect="simplify"
       id="path-effect2128"
       is_visible="true"
       steps="1"
       threshold="0.0165116"
       smooth_angles="360"
       helper_size="0"
       simplify_individual_paths="false"
       simplify_just_coalesce="false"
       simplifyindividualpaths="false"
       simplifyJustCoalesce="false"
       lpeversion="0" />
    <inkscape:path-effect
       effect="spiro"
       id="path-effect2124"
       is_visible="true"
       lpeversion="0" />
    <inkscape:path-effect
       effect="simplify"
       id="path-effect2122"
       is_visible="true"
       steps="1"
       threshold="0.0165116"
       smooth_angles="360"
       helper_size="0"
       simplify_individual_paths="false"
       simplify_just_coalesce="false"
       simplifyindividualpaths="false"
       simplifyJustCoalesce="false"
       lpeversion="0" />
    <inkscape:path-effect
       effect="spiro"
       id="path-effect2118"
       is_visible="true"
       lpeversion="0" />
    <inkscape:path-effect
       effect="simplify"
       id="path-effect2116"
       is_visible="true"
       steps="1"
       threshold="0.0165116"
       smooth_angles="360"
       helper_size="0"
       simplify_individual_paths="false"
       simplify_just_coalesce="false"
       simplifyindividualpaths="false"
       simplifyJustCoalesce="false"
       lpeversion="0" />
    <inkscape:path-effect
       effect="spiro"
       id="path-effect2112"
       is_visible="true"
       lpeversion="0" />
    <inkscape:path-effect
       effect="simplify"
       id="path-effect2110"
       is_visible="true"
       steps="1"
       threshold="0.0165116"
       smooth_angles="360"
       helper_size="0"
       simplify_individual_paths="false"
       simplify_just_coalesce="false"
       simplifyindividualpaths="false"
       simplifyJustCoalesce="false"
       lpeversion="0" />
    <inkscape:path-effect
       effect="spiro"
       id="path-effect2106"
       is_visible="true"
       lpeversion="0" />
    <inkscape:path-effect
       effect="simplify"
       id="path-effect2104"
       is_visible="true"
       steps="1"
       threshold="0.0165116"
       smooth_angles="360"
       helper_size="0"
       simplify_individual_paths="false"
       simplify_just_coalesce="false"
       simplifyindividualpaths="false"
       simplifyJustCoalesce="false"
       lpeversion="0" />
    <inkscape:path-effect
       effect="spiro"
       id="path-effect2088"
       is_visible="true"
       lpeversion="0" />
    <inkscape:path-effect
       effect="simplify"
       id="path-effect2086"
       is_visible="true"
       steps="1"
       threshold="0.0165116"
       smooth_angles="360"
       helper_size="0"
       simplify_individual_paths="false"
       simplify_just_coalesce="false"
       simplifyindividualpaths="false"
       simplifyJustCoalesce="false"
       lpeversion="0" />
    <inkscape:path-effect
       effect="spiro"
       id="path-effect2076"
       is_visible="true"
       lpeversion="0" />
    <inkscape:path-effect
       effect="simplify"
       id="path-effect2074"
       is_visible="true"
       steps="1"
       threshold="0.0165116"
       smooth_angles="360"
       helper_size="0"
       simplify_individual_paths="false"
       simplify_just_coalesce="false"
       simplifyindividualpaths="false"
       simplifyJustCoalesce="false"
       lpeversion="0" />
    <inkscape:path-effect
       effect="spiro"
       id="path-effect2058"
       is_visible="true"
       lpeversion="0" />
    <inkscape:path-effect
       effect="simplify"
       id="path-effect2056"
       is_visible="true"
       steps="1"
       threshold="0.0165116"
       smooth_angles="360"
       helper_size="0"
       simplify_individual_paths="false"
       simplify_just_coalesce="false"
       simplifyindividualpaths="false"
       simplifyJustCoalesce="false"
       lpeversion="0" />
    <inkscape:path-effect
       effect="spiro"
       id="path-effect2040"
       is_visible="true"
       lpeversion="0" />
    <inkscape:path-effect
       effect="simplify"
       id="path-effect2038"
       is_visible="true"
       steps="1"
       threshold="0.0165116"
       smooth_angles="360"
       helper_size="0"
       simplify_individual_paths="false"
       simplify_just_coalesce="false"
       simplifyindividualpaths="false"
       simplifyJustCoalesce="false"
       lpeversion="0" />
    <inkscape:path-effect
       effect="bspline"
       id="path-effect10907"
       is_visible="true"
       weight="33.333333"
       steps="2"
       helper_size="0"
       apply_no_weight="true"
       apply_with_weight="true"
       only_selected="false"
       lpeversion="0" />
    <inkscape:perspective
       sodipodi:type="inkscape:persp3d"
       inkscape:vp_x="0 : 47.624992 : 1"
       inkscape:vp_y="0 : 1000 : 0"
       inkscape:vp_z="507.99997 : 47.624992 : 1"
       inkscape:persp3d-origin="253.99999 : -7.8719917e-07 : 1"
       id="perspective9456" />
    <inkscape:path-effect
       effect="bspline"
       id="path-effect4268"
       is_visible="true"
       weight="33.333333"
       steps="2"
       helper_size="0"
       apply_no_weight="true"
       apply_with_weight="true"
       only_selected="false"
       lpeversion="0" />
    <linearGradient
       id="linearGradient4094">
      <stop
         style="stop-color:#232323;stop-opacity:1;"
         offset="0"
         id="stop4096" />
      <stop
         style="stop-color:#4d4d4d;stop-opacity:1;"
         offset="1"
         id="stop4098" />
    </linearGradient>
    <linearGradient
       id="linearGradient4014">
      <stop
         style="stop-color:#a0a0a0;stop-opacity:1;"
         offset="0"
         id="stop4016" />
      <stop
         style="stop-color:#ffffff;stop-opacity:1;"
         offset="1"
         id="stop4018" />
    </linearGradient>
    <linearGradient
       id="linearGradient4678">
      <stop
         style="stop-color:#e5e5e5;stop-opacity:1;"
         offset="0"
         id="stop4680" />
      <stop
         style="stop-color:#d3cdcd;stop-opacity:1;"
         offset="1"
         id="stop4682" />
    </linearGradient>
    <linearGradient
       id="linearGradient4341">
      <stop
         id="stop4343"
         offset="0"
         style="stop-color:#333333;stop-opacity:1;" />
      <stop
         id="stop4345"
         offset="1"
         style="stop-color:#484848;stop-opacity:1;" />
    </linearGradient>
    <linearGradient
       id="linearGradient4696-5">
      <stop
         id="stop4698-6"
         offset="0"
         style="stop-color:#ffb638;stop-opacity:1;" />
      <stop
         id="stop4700-2"
         offset="1"
         style="stop-color:#f0ae26;stop-opacity:1;" />
    </linearGradient>
    <linearGradient
       id="linearGradient4702-3">
      <stop
         id="stop4704-1"
         offset="0"
         style="stop-color:#e34646;stop-opacity:1;" />
      <stop
         id="stop4706-8"
         offset="1"
         style="stop-color:#ffbf2d;stop-opacity:1;" />
    </linearGradient>
    <color-profile
       xlink:href="file:///usr/share/color/icc/ghostscript/ps_cmyk.icc"
       id="color-profile59"
       name="Artifex-PS-CMYK-Profile" />
    <clipPath
       id="clipPath4501"
       clipPathUnits="userSpaceOnUse">
      <path
         style="clip-rule:evenodd"
         inkscape:connector-curvature="0"
         id="path4499"
         d="M 0,0 H 124.992 V 144 H 0 Z" />
    </clipPath>
    <clipPath
       id="clipPath4525"
       clipPathUnits="userSpaceOnUse">
      <path
         inkscape:connector-curvature="0"
         id="path4523"
         d="M 0,0 H 100 V 125 H 0 Z" />
    </clipPath>
    <clipPath
       id="clipPath4545"
       clipPathUnits="userSpaceOnUse">
      <path
         inkscape:connector-curvature="0"
         id="path4543"
         d="M 0,0 H 100 V 125 H 0 Z" />
    </clipPath>
    <clipPath
       id="clipPath4561"
       clipPathUnits="userSpaceOnUse">
      <path
         inkscape:connector-curvature="0"
         id="path4559"
         d="M 0,0 H 100 V 125 H 0 Z" />
    </clipPath>
    <clipPath
       id="clipPath4577"
       clipPathUnits="userSpaceOnUse">
      <path
         inkscape:connector-curvature="0"
         id="path4575"
         d="M 0,0 H 100 V 125 H 0 Z" />
    </clipPath>
    <clipPath
       id="clipPath4593"
       clipPathUnits="userSpaceOnUse">
      <path
         inkscape:connector-curvature="0"
         id="path4591"
         d="M 0,0 H 100 V 125 H 0 Z" />
    </clipPath>
    <clipPath
       id="clipPath4609"
       clipPathUnits="userSpaceOnUse">
      <path
         inkscape:connector-curvature="0"
         id="path4607"
         d="M 0,0 H 100 V 125 H 0 Z" />
    </clipPath>
    <clipPath
       id="clipPath4625"
       clipPathUnits="userSpaceOnUse">
      <path
         inkscape:connector-curvature="0"
         id="path4623"
         d="M 0,0 H 100 V 125 H 0 Z" />
    </clipPath>
    <clipPath
       id="clipPath4641"
       clipPathUnits="userSpaceOnUse">
      <path
         inkscape:connector-curvature="0"
         id="path4639"
         d="M 0,0 H 100 V 125 H 0 Z" />
    </clipPath>
    <clipPath
       id="clipPath4657"
       clipPathUnits="userSpaceOnUse">
      <path
         inkscape:connector-curvature="0"
         id="path4655"
         d="M 0,0 H 100 V 125 H 0 Z" />
    </clipPath>
    <clipPath
       id="clipPath4673"
       clipPathUnits="userSpaceOnUse">
      <path
         inkscape:connector-curvature="0"
         id="path4671"
         d="M 0,0 H 100 V 125 H 0 Z" />
    </clipPath>
    <style
       id="style3894"
       type="text/css"><![CDATA[
    line, polyline, path, rect, circle {
      fill: none;
      stroke: #000000;
      stroke-linecap: round;
      stroke-linejoin: round;
      stroke-miterlimit: 10.00;
    }
  ]]></style>
    <clipPath
       id="cpNzMuMDYyM3w1NDYuMzIzfDM5My4wNzJ8MzEuMDU2Nw==">
      <rect
         id="rect3902"
         height="362.01999"
         width="473.26001"
         y="31.059999"
         x="73.059998" />
    </clipPath>
    <clipPath
       id="cpMHw3MDguNjYxfDUwMy40MjV8MA==">
      <rect
         id="rect3995"
         height="503.42999"
         width="708.65997"
         y="0"
         x="0" />
    </clipPath>
    <marker
       inkscape:stockid="Arrow2Send"
       orient="auto"
       refY="0"
       refX="0"
       id="Arrow2Send-3-3"
       style="overflow:visible"
       inkscape:isstock="true">
      <path
         inkscape:connector-curvature="0"
         id="path6389-4-7"
         style="fill:#ffbf2d;fill-opacity:1;fill-rule:evenodd;stroke:#ffbf2d;stroke-width:0.625;stroke-linejoin:round;stroke-opacity:1"
         d="M 8.7185878,4.0337352 -2.2072895,0.01601326 8.7185884,-4.0017078 c -1.7454984,2.3720609 -1.7354408,5.6174519 -6e-7,8.035443 z"
         transform="matrix(-0.3,0,0,-0.3,0.69,0)" />
    </marker>
    <marker
       inkscape:stockid="Arrow2Send"
       orient="auto"
       refY="0"
       refX="0"
       id="Arrow2Send-3-3-6"
       style="overflow:visible"
       inkscape:isstock="true">
      <path
         inkscape:connector-curvature="0"
         id="path6389-4-7-3"
         style="fill:#ffbf2d;fill-opacity:1;fill-rule:evenodd;stroke:#ffbf2d;stroke-width:0.625;stroke-linejoin:round;stroke-opacity:1"
         d="M 8.7185878,4.0337352 -2.2072895,0.01601326 8.7185884,-4.0017078 c -1.7454984,2.3720609 -1.7354408,5.6174519 -6e-7,8.035443 z"
         transform="matrix(-0.3,0,0,-0.3,0.69,0)" />
    </marker>
    <inkscape:path-effect
       effect="bspline"
       id="path-effect10907-2"
       is_visible="true"
       weight="33.333333"
       steps="2"
       helper_size="0"
       apply_no_weight="true"
       apply_with_weight="true"
       only_selected="false"
       lpeversion="0" />
    <inkscape:path-effect
       effect="bspline"
       id="path-effect10907-7"
       is_visible="true"
       weight="33.333333"
       steps="2"
       helper_size="0"
       apply_no_weight="true"
       apply_with_weight="true"
       only_selected="false"
       lpeversion="0" />
    <inkscape:path-effect
       effect="bspline"
       id="path-effect10907-1"
       is_visible="true"
       weight="33.333333"
       steps="2"
       helper_size="0"
       apply_no_weight="true"
       apply_with_weight="true"
       only_selected="false"
       lpeversion="0" />
    <clipPath
       id="clipPath8">
      <path
         inkscape:connector-curvature="0"
         id="path10"
         d="M 76,2 V 48 H 54 V 71 H 35.580737 c -0.07818,0.665694 -0.141485,1.332869 -0.205737,2 -1.151162,12.530963 1.036422,24.087546 6.0625,33.96875 L 43.125,110 c 1.011403,1.81678 2.191241,3.52297 3.4375,5.1875 1.244725,1.66248 1.685716,2.58262 2.46875,3.6875 C 62.319911,133.81083 82.129473,141 105,141 155.64836,141 198.63299,118.56201 217.65625,68.15625 231.15302,69.54122 244.09968,66.080358 250,54.5625 240.60137,49.138835 228.52163,50.877226 221.5625,54.375 L 240,2 168,48 H 145 V 2 Z" />
    </clipPath>
    <clipPath
       id="clipPath24989">
      <path
         inkscape:connector-curvature="0"
         id="path24987"
         d="M 76,2 V 48 H 54 V 71 H 35.580737 c -0.07818,0.665694 -0.141485,1.332869 -0.205737,2 -1.151162,12.530963 1.036422,24.087546 6.0625,33.96875 L 43.125,110 c 1.011403,1.81678 2.191241,3.52297 3.4375,5.1875 1.244725,1.66248 1.685716,2.58262 2.46875,3.6875 C 62.319911,133.81083 82.129473,141 105,141 155.64836,141 198.63299,118.56201 217.65625,68.15625 231.15302,69.54122 244.09968,66.080358 250,54.5625 240.60137,49.138835 228.52163,50.877226 221.5625,54.375 L 240,2 168,48 H 145 V 2 Z" />
    </clipPath>
    <clipPath
       id="clipPath24993">
      <path
         inkscape:connector-curvature="0"
         id="path24991"
         d="M 76,2 V 48 H 54 V 71 H 35.580737 c -0.07818,0.665694 -0.141485,1.332869 -0.205737,2 -1.151162,12.530963 1.036422,24.087546 6.0625,33.96875 L 43.125,110 c 1.011403,1.81678 2.191241,3.52297 3.4375,5.1875 1.244725,1.66248 1.685716,2.58262 2.46875,3.6875 C 62.319911,133.81083 82.129473,141 105,141 155.64836,141 198.63299,118.56201 217.65625,68.15625 231.15302,69.54122 244.09968,66.080358 250,54.5625 240.60137,49.138835 228.52163,50.877226 221.5625,54.375 L 240,2 168,48 H 145 V 2 Z" />
    </clipPath>
    <clipPath
       id="clipPath24997">
      <path
         inkscape:connector-curvature="0"
         id="path24995"
         d="M 76,2 V 48 H 54 V 71 H 35.580737 c -0.07818,0.665694 -0.141485,1.332869 -0.205737,2 -1.151162,12.530963 1.036422,24.087546 6.0625,33.96875 L 43.125,110 c 1.011403,1.81678 2.191241,3.52297 3.4375,5.1875 1.244725,1.66248 1.685716,2.58262 2.46875,3.6875 C 62.319911,133.81083 82.129473,141 105,141 155.64836,141 198.63299,118.56201 217.65625,68.15625 231.15302,69.54122 244.09968,66.080358 250,54.5625 240.60137,49.138835 228.52163,50.877226 221.5625,54.375 L 240,2 168,48 H 145 V 2 Z" />
    </clipPath>
    <clipPath
       id="clipPath25001">
      <path
         inkscape:connector-curvature="0"
         id="path24999"
         d="M 76,2 V 48 H 54 V 71 H 35.580737 c -0.07818,0.665694 -0.141485,1.332869 -0.205737,2 -1.151162,12.530963 1.036422,24.087546 6.0625,33.96875 L 43.125,110 c 1.011403,1.81678 2.191241,3.52297 3.4375,5.1875 1.244725,1.66248 1.685716,2.58262 2.46875,3.6875 C 62.319911,133.81083 82.129473,141 105,141 155.64836,141 198.63299,118.56201 217.65625,68.15625 231.15302,69.54122 244.09968,66.080358 250,54.5625 240.60137,49.138835 228.52163,50.877226 221.5625,54.375 L 240,2 168,48 H 145 V 2 Z" />
    </clipPath>
    <filter
       inkscape:label="Torn Edges"
       inkscape:menu="Distort"
       inkscape:menu-tooltip="Displace the outside of shapes and pictures without altering their content"
       height="1.4"
       y="-0.2"
       width="1.4"
       x="-0.2"
       style="color-interpolation-filters:sRGB"
       id="filter33308">
      <feTurbulence
         baseFrequency="0.05"
         numOctaves="5"
         type="fractalNoise"
         result="result91"
         id="feTurbulence33302" />
      <feDisplacementMap
         scale="25"
         result="result5"
         xChannelSelector="R"
         in="SourceGraphic"
         in2="result91"
         id="feDisplacementMap33304"
         yChannelSelector="A" />
      <feComposite
         in="SourceGraphic"
         operator="atop"
         in2="result5"
         id="feComposite33306" />
    </filter>
    <filter
       inkscape:label="Pixellize"
       inkscape:menu="Pixel Tools"
       inkscape:menu-tooltip="Reduce or remove antialiasing around shapes"
       style="color-interpolation-filters:sRGB"
       id="filter1161">
      <feColorMatrix
         values="1 0 0 0 0 0 1 0 0 0 0 0 1 0 0 0 0 0 1000 -500 "
         id="feColorMatrix1159"
         result="fbSourceGraphic" />
      <feColorMatrix
         result="fbSourceGraphicAlpha"
         in="fbSourceGraphic"
         values="0 0 0 -1 0 0 0 0 -1 0 0 0 0 -1 0 0 0 0 1 0"
         id="feColorMatrix1163" />
      <feColorMatrix
         id="feColorMatrix1165"
         values="1 0 0 0 0 0 1 0 0 0 0 0 1 0 0 0 0 0 1000 -500 "
         in="fbSourceGraphic" />
    </filter>
    <inkscape:path-effect
       effect="simplify"
       id="path-effect2314-4"
       is_visible="true"
       steps="1"
       threshold="0.0165116"
       smooth_angles="360"
       helper_size="0"
       simplify_individual_paths="false"
       simplify_just_coalesce="false"
       simplifyindividualpaths="false"
       simplifyJustCoalesce="false"
       lpeversion="0" />
    <inkscape:path-effect
       effect="spiro"
       id="path-effect2316-4"
       is_visible="true"
       lpeversion="0" />
  </defs>
  <sodipodi:namedview
     id="base"
     pagecolor="#ffffff"
     bordercolor="#f70bff"
     borderopacity="1"
     inkscape:pageopacity="0.0"
     inkscape:pageshadow="2"
     inkscape:zoom="1"
     inkscape:cx="712.2224"
     inkscape:cy="446.13459"
     inkscape:document-units="px"
     inkscape:current-layer="layer1"
     showgrid="false"
     units="px"
     borderlayer="true"
     inkscape:showpageshadow="false"
     inkscape:pagecheckerboard="true"
     inkscape:window-width="1920"
     inkscape:window-height="1016"
     inkscape:window-x="0"
     inkscape:window-y="27"
     inkscape:window-maximized="1"
     showguides="false"
     inkscape:document-rotation="0"
     fit-margin-top="0"
     fit-margin-left="0"
     fit-margin-right="0"
     fit-margin-bottom="0" />
  <metadata
     id="metadata5">
    <rdf:RDF>
      <cc:Work
         rdf:about="">
        <dc:format>image/svg+xml</dc:format>
        <dc:type
           rdf:resource="http://purl.org/dc/dcmitype/StillImage" />
        <dc:title />
        <cc:license
           rdf:resource="http://creativecommons.org/licenses/by-sa/4.0/" />
      </cc:Work>
      <cc:License
         rdf:about="http://creativecommons.org/licenses/by-sa/4.0/">
        <cc:permits
           rdf:resource="http://creativecommons.org/ns#Reproduction" />
        <cc:permits
           rdf:resource="http://creativecommons.org/ns#Distribution" />
        <cc:requires
           rdf:resource="http://creativecommons.org/ns#Notice" />
        <cc:requires
           rdf:resource="http://creativecommons.org/ns#Attribution" />
        <cc:permits
           rdf:resource="http://creativecommons.org/ns#DerivativeWorks" />
        <cc:requires
           rdf:resource="http://creativecommons.org/ns#ShareAlike" />
      </cc:License>
    </rdf:RDF>
  </metadata>
  <g
     inkscape:label="Layer 1"
     inkscape:groupmode="layer"
     id="layer1"
     transform="translate(-265.8319,-23.850518)">
    <rect
       style="color:#000000;clip-rule:nonzero;display:inline;overflow:visible;visibility:visible;opacity:1;isolation:auto;mix-blend-mode:normal;color-interpolation:sRGB;color-interpolation-filters:linearRGB;solid-color:#000000;solid-opacity:1;vector-effect:none;fill:#e6e6e6;fill-opacity:1;fill-rule:nonzero;stroke:none;stroke-width:0.200258;stroke-linecap:round;stroke-linejoin:round;stroke-miterlimit:4;stroke-dasharray:none;stroke-dashoffset:0;stroke-opacity:1;color-rendering:auto;image-rendering:auto;shape-rendering:auto;text-rendering:auto;enable-background:accumulate"
       id="rect2926"
       width="338.66666"
       height="190.5"
       x="265.83191"
       y="23.850517" />
    <g
       transform="matrix(0.23522505,0,0,0.23522505,263.61501,32.116647)"
       id="layer1-1">
      <path
         d="m 146.86,619.79 v -500 h 500 v 500 h -500 m 7.5,-7.5 h 485 v -485 h -485 v 485 m 7.5,-7.5 V 135.41 H 631.24 V 604.79 H 161.86 M 461.24,461.04 c -3.3338,1.6e-4 -5.0003,1.4578 -5,4.375 -3.1e-4,2.5002 1.4578,3.7502 4.375,3.75 2.9162,1.6e-4 4.3747,-1.25 4.375,-3.75 -3.1e-4,-2.9166 -1.25,-4.3748 -3.75,-4.375 m -5,11.875 c -3.3338,1.6e-4 -5.0003,1.6669 -5,5 v 0.625 c 0.41562,1.6669 1.6662,2.5002 3.75,2.5 h 1.25 c 2.9162,-0.41719 4.3747,-2.0831 4.375,-5 -3.1e-4,-2.0831 -1.4594,-3.1248 -4.375,-3.125 m -8.75,10.625 -5.625,5.625 5.625,-0.625 c 2.083,-0.83281 3.1247,-1.8748 3.125,-3.125 -3.1e-4,-1.6666 -0.83438,-2.4998 -2.5,-2.5 l -0.625,0.625 m -7.5,-8.125 c -3.7503,0.83281 -5.6253,2.7084 -5.625,5.625 -3.1e-4,1.25 1.0406,1.8752 3.125,1.875 4.9997,1.6e-4 7.4997,-1.6666 7.5,-5 -3.1e-4,-1.6666 -1.4594,-2.4998 -4.375,-2.5 h -0.625 m 9.375,-5.625 c -0.83438,1.6e-4 -1.667,0.41719 -2.5,1.25 0.83281,0.83281 1.6662,1.25 2.5,1.25 1.6662,1.6e-4 2.4997,-0.41719 2.5,-1.25 -0.83438,-0.83281 -1.667,-1.25 -2.5,-1.25 m -20,15 c -3.7503,1.6e-4 -5.6253,1.4578 -5.625,4.375 -3.1e-4,1.25 1.4578,1.8752 4.375,1.875 h 1.25 c 2.9162,-0.41719 4.3747,-1.4578 4.375,-3.125 -3.1e-4,-2.4998 -1.4594,-3.5416 -4.375,-3.125 m 6.875,6.875 c -2.5003,1.6e-4 -3.7503,1.25 -3.75,3.75 -3.1e-4,2.0834 1.0406,2.7084 3.125,1.875 2.083,1.6e-4 3.1247,-1.0422 3.125,-3.125 -3.1e-4,-1.6666 -0.83438,-2.4998 -2.5,-2.5 m -30,-66.875 c 2.9164,-0.41719 7.708,-1.25 14.375,-2.5 6.6662,-1.25 11.666,-1.8748 15,-1.875 5.833,1.6e-4 8.7497,1.8752 8.75,5.625 l -2.5,5 -0.625,1.25 c -3.1e-4,2.0836 1.0406,3.1252 3.125,3.125 4.9997,1.6e-4 7.4997,-2.4998 7.5,-7.5 -3.1e-4,-8.7498 -5.6253,-13.125 -16.875,-13.125 -7.5003,1.6e-4 -17.084,3.3336 -28.75,10 m 100,43.75 c -1.667,0.41719 -2.5005,1.4578 -2.5,3.125 -4.7e-4,1.6669 1.0406,2.5002 3.125,2.5 2.083,1.6e-4 3.1245,-0.83281 3.125,-2.5 -4.7e-4,-2.0831 -1.25,-3.1248 -3.75,-3.125 m -10,8.125 c -1.667,1.6e-4 -2.5005,1.0422 -2.5,3.125 -4.7e-4,1.6669 1.0406,2.5002 3.125,2.5 2.4995,1.6e-4 3.7495,-1.0422 3.75,-3.125 -4.7e-4,-1.6666 -1.4594,-2.4998 -4.375,-2.5 M 178.12,230.415 v 8.75 c -0.41719,8.3338 1.4578,15.417 5.625,21.25 4.5833,5.8338 10.208,8.7503 16.875,8.75 10.417,3.1e-4 15.625,-5.6247 15.625,-16.875 -1.6e-4,-9.9997 -4.1669,-15 -12.5,-15 -7.0834,3.1e-4 -10.625,2.292 -10.625,6.875 -1.6e-4,0.83437 0.20781,1.25 0.625,1.25 l 1.875,-0.625 c 3.3333,-1.6662 5.8333,-2.4997 7.5,-2.5 4.5833,3.1e-4 6.8748,2.917 6.875,8.75 -1.6e-4,7.0838 -3.5417,10.625 -10.625,10.625 -10.833,3.1e-4 -17.083,-10.208 -18.75,-30.625 l -2.5,-0.625 m 139.38,148.75 3.125,1.25 c 5.8331,-7.0831 11.25,-13.333 16.25,-18.75 5.4164,-5.4164 10.416,-9.7914 15,-13.125 5.8331,-4.5831 10.625,-8.3331 14.375,-11.25 3.7497,-2.9164 6.458,-4.9997 8.125,-6.25 6.6664,-5.4164 9.9997,-11.666 10,-18.75 -3.1e-4,-11.25 -6.2503,-16.875 -18.75,-16.875 -8.7503,3.1e-4 -13.125,3.9586 -13.125,11.875 -3.1e-4,3.1e-4 0.41562,2.0836 1.25,6.25 5.4164,-7.9164 9.7914,-11.875 13.125,-11.875 7.083,3.1e-4 10.625,4.3753 10.625,13.125 -3.1e-4,6.667 -3.3336,12.709 -10,18.125 l -20.625,15.625 c -4.5836,3.7503 -9.3753,8.1253 -14.375,13.125 -5.0003,5.0003 -10,10.834 -15,17.5 m 1.25,-73.125 c 12.5,-1.6664 18.75,-4.3747 18.75,-8.125 -0.83281,-0.83281 -2.0836,-1.25 -3.75,-1.25 -5.8336,3.1e-4 -10.834,3.1253 -15,9.375 m 23.125,-19.375 c -3.7503,3.1e-4 -5.6253,1.667 -5.625,5 0.83281,0.83281 2.0831,1.25 3.75,1.25 2.9164,3.1e-4 4.3747,-1.0406 4.375,-3.125 -3.1e-4,-1.6664 -0.83281,-2.708 -2.5,-3.125 m 5.625,6.875 c -4.1669,3.1e-4 -6.2503,1.4578 -6.25,4.375 -3.1e-4,2.0836 1.6664,3.1253 5,3.125 h 1.25 c 2.4997,-0.41563 3.7497,-1.8747 3.75,-4.375 -3.1e-4,-2.083 -1.25,-3.1247 -3.75,-3.125 m -9.375,10 c -2.0836,3.1e-4 -3.1253,0.83437 -3.125,2.5 -3.1e-4,1.25 1.0406,1.8753 3.125,1.875 2.4997,3.1e-4 3.7497,-0.83281 3.75,-2.5 -3.1e-4,-1.25 -1.25,-1.8747 -3.75,-1.875 m -44.375,-3.125 c -10.834,8.7503 -23.125,13.125 -36.875,13.125 l -1.25,5.625 c 1.25,0.41719 3.1248,0.625 5.625,0.625 h 5.625 c 12.5,3.1e-4 21.458,-6.458 26.875,-19.375 M 255,322.29 l -0.625,2.5 h 10 c 2.9164,0.41719 6.2498,0.41719 10,0 4.1664,-0.83281 8.9581,-1.6664 14.375,-2.5 10.416,-2.4997 18.541,-3.7497 24.375,-3.75 12.916,3.1e-4 19.375,4.3753 19.375,13.125 -3.1e-4,2.5003 -1.4578,5.2086 -4.375,8.125 -2.9169,2.5003 -5.8336,3.7503 -8.75,3.75 -1.25,3.1e-4 -2.7086,-0.41719 -4.375,-1.25 -1.25,-0.83281 -1.8752,-1.25 -1.875,-1.25 -0.41719,3.1e-4 -0.625,0.41719 -0.625,1.25 -1.6e-4,6.2503 5.4164,9.3753 16.25,9.375 10.833,3.1e-4 15.833,-5.4164 15,-16.25 l -0.625,-6.25 6.25,-1.25 c -2.5003,-12.083 -9.7919,-18.125 -21.875,-18.125 -5.4169,3.1e-4 -15.625,2.292 -30.625,6.875 -13.334,4.5836 -23.959,6.4586 -31.875,5.625 h -10 m -56.25,176.25 c -3.3334,0.41719 -6.4584,1.0422 -9.375,1.875 -2.5002,0.83281 -4.7917,1.6667 -6.875,2.5 1.25,0.41719 3.3333,0.625 6.25,0.625 2.0833,1.6e-4 5.4166,-1.6666 10,-5 m -19.375,-5 c -2.0834,1.6e-4 -3.1252,0.83281 -3.125,2.5 -1.6e-4,2.0834 1.25,3.1252 3.75,3.125 2.0833,1.6e-4 3.1248,-1.0422 3.125,-3.125 -1.6e-4,-1.6666 -1.25,-2.4998 -3.75,-2.5 m -6.25,7.5 c -1.25,1.6e-4 -1.8752,0.83281 -1.875,2.5 -1.6e-4,1.6667 0.625,2.5002 1.875,2.5 2.4998,1.6e-4 3.7498,-0.83281 3.75,-2.5 -1.6e-4,-1.6666 -1.25,-2.4998 -3.75,-2.5 m 8.125,6.875 c -2.5002,1.6e-4 -3.7502,1.0422 -3.75,3.125 -1.6e-4,2.0834 1.0422,3.1252 3.125,3.125 2.4998,1.6e-4 3.7498,-1.25 3.75,-3.75 -1.6e-4,-1.6666 -1.0422,-2.4998 -3.125,-2.5 m 50,-25 -8.75,1.875 -16.875,5.625 c -3.3334,0.83281 -5.6252,1.25 -6.875,1.25 -6.2502,1.6e-4 -11.875,-2.2916 -16.875,-6.875 -4.5834,-4.5831 -6.8752,-9.9998 -6.875,-16.25 -1.6e-4,-12.083 5.6248,-18.125 16.875,-18.125 9.5833,1.6e-4 14.375,4.1669 14.375,12.5 -1.6e-4,6.2502 -3.5417,9.3752 -10.625,9.375 l -7.5,-3.75 -0.625,3.75 c -0.83281,2.5002 1.25,3.9584 6.25,4.375 3.3333,0.83281 5.2083,2.5002 5.625,5 8.7498,-5.4166 13.125,-11.25 13.125,-17.5 -1.6e-4,-12.917 -6.8752,-19.375 -20.625,-19.375 -5.8334,1.6e-4 -10.833,2.2919 -15,6.875 -4.1667,4.1669 -6.2502,9.5834 -6.25,16.25 -1.6e-4,7.5002 2.7083,13.958 8.125,19.375 5.4166,5.0002 12.083,7.5002 20,7.5 1.6666,1.6e-4 8.9583,-2.2916 21.875,-6.875 0.83281,-0.41719 2.0831,-0.83281 3.75,-1.25 2.0831,-0.83281 4.7916,-1.6666 8.125,-2.5 l -1.25,-1.25 m 36.25,-137.5 c -3.7502,4.5836 -5.6252,7.9169 -5.625,10 0.41562,0.83437 0.83281,2.0836 1.25,3.75 0.41719,1.25 1.0406,3.1253 1.875,5.625 l 0.625,1.875 c -1.6e-4,0.41719 -0.20938,0.625 -0.625,0.625 -2.0836,3.1e-4 -3.9584,-3.1247 -5.625,-9.375 l -0.625,5 c -1.6e-4,2.5003 0.625,5.2086 1.875,8.125 1.6664,2.5003 3.3331,4.7919 5,6.875 2.0831,2.0836 3.7498,4.1669 5,6.25 1.6664,1.6669 2.4998,3.1252 2.5,4.375 -1.6e-4,3.7502 -2.2919,5.6252 -6.875,5.625 -3.7502,1.6e-4 -9.3752,-6.0414 -16.875,-18.125 -7.0834,-12.083 -21.667,-18.125 -43.75,-18.125 -23.333,3.1e-4 -35,7.9169 -35,23.75 -1.6e-4,9.1669 2.7083,14.584 8.125,16.25 l 11.875,4.375 c 2.0833,0.83437 3.1248,2.5002 3.125,5 -1.6e-4,4.1669 -2.2917,5.8336 -6.875,5 h -5.625 c -6.2502,-0.41563 -9.3752,2.0836 -9.375,7.5 -1.6e-4,5.4169 2.2916,8.1252 6.875,8.125 0.83281,1.6e-4 1.25,-0.41563 1.25,-1.25 -1.6e-4,-0.83281 -0.20781,-1.4578 -0.625,-1.875 l -3.75,-3.75 c -1.6e-4,-4.5831 1.8748,-6.8748 5.625,-6.875 0.41719,0.41719 1.25,0.625 2.5,0.625 1.25,1.6e-4 2.2916,0.20937 3.125,0.625 l 2.5,0.625 c 5.8333,1.6e-4 8.7498,-2.2914 8.75,-6.875 -1.6e-4,-4.1664 -1.4578,-6.8748 -4.375,-8.125 l -13.125,-5 c -5.0002,-1.6664 -7.5002,-6.4581 -7.5,-14.375 -1.6e-4,-5.8331 3.3333,-10.625 10,-14.375 6.6666,-4.1664 14.792,-6.2497 24.375,-6.25 19.167,3.1e-4 32.5,6.2503 40,18.75 l 9.375,16.875 c 2.9166,5.4169 7.4998,8.1252 13.75,8.125 10.416,1.6e-4 15.625,-6.4581 15.625,-19.375 -1.6e-4,-5.8331 -4.5836,-13.333 -13.75,-22.5 -4.1669,-4.1664 -6.2502,-7.7081 -6.25,-10.625 -1.6e-4,-0.83281 -1.6e-4,-1.6664 0,-2.5 0.41719,-1.25 0.83281,-2.7081 1.25,-4.375 m -81.25,75 c -2.0834,1.6e-4 -3.1252,0.83281 -3.125,2.5 -1.6e-4,1.6669 0.83281,2.5002 2.5,2.5 2.0833,1.6e-4 3.1248,-0.83281 3.125,-2.5 -1.6e-4,-1.6664 -0.83281,-2.4998 -2.5,-2.5 m -0.625,8.75 c -2.5002,1.6e-4 -3.7502,1.0422 -3.75,3.125 -1.6e-4,2.0836 1.0422,3.1252 3.125,3.125 2.4998,1.6e-4 3.7498,-1.0406 3.75,-3.125 -1.6e-4,-2.0831 -1.0422,-3.1248 -3.125,-3.125 m -12.5,1.25 c -2.0834,1.6e-4 -3.1252,1.0422 -3.125,3.125 -1.6e-4,1.6669 1.25,2.5002 3.75,2.5 2.0833,1.6e-4 3.1248,-0.83281 3.125,-2.5 -1.6e-4,-2.0831 -1.25,-3.1248 -3.75,-3.125 m 0.625,-154.38 c 0.41719,2.5003 0.625,4.3753 0.625,5.625 0.41719,1.25 0.625,1.8753 0.625,1.875 0.41719,1.25 1.4578,3.542 3.125,6.875 1.6666,2.917 3.9583,6.8753 6.875,11.875 6.2498,9.5836 9.3748,17.917 9.375,25 -1.6e-4,11.667 -4.1667,17.5 -12.5,17.5 -3.3334,3.1e-4 -5.0002,-2.9164 -5,-8.75 v -2.5 l 3.125,-11.25 0.625,-1.25 c -1.6e-4,-2.083 -1.4578,-4.3747 -4.375,-6.875 l -3.125,1.25 c 2.0833,2.0836 3.1248,3.9586 3.125,5.625 -1.6e-4,3.1e-4 -1.0422,3.1253 -3.125,9.375 -1.25,2.5003 -1.8752,5.0003 -1.875,7.5 -1.6e-4,9.1669 3.9583,13.75 11.875,13.75 3.7498,3.1e-4 7.0833,-2.2914 10,-6.875 3.3333,-4.9997 4.9998,-10.416 5,-16.25 -1.6e-4,-6.2497 -1.4578,-12.083 -4.375,-17.5 L 180.625,289.16 173.75,276.035 m 8.125,-85 c -8.7502,22.084 -13.125,40 -13.125,53.75 -1.6e-4,21.667 11.667,41.042 35,58.125 l 1.875,-5.625 c -21.25,-16.666 -31.875,-35.416 -31.875,-56.25 -1.6e-4,-11.666 3.3333,-26.041 10,-43.125 l -1.875,-6.875 m -11.25,-12.5 c 3.7498,2.5005 6.6666,3.7505 8.75,3.75 4.5833,4.7e-4 6.8748,-1.8745 6.875,-5.625 -1.6e-4,-0.83281 -0.625,-1.25 -1.875,-1.25 -1.6667,4.7e-4 -4.1667,0.41719 -7.5,1.25 -2.9167,0.83437 -5.0002,1.4594 -6.25,1.875 m 403.75,416.88 -3.125,-4.375 5.625,-8.125 c 0.41562,-0.41719 0.625,-1.25 0.625,-2.5 -4.7e-4,-0.83281 -0.41719,-1.25 -1.25,-1.25 h -0.625 c -2.0838,0.83281 -3.7505,1.875 -5,3.125 -4.5838,5.8334 -6.8755,8.9583 -6.875,9.375 -4.7e-4,3.3333 1.8745,5 5.625,5 -4.7e-4,0 1.6662,-0.41719 5,-1.25 m -16.25,-10 c -4.1672,0.83281 -6.8755,1.25 -8.125,1.25 -2.0838,0 -4.1672,-1.0422 -6.25,-3.125 -21.25,5 -37.917,7.5 -50,7.5 -4.167,0 -9.3755,-0.20781 -15.625,-0.625 -5.8338,-0.83281 -12.709,-1.6666 -20.625,-2.5 20,6.25 35.833,9.375 47.5,9.375 14.583,0 32.291,-3.9583 53.125,-11.875 m -13.75,-6.875 c -16.667,3.3334 -26.042,5 -28.125,5 -12.5,0 -18.75,-2.9166 -18.75,-8.75 -4.7e-4,-3.75 1.6662,-6.25 5,-7.5 h 1.25 c 4.1662,0 6.2495,1.4578 6.25,4.375 l -0.625,1.25 -0.625,1.875 c -4.7e-4,0.83281 0.20781,1.25 0.625,1.25 5.4162,0 8.1245,-2.0833 8.125,-6.25 -4.7e-4,-4.1666 -3.3338,-6.25 -10,-6.25 -11.25,0 -17.5,2.9167 -18.75,8.75 -0.41719,0.83281 -0.83438,1.6667 -1.25,2.5 -4.7e-4,0.41719 -4.7e-4,0.625 0,0.625 -1.25,0 -2.7088,-0.83281 -4.375,-2.5 -2.0838,1.25 -3.1255,2.2917 -3.125,3.125 -4.7e-4,8.3334 7.4995,12.5 22.5,12.5 2.9162,0 16.666,-2.5 41.25,-7.5 l 0.625,-2.5 m -61.875,10 -1.875,-1.875 -8.75,-2.5 c -4.5838,-0.83281 -6.8753,-2.9166 -6.875,-6.25 -3.1e-4,0 -3.1e-4,-0.20781 0,-0.625 0.41562,-0.83281 0.83281,-1.875 1.25,-3.125 -0.41719,-0.41719 -1.667,-0.625 -3.75,-0.625 -4.167,0 -6.2503,1.4578 -6.25,4.375 -3.1e-4,6.6667 8.7497,10.208 26.25,10.625 m -50.625,-12.5 H 420 c 7.083,5.4167 14.791,9.7917 23.125,13.125 8.333,2.9167 17.083,5.2083 26.25,6.875 -7.0838,-3.3333 -13.75,-6.6666 -20,-10 -6.2503,-3.3333 -12.084,-6.6666 -17.5,-10 m -16.25,0 -13.75,-1.25 c 12.5,8.3334 27.083,14.167 43.75,17.5 -5.417,-2.0833 -10.625,-4.375 -15.625,-6.875 -5.0003,-2.9166 -9.792,-6.0416 -14.375,-9.375 m 28.125,19.375 c -14.584,-3.75 -31.667,-9.375 -51.25,-16.875 -15,-6.6666 -26.459,-10 -34.375,-10 -12.5,0 -18.75,4.1667 -18.75,12.5 -3.1e-4,7.5 5.2081,11.875 15.625,13.125 -3.3336,-4.5833 -5.0003,-7.2916 -5,-8.125 -3.1e-4,-6.6666 4.7914,-10 14.375,-10 5.833,0 12.5,1.875 20,5.625 15.833,7.9167 35.625,12.5 59.375,13.75 m -130,0 c 2.9164,1.25 5.4164,1.875 7.5,1.875 2.4997,0 5.2081,-0.83281 8.125,-2.5 -3.3336,-1.25 -5.8336,-1.875 -7.5,-1.875 -2.5003,0 -5.2086,0.83281 -8.125,2.5 M 265.625,581.04 h 2.5 c 8.7498,0 16.875,2.5 24.375,7.5 5.4164,3.75 9.9998,5.2083 13.75,4.375 l 8.75,-2.5 12.5,-2.5 c 1.6664,-0.41719 1.0406,-3.125 -1.875,-8.125 -2.9169,-5.4166 -4.3753,-8.9583 -4.375,-10.625 -3.1e-4,-0.83281 1.0406,-2.9166 3.125,-6.25 -5.4169,0 -9.1669,0.83281 -11.25,2.5 -1.6669,1.25 -3.1252,4.5834 -4.375,10 -0.83438,5 -1.8752,7.5 -3.125,7.5 -1.25,0 -4.3752,-1.25 -9.375,-3.75 -5.0002,-2.9166 -9.1669,-4.375 -12.5,-4.375 -4.1669,0 -10.209,2.0834 -18.125,6.25 M 173.75,532.29 c -2.5002,5.8334 -3.7502,10.833 -3.75,15 -1.6e-4,9.5834 1.6666,17.708 5,24.375 3.3333,6.6667 4.9998,11.042 5,13.125 -1.6e-4,3.75 -1.8752,6.4583 -5.625,8.125 2.4998,1.25 4.3748,1.875 5.625,1.875 4.9998,0 7.4998,-2.5 7.5,-7.5 -1.6e-4,-2.9166 -1.25,-6.0416 -3.75,-9.375 -5.8334,-8.75 -8.9584,-13.75 -9.375,-15 -1.6667,-2.9166 -2.5002,-7.2916 -2.5,-13.125 -1.6e-4,-4.1666 0.625,-10 1.875,-17.5 m 13.75,32.5 c -4.1667,-8.3333 -6.2502,-15.625 -6.25,-21.875 -1.6e-4,-12.5 6.2498,-24.167 18.75,-35 12.917,-10.417 27.292,-15.625 43.125,-15.625 11.25,1.6e-4 23.333,3.9584 36.25,11.875 L 280,499.79 c -14.167,-7.9166 -26.875,-11.875 -38.125,-11.875 -14.167,1.6e-4 -27.917,4.7917 -41.25,14.375 -16.25,11.25 -24.375,23.333 -24.375,36.25 -1.6e-4,7.0834 3.7498,15.833 11.25,26.25 m 55.625,-65.625 c -11.25,0.83281 -16.875,4.3752 -16.875,10.625 -1.6e-4,5.0002 1.6666,7.5002 5,7.5 1.6666,1.6e-4 3.7498,-1.25 6.25,-3.75 -4.5834,-0.83281 -6.8752,-2.2916 -6.875,-4.375 -1.6e-4,-4.5833 4.1666,-7.9166 12.5,-10 M 208.75,529.79 c 0.41719,0.83281 0.625,2.5002 0.625,5 -1.6e-4,5.4167 -1.6667,8.125 -5,8.125 -5.8334,0 -8.7502,-3.9583 -8.75,-11.875 -1.6e-4,-16.25 15.625,-27.917 46.875,-35 -33.75,2.0834 -50.625,14.583 -50.625,37.5 -1.6e-4,10.833 3.9583,16.25 11.875,16.25 5.8331,0 8.7498,-3.3333 8.75,-10 -1.6e-4,-2.0833 -1.25,-5.4166 -3.75,-10 m 268.75,-187.5 6.25,6.25 3.75,4.375 c 1.25,1.25 2.2912,1.8753 3.125,1.875 1.25,3.1e-4 1.8745,-1.0406 1.875,-3.125 -4.7e-4,-3.7497 -5.0005,-6.8747 -15,-9.375 m 23.125,6.25 c -2.5005,3.1e-4 -3.7505,1.0422 -3.75,3.125 -4.7e-4,2.9169 1.25,4.3753 3.75,4.375 2.083,3.1e-4 3.1245,-1.0422 3.125,-3.125 -4.7e-4,-2.9164 -1.0422,-4.3747 -3.125,-4.375 m -6.25,8.75 c -2.5005,3.1e-4 -3.7505,1.25 -3.75,3.75 -4.7e-4,2.0836 1.25,3.1253 3.75,3.125 2.083,3.1e-4 3.1245,-1.0406 3.125,-3.125 -4.7e-4,-2.4997 -1.0422,-3.7497 -3.125,-3.75 m -10.625,-2.5 c -2.0838,3.1e-4 -3.1255,1.0422 -3.125,3.125 -4.7e-4,2.5003 1.25,3.7503 3.75,3.75 2.083,3.1e-4 3.1245,-1.0406 3.125,-3.125 -4.7e-4,-2.4997 -1.25,-3.7497 -3.75,-3.75 m 31.875,-10 c 5.833,5.8336 8.7495,10.625 8.75,14.375 -4.7e-4,2.0836 -1.8755,3.7503 -5.625,5 4.1662,0.83438 6.6662,1.25 7.5,1.25 3.3328,3.1e-4 4.9995,-2.2914 5,-6.875 -4.7e-4,-6.2497 -5.2088,-10.833 -15.625,-13.75 m -101.88,56.875 c 7.9162,-1.25 15,-1.8748 21.25,-1.875 20.833,1.6e-4 31.25,9.7919 31.25,29.375 -3.1e-4,4.1669 -1.0422,7.9169 -3.125,11.25 -2.0838,3.3334 -3.1253,5.0002 -3.125,5 l 1.25,0.625 2.5,-0.625 2.5,0.625 0.625,1.875 v 8.75 l 2.5,10 -1.25,9.375 c 21.25,1.6e-4 33.541,-5.4166 36.875,-16.25 0.41562,-2.4998 1.0406,-3.7498 1.875,-3.75 1.6662,1.6e-4 3.333,0.83281 5,2.5 1.25,-6.6666 1.8745,-11.667 1.875,-15 -4.7e-4,-5.4166 -1.25,-9.7914 -3.75,-13.125 L 498.12,416.04 c -0.83438,-2.4998 -1.25,-3.7498 -1.25,-3.75 -4.7e-4,-1.25 0.41562,-1.8748 1.25,-1.875 3.333,1.6e-4 6.6662,1.8752 10,5.625 8.7495,10.834 13.125,22.292 13.125,34.375 -4.7e-4,7.9169 -4.167,19.167 -12.5,33.75 15.416,-4.9998 23.125,-15.625 23.125,-31.875 -4.7e-4,-27.916 -20.834,-47.708 -62.5,-59.375 14.166,13.75 21.25,26.042 21.25,36.875 -4.7e-4,2.9169 -0.625,4.3752 -1.875,4.375 -1.25,1.6e-4 -1.8755,-2.9164 -1.875,-8.75 -4.7e-4,-4.9998 -6.667,-15.416 -20,-31.25 -2.917,-1.6664 -6.4588,-2.4998 -10.625,-2.5 h -0.625 c 8.333,5.8336 12.5,9.3752 12.5,10.625 -3.1e-4,0.41719 -0.20938,0.83438 -0.625,1.25 -0.41719,-0.41562 -0.83438,-0.625 -1.25,-0.625 l -6.25,-5.625 -7.5,-4.375 c -2.0838,-1.25 -3.9588,-1.8748 -5.625,-1.875 -1.667,1.6e-4 -2.5003,0.41719 -2.5,1.25 -3.1e-4,1.6669 2.083,2.9169 6.25,3.75 4.1662,0.41719 6.2497,1.6669 6.25,3.75 l -0.625,0.625 -1.25,-0.625 -22.5,-6.875 c -2.917,1.6e-4 -9.167,2.9169 -18.75,8.75 m 116.88,68.75 c -7.9172,11.667 -16.875,17.5 -26.875,17.5 -4.167,1.6e-4 -9.5838,-1.0422 -16.25,-3.125 -6.667,-2.0831 -11.667,-3.1248 -15,-3.125 -2.5005,1.6e-4 -6.2503,1.25 -11.25,3.75 1.25,2.0834 1.8747,3.5417 1.875,4.375 -3.1e-4,2.5002 -1.25,3.3334 -3.75,2.5 H 455 c -7.917,-0.41719 -15.209,6.4584 -21.875,20.625 l 6.875,-1.25 11.875,3.75 8.75,1.875 -1.875,5.625 c 5.4162,0.83281 9.9997,1.6667 13.75,2.5 3.7495,0.41719 7.083,0.625 10,0.625 6.6662,1.6e-4 16.041,-4.1666 28.125,-12.5 -1.667,1.6667 -4.167,2.5002 -7.5,2.5 -1.25,1.6e-4 -2.292,-0.41719 -3.125,-1.25 0.41562,-0.41719 0.83281,-0.625 1.25,-0.625 l 10,-3.75 11.25,-12.5 c -9.167,7.9167 -19.375,11.875 -30.625,11.875 -6.2505,1.6e-4 -9.3755,-1.0422 -9.375,-3.125 0.83281,-0.83281 1.8745,-1.25 3.125,-1.25 -0.83438,1.6e-4 -0.83438,0.20781 0,0.625 1.25,1.6e-4 3.5412,0.20781 6.875,0.625 h 3.75 c 5.833,1.6e-4 11.666,-1.6666 17.5,-5 7.9162,-5.4166 12.5,-9.3748 13.75,-11.875 -4.7e-4,1.6e-4 -4.7e-4,-0.41719 0,-1.25 0.41562,-0.83281 0.83281,-2.2916 1.25,-4.375 -2.0838,1.6669 -4.5838,3.3334 -7.5,5 -2.5005,1.25 -5.417,2.9167 -8.75,5 -0.83438,1.6e-4 -1.25,-0.20781 -1.25,-0.625 -4.7e-4,-0.41719 0.41562,-1.0422 1.25,-1.875 l 13.125,-7.5 5.625,-6.875 -0.625,-6.875 m -163.75,63.75 5.625,0.625 c -6.667,-21.667 -10,-40.208 -10,-55.625 -3.1e-4,-15 4.3747,-31.875 13.125,-50.625 0.83281,-1.6664 3.1247,-6.2498 6.875,-13.75 4.1664,-7.9164 10.208,-18.75 18.125,-32.5 L 412.5,360.415 c -1.25,-0.41719 -2.292,-0.625 -3.125,-0.625 l -0.625,-0.625 c -1.667,3.1e-4 -2.7086,0.20937 -3.125,0.625 l -11.875,25.625 -25,48.125 c -7.5003,14.583 -11.25,31.042 -11.25,49.375 -3.1e-4,12.5 3.1247,29.583 9.375,51.25 m 111.88,-154.38 v 1.875 c -4.7e-4,3.7502 1.8745,5.8336 5.625,6.25 0.83281,1.6e-4 3.1245,0.41719 6.875,1.25 3.7495,0.41719 9.1662,1.0422 16.25,1.875 9.9995,1.25 19.791,5.6252 29.375,13.125 -7.9172,-8.3331 -14.167,-12.916 -18.75,-13.75 l -30.625,-6.25 -8.75,-4.375 m -156.25,33.125 c 17.916,-16.666 31.875,-25 41.875,-25 4.9997,1.6e-4 7.9164,1.25 8.75,3.75 1.25,2.0836 2.2914,4.3752 3.125,6.875 0.83281,0.83437 1.6664,1.25 2.5,1.25 l 0.625,-0.625 c 2.9164,-0.41719 4.3747,-2.9164 4.375,-7.5 v -1.25 c -2.0836,-7.4998 -6.8753,-11.25 -14.375,-11.25 -12.5,3.1e-4 -28.125,11.25 -46.875,33.75 m 44.375,14.375 c 0.41719,-1.25 0.625,-3.5414 0.625,-6.875 -3.1e-4,-7.4998 -2.5003,-11.25 -7.5,-11.25 -5.0003,1.6e-4 -7.5003,2.5002 -7.5,7.5 -3.1e-4,2.5002 1.4578,4.5836 4.375,6.25 0.41719,-4.1664 1.4578,-6.2498 3.125,-6.25 4.5831,1.6e-4 6.8747,3.1252 6.875,9.375 v 1.25 m 62.5,-118.12 c 2.4997,-3.7497 3.7497,-12.291 3.75,-25.625 -3.1e-4,-5.833 -0.625,-14.375 -1.875,-25.625 -0.41719,-5.833 -0.83438,-10.833 -1.25,-15 -3.1e-4,-4.583 -3.1e-4,-8.333 0,-11.25 -3.1e-4,-12.5 2.083,-18.75 6.25,-18.75 1.6662,4.7e-4 3.333,0.83437 5,2.5 2.083,-3.333 3.1247,-5.4162 3.125,-6.25 -3.1e-4,-4.1662 -2.5003,-6.2495 -7.5,-6.25 -8.7503,4.7e-4 -12.917,6.4588 -12.5,19.375 v 3.125 l 6.25,56.25 -1.25,27.5 m 9.375,-71.25 c 1.6662,1.25 2.9162,1.8753 3.75,1.875 -3.1e-4,-0.41563 0.83281,-0.625 2.5,-0.625 l 1.875,-0.625 c 0.83281,3.1e-4 1.25,0.625 1.25,1.875 v 1.875 5 6.875 c 0.41562,0.41719 -3.1e-4,2.917 -1.25,7.5 4.9997,-1.25 8.7497,-2.708 11.25,-4.375 2.4997,-2.083 4.1662,-3.958 5,-5.625 1.25,-1.6662 1.8747,-3.1247 1.875,-4.375 0.41562,-1.25 0.83281,-1.8747 1.25,-1.875 l 3.125,3.125 2.5,-8.125 -0.625,-9.375 c -4.7e-4,-1.25 0.625,-1.8747 1.875,-1.875 1.25,3.1e-4 1.8745,2.0838 1.875,6.25 v 3.75 c -1.25,4.5838 -1.8755,8.1253 -1.875,10.625 -4.7e-4,3.3338 1.25,7.0838 3.75,11.25 2.4995,-2.9162 4.583,-4.3747 6.25,-4.375 0.83281,3.1e-4 1.6662,0.625 2.5,1.875 l 2.5,6.25 9.375,7.5 2.5,5.625 c 4.583,-8.333 6.8745,-13.958 6.875,-16.875 -4.7e-4,-1.6662 -0.41719,-3.7497 -1.25,-6.25 -0.41719,-2.4997 -0.625,-4.3747 -0.625,-5.625 l 0.625,-0.625 c 0.41562,3.1e-4 1.0406,0.625 1.875,1.875 1.25,0.83438 2.083,1.25 2.5,1.25 1.6662,3.1e-4 2.4995,-2.2912 2.5,-6.875 -4.7e-4,-3.333 -0.83438,-5.833 -2.5,-7.5 L 499.38,224.165 c -0.83438,-0.83281 -1.25,-1.4578 -1.25,-1.875 0.83281,-0.83281 1.4578,-1.25 1.875,-1.25 0.83281,4.7e-4 1.8745,0.83438 3.125,2.5 2.083,3.7503 7.9162,7.917 17.5,12.5 v -0.625 c -4.7e-4,-1.25 0.625,-1.8747 1.875,-1.875 h 5 l 6.875,-6.25 c -4.7e-4,3.1e-4 -1.0422,-0.41562 -3.125,-1.25 -1.6672,-1.25 -3.5422,-2.2912 -5.625,-3.125 -1.6672,-0.83281 -3.3338,-1.6662 -5,-2.5 -1.667,-1.25 -2.5005,-1.8745 -2.5,-1.875 v -1.25 l 0.625,-2.5 -10.625,-2.5 -5,-3.125 -9.375,-2.5 c 2.9162,2.5005 4.3745,4.5838 4.375,6.25 -0.41719,0.41719 -0.83438,0.625 -1.25,0.625 -1.25,4.7e-4 -2.5005,-0.625 -3.75,-1.875 l -6.875,-6.875 c -0.83438,-1.25 -2.0838,-1.6662 -3.75,-1.25 h -2.5 c -0.41719,0.41719 -0.625,1.0422 -0.625,1.875 -4.7e-4,7.5005 2.083,14.584 6.25,21.25 2.083,3.3338 3.1245,5.6253 3.125,6.875 -4.7e-4,0.41719 -0.41719,1.0422 -1.25,1.875 -1.667,3.1e-4 -3.9588,-3.7497 -6.875,-11.25 l -4.375,-12.5 v -9.375 c -0.41719,-0.41563 -1.25,-0.625 -2.5,-0.625 -0.83438,4.7e-4 -1.4594,-0.20781 -1.875,-0.625 h -2.5 c -2.5003,4.7e-4 -3.542,2.0838 -3.125,6.25 v 6.25 c 0.41562,2.917 -0.20938,4.3755 -1.875,4.375 -1.667,4.7e-4 -2.5003,-1.6662 -2.5,-5 -3.1e-4,0.83437 0.20781,0.20938 0.625,-1.875 0.41562,-2.4995 1.0406,-6.458 1.875,-11.875 -3.3338,-0.83281 -5.0003,-1.25 -5,-1.25 -3.7503,4.7e-4 -6.8753,5.417 -9.375,16.25 -1.25,5.8338 -5.0003,13.75 -11.25,23.75 m -56.25,300 c 2.9164,0.83281 5.6247,1.4578 8.125,1.875 2.9164,0.41719 6.0414,0.83281 9.375,1.25 l 2.5,-6.25 1.25,-6.25 0.625,-0.625 c -3.1e-4,-0.41719 0.20781,-0.83281 0.625,-1.25 1.25,1.6e-4 1.8747,0.83281 1.875,2.5 -3.1e-4,-0.83281 -1.4578,3.1252 -4.375,11.875 4.1664,1.25 7.4997,1.875 10,1.875 l 6.875,-0.625 c 3.7497,-4.1666 5.833,-8.9583 6.25,-14.375 h -2.5 -3.125 c -0.83438,1.6e-4 -1.25,-0.625 -1.25,-1.875 l 0.625,-6.25 c 0.41562,-4.1666 -3.1253,-9.9998 -10.625,-17.5 l -6.25,8.125 -6.875,6.875 c -0.41719,0.41719 -1.0422,1.6667 -1.875,3.75 -0.41719,2.0834 -0.83438,3.1252 -1.25,3.125 -0.41719,1.6e-4 -1.0422,-0.41719 -1.875,-1.25 l -2.5,-4.375 -3.125,2.5 c -2.0836,2.0834 -3.1253,5.8334 -3.125,11.25 l 0.625,5.625 m -24.375,-26.25 c -1.6669,-20.417 -7.9169,-30.625 -18.75,-30.625 -10.834,1.6e-4 -16.25,4.7919 -16.25,14.375 -3.1e-4,10 4.3747,15 13.125,15 l 1.875,-0.625 4.375,-2.5 -1.25,-0.625 h -3.125 c -5.8336,1.6e-4 -8.7503,-2.9166 -8.75,-8.75 -3.1e-4,-7.4998 3.7497,-11.25 11.25,-11.25 6.2497,1.6e-4 12.083,8.3334 17.5,25 m -180,48.75 c 2.0833,4.5834 3.9583,8.3334 5.625,11.25 2.0833,2.5 3.5416,4.1667 4.375,5 1.6666,1.6667 8.1248,2.5 19.375,2.5 h 4.375 l -1.25,1.875 c -2.0834,0.41719 -4.1667,0.83281 -6.25,1.25 -2.0834,0.41719 -4.5834,0.83281 -7.5,1.25 5.4166,2.5 9.9998,3.75 13.75,3.75 2.9166,0 6.6666,-1.25 11.25,-3.75 4.5831,-2.5 7.4998,-5 8.75,-7.5 l 3.75,-6.25 c 0.41719,-1.25 1.25,-1.875 2.5,-1.875 0.83281,0 1.25,0.625 1.25,1.875 -1.6e-4,5.8334 -7.5002,12.5 -22.5,20 l 9.375,-0.625 5,-3.75 h 1.25 c 0.41719,0 0.625,0.20781 0.625,0.625 -1.6e-4,2.0834 -0.83281,3.3334 -2.5,3.75 11.25,-1.6666 20.833,-6.4583 28.75,-14.375 5.4164,-4.5833 10.416,-7.2916 15,-8.125 -1.25,-1.6666 -2.7086,-3.75 -4.375,-6.25 -2.0836,-1.25 -3.9586,-1.875 -5.625,-1.875 l -5,0.625 c -1.6669,0 -2.5002,-0.41719 -2.5,-1.25 -1.6e-4,-0.41719 0.41719,-1.6666 1.25,-3.75 0.83281,-2.5 1.25,-5 1.25,-7.5 -1.6e-4,-4.5833 -1.8752,-9.5833 -5.625,-15 -3.3334,-5.8333 -5.0002,-10.208 -5,-13.125 l -0.625,-6.25 c -2.9169,1.6e-4 -6.8752,3.7502 -11.875,11.25 -1.6e-4,1.6e-4 -0.625,1.25 -1.875,3.75 -0.83281,2.5002 -1.8752,4.7917 -3.125,6.875 -0.83281,1.6667 -1.25,2.7084 -1.25,3.125 -0.41719,1.6e-4 -1.4578,-0.20781 -3.125,-0.625 -1.6669,-0.41719 -2.9169,-0.625 -3.75,-0.625 -1.6669,1.6e-4 -3.3334,1.25 -5,3.75 2.9166,5.4167 4.3748,9.7917 4.375,13.125 -1.6e-4,12.083 -6.8752,18.125 -20.625,18.125 -5.8334,0 -13.333,-3.75 -22.5,-11.25 m 440.62,-143.12 c -2.5005,0.83438 -3.7505,1.6669 -3.75,2.5 v 1.875 l 2.5,7.5 c 2.4995,10 3.7495,21.042 3.75,33.125 -4.7e-4,7.0834 -0.625,13.125 -1.875,18.125 l -5.625,23.125 c -3.7505,16.25 -8.3339,24.375 -13.75,24.375 h -0.625 l -1.875,-2.5 h -0.625 c -2.5005,1.6e-4 -6.0422,2.2917 -10.625,6.875 -20,22.083 -35.209,33.125 -45.625,33.125 -1.6672,0 -2.7088,-0.20781 -3.125,-0.625 l -8.125,-4.375 c -0.41719,-0.41719 -1.25,-0.625 -2.5,-0.625 -1.25,0 -1.8755,0.83281 -1.875,2.5 -4.7e-4,7.0834 5.4162,10.625 16.25,10.625 3.3328,0 5.4162,-0.20781 6.25,-0.625 h 3.125 c 0.41562,0 0.625,0.20781 0.625,0.625 -4.7e-4,0.83281 -0.20938,2.2917 -0.625,4.375 -0.41719,2.0834 -0.625,3.3334 -0.625,3.75 h 2.5 c 13.75,0.41719 23.75,-5 30,-16.25 4.9995,-9.1666 8.9578,-13.75 11.875,-13.75 2.0828,0 3.1245,1.25 3.125,3.75 -4.7e-4,2.0834 -2.0839,4.5834 -6.25,7.5 -5.8339,3.75 -8.7505,9.1667 -8.75,16.25 -4.7e-4,1.6667 -4.7e-4,3.5417 0,5.625 0.41562,2.0834 0.83281,4.1667 1.25,6.25 0.83281,0 2.4995,-0.625 5,-1.875 2.9161,-1.6666 4.5828,-2.5 5,-2.5 2.0828,0 4.5828,1.4578 7.5,4.375 3.3328,2.9167 6.0411,4.5833 8.125,5 h 2.5 c 9.9995,0.83281 14.999,-3.125 15,-11.875 -6.3e-4,-0.83281 -0.20938,-1.4578 -0.625,-1.875 L 620,569.795 c -0.41719,-0.41719 -0.625,-1.6666 -0.625,-3.75 -4.7e-4,-4.5833 1.6661,-6.875 5,-6.875 -4.7e-4,0 0.20781,0.20781 0.625,0.625 0.83281,0 1.8744,0.20781 3.125,0.625 -0.83438,-5 -2.5005,-7.5 -5,-7.5 l -1.875,0.625 c -3.7505,1.25 -5.6255,3.9584 -5.625,8.125 -4.7e-4,3.3334 1.6661,8.75 5,16.25 1.25,2.0834 1.8745,4.1667 1.875,6.25 -4.7e-4,2.5 -1.0422,3.75 -3.125,3.75 -7.0839,0 -10.625,-5.8333 -10.625,-17.5 -4.7e-4,-3.3333 2.9161,-10.417 8.75,-21.25 1.25,-2.9166 1.8745,-5.2083 1.875,-6.875 -4.7e-4,-1.6666 -1.0422,-3.125 -3.125,-4.375 -1.6672,-1.6666 -2.5005,-2.7083 -2.5,-3.125 l 0.625,-1.875 c 8.7495,-31.25 13.124,-53.958 13.125,-68.125 -6.3e-4,-10.833 -2.9172,-26.667 -8.75,-47.5 M 450,312.915 449.375,314.79 C 476.458,310.207 490,299.999 490,284.165 c -4.7e-4,-13.333 -6.8755,-20 -20.625,-20 -12.5,3.1e-4 -18.75,5.8338 -18.75,17.5 -3.1e-4,7.917 2.9162,11.875 8.75,11.875 -3.1e-4,3.1e-4 1.6662,-1.0422 5,-3.125 -5.0003,-1.6664 -7.5003,-3.958 -7.5,-6.875 -3.1e-4,-6.6662 3.7497,-9.9997 11.25,-10 9.583,3.1e-4 14.375,4.792 14.375,14.375 -4.7e-4,10.417 -10.834,18.75 -32.5,25 m 71.875,-29.375 c -2.917,-2.9164 -4.3755,-5.833 -4.375,-8.75 -4.7e-4,-5.833 3.7495,-8.7497 11.25,-8.75 8.3328,3.1e-4 12.5,4.167 12.5,12.5 -4.7e-4,12.5 -10.417,20.417 -31.25,23.75 l -20,3.125 -5,2.5 c 20.416,-1.25 35.416,-3.1247 45,-5.625 17.5,-5.4164 26.25,-15.833 26.25,-31.25 -4.7e-4,-7.083 -3.9588,-15.833 -11.875,-26.25 -1.25,0.83438 -2.0838,2.917 -2.5,6.25 -0.41719,3.3338 -1.4594,5.0003 -3.125,5 -0.83438,3.1e-4 -2.2922,-0.20781 -4.375,-0.625 -1.6672,-0.41562 -2.9172,-0.625 -3.75,-0.625 -12.5,3.1e-4 -18.75,6.2503 -18.75,18.75 -4.7e-4,7.917 2.4995,11.875 7.5,11.875 0.41562,-0.41562 0.83281,-0.625 1.25,-0.625 0.41562,-0.41719 0.83281,-0.83281 1.25,-1.25 m -77.5,43.125 c 9.1662,-1.6664 16.875,-2.9164 23.125,-3.75 6.6662,-0.83281 12.291,-1.25 16.875,-1.25 4.583,3.1e-4 8.958,0.41719 13.125,1.25 4.583,0.41719 9.1662,1.0422 13.75,1.875 l 47.5,10 16.875,1.25 -0.625,-1.875 -27.5,-4.375 -41.875,-8.75 c -2.5005,-0.41719 -5.2088,-0.625 -8.125,-0.625 -2.5005,-0.41562 -5.2088,-0.625 -8.125,-0.625 -8.3338,3.1e-4 -22.5,1.25 -42.5,3.75 l -2.5,3.125 m -1.25,-5.625 2.5,0.625 25.625,-3.75 51.25,-1.875 c 20.416,-1.25 42.916,-8.958 67.5,-23.125 l -3.125,-3.125 c -12.084,5.417 -22.709,9.792 -31.875,13.125 -8.7505,3.3336 -16.042,5.417 -21.875,6.25 -2.9172,0.41719 -7.9172,0.83281 -15,1.25 -6.667,0.41719 -15.834,1.0422 -27.5,1.875 -15.834,0.83281 -30.834,2.7086 -45,5.625 l -2.5,3.125 m -7.5,12.5 9.375,3.75 c 5.833,-0.41562 11.458,-0.625 16.875,-0.625 5.833,-0.41719 11.666,-0.625 17.5,-0.625 27.5,3.1e-4 58.958,10.834 94.375,32.5 l 6.875,-1.25 c -37.084,-25 -74.167,-37.5 -111.25,-37.5 -8.3338,3.1e-4 -19.584,1.25 -33.75,3.75 m 15,6.25 1.875,1.875 c 12.083,0.83438 18.125,5.2086 18.125,13.125 -4.7e-4,5.0003 -1.8753,7.5003 -5.625,7.5 l -3.125,-0.625 c 2.4997,3.7503 4.3747,5.6253 5.625,5.625 6.6662,3.1e-4 9.9995,-3.7497 10,-11.25 -4.7e-4,-10.416 -8.9588,-15.833 -26.875,-16.25 m 116.25,-86.875 c -1.25,7.0838 -1.8755,12.709 -1.875,16.875 -4.7e-4,5.8338 2.9162,12.917 8.75,21.25 l 2.5,-2.5 c -6.2505,-9.9997 -9.3755,-17.916 -9.375,-23.75 -4.7e-4,-0.83281 -4.7e-4,-2.083 0,-3.75 0.41562,-2.083 0.83281,-4.3747 1.25,-6.875 l -1.25,-1.25 m 31.25,50.625 1.875,1.875 c 3.7495,-1.25 7.2911,-1.8747 10.625,-1.875 9.5828,3.1e-4 14.166,6.8753 13.75,20.625 v 1.25 h 3.125 c -0.41719,-16.666 -6.0422,-25 -16.875,-25 -2.0839,3.1e-4 -6.2505,1.0422 -12.5,3.125 M 587.5,301.665 c -0.83438,0.83438 -1.25,1.4578 -1.25,1.875 -4.7e-4,3.1e-4 0.41562,0.625 1.25,1.875 0.83281,1.25 2.2911,2.917 4.375,5 0.83281,0.83438 1.8745,2.0836 3.125,3.75 1.25,1.25 2.9161,2.917 5,5 l 3.125,-2.5 c -6.2505,-6.6664 -11.459,-11.666 -15.625,-15 m -34.375,13.75 1.875,-0.625 c 11.25,3.1e-4 16.875,2.0836 16.875,6.25 -4.7e-4,3.1e-4 -0.20938,0.41719 -0.625,1.25 -4.7e-4,0.41719 -0.20938,1.25 -0.625,2.5 4.1661,-2.9164 6.2495,-5.208 6.25,-6.875 -4.7e-4,-4.583 -3.5422,-6.8747 -10.625,-6.875 -4.5838,3.1e-4 -8.9588,1.4578 -13.125,4.375 m -6.875,26.25 c 6.6662,3.7503 11.458,5.6253 14.375,5.625 4.9995,3.1e-4 7.4995,-1.6664 7.5,-5 -4.7e-4,-1.6664 -0.83438,-2.4997 -2.5,-2.5 -0.41719,3.1e-4 -1.25,0.625 -2.5,1.875 -0.83438,0.83438 -2.9172,1.25 -6.25,1.25 -1.6672,3.1e-4 -3.3338,3.1e-4 -5,0 -1.6672,-0.41562 -3.5422,-0.83281 -5.625,-1.25 m 43.125,-26.875 c -7.9172,12.917 -11.667,25.625 -11.25,38.125 v 6.875 l 3.125,-0.625 c -4.7e-4,-15.416 3.3328,-29.583 10,-42.5 l -1.875,-1.875 m 25,-2.5 c -7.0839,9.5836 -16.042,16.042 -26.875,19.375 v 2.5 c 11.25,-3.3331 21.041,-9.3747 29.375,-18.125 l -2.5,-3.75 m -2.5,12.5 -2.5,3.125 c 1.6661,2.0836 3.1245,4.3753 4.375,6.875 1.6661,2.5003 3.3328,4.7919 5,6.875 l 0.625,-4.375 c -2.0839,-4.9997 -4.5839,-9.1664 -7.5,-12.5 m 13.125,15 c -4.5839,12.084 -10,18.125 -16.25,18.125 -5.4172,3.1e-4 -8.1255,-2.4997 -8.125,-7.5 -4.7e-4,-4.1664 3.1245,-8.5414 9.375,-13.125 -9.5839,3.7503 -14.375,8.7503 -14.375,15 -4.7e-4,7.0836 3.5411,10.625 10.625,10.625 9.5828,3.1e-4 15.833,-7.7081 18.75,-23.125 m 0,20 -1.25,1.25 c 0.41562,3.7503 0.625,7.2919 0.625,10.625 0.41562,2.9169 0.625,5.4169 0.625,7.5 -4.7e-4,5.4169 -1.6672,12.709 -5,21.875 -4.5839,10 -9.3755,15 -14.375,15 -2.9172,1.6e-4 -7.7089,-1.8748 -14.375,-5.625 6.2495,6.2502 11.041,9.3752 14.375,9.375 4.5828,1.6e-4 9.1661,-2.9164 13.75,-8.75 5.4161,-7.9164 8.1244,-16.25 8.125,-25 -6.3e-4,-3.7497 -0.20938,-7.7081 -0.625,-11.875 -0.41719,-4.5831 -1.0422,-9.3747 -1.875,-14.375 m -24.375,43.125 c 0.83281,1.6669 1.4578,3.1252 1.875,4.375 0.41562,0.83438 0.83281,1.6669 1.25,2.5 h 1.875 l -5,-6.875 m -0.625,-7.5 c 2.9161,4.5836 5.4161,8.9586 7.5,13.125 l 4.375,-3.75 c -3.3339,-7.4998 -6.0422,-11.25 -8.125,-11.25 -0.83438,1.6e-4 -2.0839,0.625 -3.75,1.875 m 11.25,26.875 -2.5,1.25 c 0.41562,3.3336 0.625,6.6669 0.625,10 0.41562,2.9169 0.625,5.8334 0.625,8.75 -4.7e-4,14.583 -3.9589,22.083 -11.875,22.5 H 597.5 c -2.0839,1.6e-4 -3.7505,-0.20781 -5,-0.625 v 2.5 c -4.7e-4,1.6669 0.20781,2.9169 0.625,3.75 2.0828,0.41719 3.5411,0.83281 4.375,1.25 1.25,1.6e-4 1.8745,1.6e-4 1.875,0 H 600 c 9.5828,-2.0831 14.375,-10.833 14.375,-26.25 -4.7e-4,-3.3331 -0.41719,-6.8748 -1.25,-10.625 -0.41719,-3.7498 -1.0422,-7.9164 -1.875,-12.5 m 1.875,48.125 c -3.7505,4.5834 -6.6672,9.7919 -8.75,15.625 h 3.75 c 4.1661,-4.1666 6.2495,-7.7081 6.25,-10.625 -4.7e-4,1.6e-4 -0.41719,-1.6666 -1.25,-5 m -245,34.375 c 6.6664,-12.5 17.5,-18.75 32.5,-18.75 18.333,-0.83281 27.5,-3.1248 27.5,-6.875 -3.1e-4,-0.83281 -1.25,-1.8748 -3.75,-3.125 -2.0838,-1.25 -3.1253,-1.8748 -3.125,-1.875 0.41562,-1.6666 2.083,-2.0831 5,-1.25 h 5 c 8.7497,1.6e-4 17.708,-5.8331 26.875,-17.5 l -13.125,-5 -11.875,-10 -4.375,-1.25 c -1.25,-0.41719 -1.8753,-1.0422 -1.875,-1.875 v -1.875 l 3.125,-1.875 1.25,-5.625 -13.125,3.125 -15,1.875 c -4.5836,0.41719 -10.417,3.1252 -17.5,8.125 -0.83281,0.83281 -1.4578,1.25 -1.875,1.25 -0.41719,-0.41719 -0.625,-0.83281 -0.625,-1.25 v -1.25 c 1.6664,-5.8331 5.208,-10.416 10.625,-13.75 l 25,-14.375 c 6.2497,-2.0831 12.291,-3.1248 18.125,-3.125 6.6662,1.6e-4 13.125,1.25 19.375,3.75 0.41562,0.41719 1.25,0.625 2.5,0.625 v -0.625 c -3.1e-4,-1.25 -4.3753,-3.7498 -13.125,-7.5 L 450,404.165 c -7.0838,-1.6664 -14.375,-2.4998 -21.875,-2.5 -17.5,1.6e-4 -33.959,10.625 -49.375,31.875 -6.2503,8.7502 -9.3753,16.667 -9.375,23.75 -3.1e-4,3.3334 0.625,5.0002 1.875,5 h 2.5 l -0.625,2.5 -5,7.5 c -0.83438,2.5002 -1.25,3.5419 -1.25,3.125 -3.1e-4,0.41719 0.41719,0.625 1.25,0.625 2.4997,1.6e-4 5.833,-2.7081 10,-8.125 5.833,-7.4998 16.041,-11.667 30.625,-12.5 h 1.875 c -3.1e-4,1.25 -6.2503,3.3334 -18.75,6.25 -10.834,3.3334 -18.959,12.083 -24.375,26.25 1.6664,-0.41719 2.9164,-0.83281 3.75,-1.25 0.83281,-0.41719 3.7497,-3.5416 8.75,-9.375 1.6664,-2.4998 4.3747,-3.7498 8.125,-3.75 1.25,1.6e-4 1.8747,0.20781 1.875,0.625 -3.1e-4,1.6669 -1.8753,3.3334 -5.625,5 -6.2503,2.5002 -11.875,8.9584 -16.875,19.375 l 0.625,6.25 m -97.5,-15 c 2.0831,0.83281 3.9581,1.8752 5.625,3.125 1.6664,1.25 3.5414,2.2917 5.625,3.125 3.7498,-26.667 8.7498,-44.375 15,-53.125 L 315,418.54 c 2.9164,-4.1664 4.3747,-10.208 4.375,-18.125 v -6.875 c -3.1e-4,-3.3331 -0.20938,-6.0414 -0.625,-8.125 l -5,2.5 -5,3.75 c -0.83438,0.83438 -1.6669,1.25 -2.5,1.25 -0.83281,1.6e-4 -1.25,-0.41562 -1.25,-1.25 v -1.25 l 7.5,-20.625 c 0.41562,-0.41719 0.625,-1.4578 0.625,-3.125 -1.6e-4,-7.9164 -6.4586,-15.625 -19.375,-23.125 v 1.25 c -1.6e-4,0.83438 -0.41719,1.6669 -1.25,2.5 -1.6e-4,3.1e-4 -1.25,-0.83281 -3.75,-2.5 -2.0836,-1.6664 -4.5836,-2.4997 -7.5,-2.5 -6.6669,3.1e-4 -10,1.8753 -10,5.625 l 0.625,4.375 c 1.6664,-0.41719 2.9164,-0.625 3.75,-0.625 0.83281,-0.41562 1.6664,-0.625 2.5,-0.625 9.5831,3.1e-4 14.375,8.1253 14.375,24.375 -1.6e-4,5.0003 -0.625,10 -1.875,15 l -11.25,38.125 c -2.0836,7.9169 -3.9586,17.083 -5.625,27.5 -1.25,10 -2.2919,21.25 -3.125,33.75 m 0,15 c 0.83281,23.333 7.4998,45.625 20,66.875 3.3331,0.41719 5.6248,1.25 6.875,2.5 2.9164,2.9167 5.2081,4.375 6.875,4.375 0.83281,0 1.25,-0.20781 1.25,-0.625 l -1.25,-5.625 v -1.875 l 2.5,-1.25 c 0.41719,-0.41719 0.625,-1.0422 0.625,-1.875 -1.6e-4,-1.25 -1.6669,-4.7916 -5,-10.625 -5.8336,-9.5833 -8.7502,-22.708 -8.75,-39.375 -1.6e-4,-16.667 3.7498,-32.292 11.25,-46.875 7.4998,-14.167 15.833,-21.25 25,-21.25 6.6664,1.6e-4 9.9997,2.7084 10,8.125 -3.1e-4,5.0002 -1.4578,7.7084 -4.375,8.125 L 320,469.165 c -5.4169,1.6669 -8.1252,5.2084 -8.125,10.625 -1.6e-4,4.1669 1.8747,6.2502 5.625,6.25 h 2.5 c -1.25,-1.6666 -1.8753,-3.5416 -1.875,-5.625 -3.1e-4,-3.7498 1.4578,-5.6248 4.375,-5.625 l 17.5,-0.625 c 7.4997,1.6e-4 11.458,-5.2081 11.875,-15.625 0.41719,1.6e-4 2.2914,0.41719 5.625,1.25 0.41562,-2.0831 0.625,-3.7498 0.625,-5 0.41719,-1.6666 0.625,-3.1248 0.625,-4.375 -3.1e-4,-9.9998 -5.0003,-15.417 -15,-16.25 -1.6669,-0.41719 -2.5003,-0.83281 -2.5,-1.25 l 1.25,-1.25 5,-3.125 3.125,-6.25 c -7.0836,-2.9164 -13.125,-4.3748 -18.125,-4.375 -7.0836,1.6e-4 -14.584,5.2086 -22.5,15.625 -13.334,15.833 -20.834,31.25 -22.5,46.25 -2.0836,23.75 -4.1669,35.625 -6.25,35.625 -2.5002,1.6e-4 -3.3336,-1.6666 -2.5,-5 v -2.5 c -2.5002,-1.6666 -5.2086,-2.7083 -8.125,-3.125 m 100.62,-301.88 h 3.75 c 4.1664,4.7e-4 8.1247,1.8755 11.875,5.625 -1.25,-6.6662 -3.3336,-9.9995 -6.25,-10 -1.25,4.7e-4 -2.5003,0.20938 -3.75,0.625 -1.25,4.7e-4 -2.7086,0.20938 -4.375,0.625 l -1.25,3.125 m 36.25,114.38 8.75,-3.125 -5.625,-18.125 -5,-8.125 c -0.41719,-0.41719 -0.625,-1.25 -0.625,-2.5 l 0.625,-0.625 c 2.083,3.1e-4 3.958,2.292 5.625,6.875 2.083,4.167 5.208,11.042 9.375,20.625 -0.41719,-4.9997 -2.0838,-9.9997 -5,-15 -2.917,-5.4164 -4.3753,-8.333 -4.375,-8.75 0.83281,-0.83281 1.4578,-1.25 1.875,-1.25 1.6664,3.1e-4 3.5414,2.292 5.625,6.875 0.41562,1.667 1.0406,3.3336 1.875,5 0.83281,1.667 1.6662,3.542 2.5,5.625 -0.83438,-7.4997 -2.0838,-13.75 -3.75,-18.75 -1.25,-4.9997 -2.7086,-8.958 -4.375,-11.875 -6.2503,-10.416 -9.3753,-16.875 -9.375,-19.375 -3.1e-4,-0.41562 0.20781,-0.625 0.625,-0.625 4.583,3.1e-4 8.333,5.2088 11.25,15.625 0.83281,2.0838 1.6662,4.792 2.5,8.125 1.25,2.917 2.708,6.667 4.375,11.25 V 274.79 l -6.25,-17.5 v -1.25 c -3.1e-4,-1.25 0.20781,-2.083 0.625,-2.5 1.6662,3.1e-4 3.958,4.5838 6.875,13.75 -3.1e-4,-11.666 -4.3753,-23.541 -13.125,-35.625 -3.3336,-4.1662 -6.667,-9.7912 -10,-16.875 v -1.25 c 1.25,4.7e-4 4.583,4.5838 10,13.75 0.83281,2.917 3.958,7.0838 9.375,12.5 l -1.25,-8.75 -6.875,-10.625 -0.625,-1.875 c -3.1e-4,-0.41562 0.20781,-0.625 0.625,-0.625 2.083,4.7e-4 4.1662,2.5005 6.25,7.5 -0.41719,-4.9995 -1.25,-8.5412 -2.5,-10.625 -1.667,-2.083 -2.917,-3.5412 -3.75,-4.375 -0.41719,-0.83281 -0.83281,-1.4578 -1.25,-1.875 v -0.625 c 0.83281,-0.83281 1.8747,-1.25 3.125,-1.25 l -2.5,-10 h -8.75 l -1.25,7.5 c -0.41719,0.41719 -0.83281,0.625 -1.25,0.625 -1.667,-1.6662 -5.2086,-3.5412 -10.625,-5.625 -1.25,2.0838 -1.8753,3.7505 -1.875,5 -3.1e-4,5.0005 1.8747,9.3755 5.625,13.125 l 8.125,10 c 3.333,3.3338 4.9997,7.5003 5,12.5 -3.1e-4,2.5003 -0.41719,3.7503 -1.25,3.75 -2.5003,3.1e-4 -4.5836,-3.958 -6.25,-11.875 -1.667,-6.2495 -5.417,-9.7912 -11.25,-10.625 l -0.625,0.625 -0.625,2.5 c -0.83438,1.25 -1.4578,1.8755 -1.875,1.875 -0.41719,4.7e-4 -0.83281,-0.20781 -1.25,-0.625 l -5.625,-6.25 -15,-3.125 c 0.83281,1.667 1.25,3.3338 1.25,5 0.41719,1.25 0.83281,2.292 1.25,3.125 0.41719,5.8338 1.0422,9.167 1.875,10 l 7.5,8.125 -1.25,1.25 -3.75,1.25 c -0.41719,3.1e-4 -0.625,0.41719 -0.625,1.25 v 0.625 c 1.25,4.5838 4.3747,7.7088 9.375,9.375 l 11.875,4.375 c 6.2497,2.0838 9.3747,5.2088 9.375,9.375 -3.1e-4,1.25 -0.41719,1.8753 -1.25,1.875 -0.41719,3.1e-4 -2.292,-1.8747 -5.625,-5.625 -3.3336,-3.7497 -7.5003,-5.6247 -12.5,-5.625 -2.0836,3.1e-4 -3.1253,0.83438 -3.125,2.5 l 0.625,1.875 3.125,6.25 v 0.625 c -3.1e-4,0.83438 -2.292,1.667 -6.875,2.5 -5.8336,3.1e-4 -8.7503,3.3338 -8.75,10 -3.1e-4,6.667 3.5414,10 10.625,10 l 2.5,-0.625 c -1.667,-1.6664 -2.5003,-3.5414 -2.5,-5.625 -3.1e-4,-2.4997 2.2914,-3.7497 6.875,-3.75 9.583,3.1e-4 17.291,11.042 23.125,33.125 m -122.5,-144.38 c -0.83281,0.41719 -2.5002,0.625 -5,0.625 -5.4169,4.7e-4 -8.1252,-1.8745 -8.125,-5.625 -1.6e-4,-7.9162 8.7498,-11.875 26.25,-11.875 2.0831,4.7e-4 4.1664,0.20938 6.25,0.625 2.0831,4.7e-4 4.1664,0.20938 6.25,0.625 l 23.75,5.625 c -18.75,-7.0828 -33.125,-10.625 -43.125,-10.625 -19.167,4.7e-4 -28.75,5.6255 -28.75,16.875 v 1.875 c 1.6664,5.417 5.6248,8.1255 11.875,8.125 3.3331,4.7e-4 6.8748,-2.083 10.625,-6.25 m 12.5,134.38 8.125,-10.625 c 0.41562,3.1e-4 0.625,0.625 0.625,1.875 -1.6e-4,2.917 -0.83281,5.2086 -2.5,6.875 4.5831,-5.4164 7.9164,-11.666 10,-18.75 0.83281,-1.6664 1.4578,-2.708 1.875,-3.125 0.83281,3.1e-4 1.25,1.0422 1.25,3.125 -3.1e-4,3.1e-4 -0.41719,1.25 -1.25,3.75 -0.41719,2.0836 -1.25,5.417 -2.5,10 7.4997,-15.416 11.25,-27.708 11.25,-36.875 -3.1e-4,-3.7497 -0.625,-6.6662 -1.875,-8.75 -6.2503,-9.1662 -9.3752,-14.375 -9.375,-15.625 -1.6e-4,-1.25 0.625,-1.8747 1.875,-1.875 2.4997,3.1e-4 5.4164,3.1253 8.75,9.375 l 3.125,8.75 c 0.41719,2.0838 0.625,3.9588 0.625,5.625 0.41719,1.667 0.625,2.917 0.625,3.75 -3.1e-4,6.667 -1.6669,16.25 -5,28.75 4.5831,-5.833 7.4997,-11.458 8.75,-16.875 0.41719,-1.6662 0.83281,-2.4997 1.25,-2.5 0.83281,0.83438 1.25,1.4594 1.25,1.875 l -0.625,8.125 4.375,-11.25 -0.625,-13.125 c -3.1e-4,-1.25 0.41719,-2.2912 1.25,-3.125 2.0831,3.1e-4 3.1247,3.542 3.125,10.625 -3.1e-4,3.7503 -0.20938,6.2503 -0.625,7.5 2.0831,-3.333 3.1247,-5.6247 3.125,-6.875 l -0.625,-8.125 c -3.1e-4,-1.6662 0.41562,-2.4997 1.25,-2.5 1.6664,3.1e-4 2.4997,1.667 2.5,5 v 1.25 c 2.0831,-5.833 3.5414,-11.041 4.375,-15.625 0.83281,-4.583 1.4578,-8.5412 1.875,-11.875 1.25,-11.25 2.0831,-17.083 2.5,-17.5 1.25,-5.4162 3.9581,-10.416 8.125,-15 -10,0.41719 -16.042,3.3338 -18.125,8.75 -0.83281,1.667 -1.4578,2.7088 -1.875,3.125 -2.5003,-3.333 -3.9586,-4.9995 -4.375,-5 -5.4169,4.7e-4 -8.3336,5.0005 -8.75,15 -0.41719,0.83438 -0.625,2.5003 -0.625,5 -3.1e-4,2.5003 -0.20938,4.792 -0.625,6.875 l -4.375,-12.5 -5,-22.5 c -0.83438,-4.583 -5.0003,-9.1662 -12.5,-13.75 -7.5002,-4.9995 -13.75,-7.4995 -18.75,-7.5 -4.5836,4.7e-4 -9.1669,0.83438 -13.75,2.5 1.6664,1.667 2.4998,3.7505 2.5,6.25 -1.6e-4,0.41719 -0.20938,0.83438 -0.625,1.25 l -2.5,-0.625 c -0.41719,-0.41562 -1.4578,-0.625 -3.125,-0.625 -1.25,4.7e-4 -2.0836,-0.20781 -2.5,-0.625 -12.5,-0.83281 -21.667,-4.3745 -27.5,-10.625 -1.25,6.2505 -1.8752,12.292 -1.875,18.125 -1.6e-4,15 4.3748,25.209 13.125,30.625 8.7498,5.8338 13.125,9.792 13.125,11.875 -1.6e-4,1.25 -0.625,1.8753 -1.875,1.875 -0.83281,3.1e-4 -2.7086,-1.25 -5.625,-3.75 -2.0834,-1.25 -3.9584,-1.8747 -5.625,-1.875 -3.3334,3.1e-4 -5.0002,1.0422 -5,3.125 v 1.875 c 2.9166,11.667 7.7081,17.709 14.375,18.125 l 16.875,0.625 c 2.4998,3.1e-4 3.7498,0.625 3.75,1.875 -1.6e-4,0.83438 -0.41719,1.667 -1.25,2.5 l -8.125,1.875 c -5.4169,1.25 -8.1252,5.0003 -8.125,11.25 -1.6e-4,3.7503 2.4998,8.1253 7.5,13.125 4.5831,-7.083 8.5414,-10.625 11.875,-10.625 9.1664,3.1e-4 13.75,6.4586 13.75,19.375 -1.6e-4,1.667 -0.20938,3.1253 -0.625,4.375 -1.6e-4,1.25 -0.20938,2.7086 -0.625,4.375 m -31.25,207.5 v -11.875 c -5.0002,-2.4998 -10.417,-4.1666 -16.25,-5 2.0831,2.9167 4.3748,5.8334 6.875,8.75 2.9166,2.5002 6.0414,5.2084 9.375,8.125 m -28.75,-31.25 c 9.1666,1.6e-4 18.542,1.25 28.125,3.75 l 2.5,-20 c -12.083,-20.833 -20,-35.625 -23.75,-44.375 -1.6669,-4.9998 -3.3334,-11.25 -5,-18.75 -1.25,-7.9164 -2.2919,-17.291 -3.125,-28.125 -11.25,-6.6664 -21.458,-9.5831 -30.625,-8.75 h -6.875 c 0.83281,12.5 1.8748,23.75 3.125,33.75 1.6666,9.5836 3.5416,17.917 5.625,25 4.1666,13.75 14.167,32.917 30,57.5 m 1.25,-105.62 c 1.25,10.834 2.2916,19.584 3.125,26.25 1.25,6.2502 2.7081,12.084 4.375,17.5 2.0831,5.4169 4.7916,11.25 8.125,17.5 3.3331,5.8334 7.9164,13.542 13.75,23.125 l 0.625,-3.125 C 255.412,432.92 247.287,407.712 244.37,383.545 l -5.625,-5.625 M 199.37,351.67 h 11.25 c 5.8331,-0.83281 14.375,1.6669 25.625,7.5 0.83281,-11.666 1.8748,-21.458 3.125,-29.375 1.6666,-8.333 3.3331,-15.208 5,-20.625 3.3331,-11.666 10.208,-26.458 20.625,-44.375 -10,-2.9162 -17.5,-11.041 -22.5,-24.375 -16.667,25 -27.083,43.125 -31.25,54.375 -2.0834,5.8336 -4.1667,13.542 -6.25,23.125 -2.0834,9.5836 -3.9584,20.834 -5.625,33.75 m 60.625,-73.125 c -7.9169,15.417 -13.125,27.709 -15.625,36.875 -0.83281,4.5836 -1.6669,10.625 -2.5,18.125 -0.83281,7.5003 -1.6669,16.667 -2.5,27.5 l 4.375,2.5 c 0.83281,-10.833 1.4578,-19.583 1.875,-26.25 0.83281,-6.6664 1.8748,-12.5 3.125,-17.5 1.25,-4.9997 2.9166,-10.208 5,-15.625 2.0831,-5.4164 5.2081,-12.291 9.375,-20.625 l -3.125,-5 m 94.375,283.12 c 32.083,8.3334 56.666,12.5 73.75,12.5 35,0 87.5,-17.292 157.5,-51.875 v -115 c -4.7e-4,-10.416 4.5828,-16.458 13.75,-18.125 l 10.625,-2.5 c 2.9161,-0.41719 4.3745,-1.8748 4.375,-4.375 -4.7e-4,-0.83281 -0.83438,-2.0831 -2.5,-3.75 -3.7505,2.5003 -7.7089,4.1669 -11.875,5 -12.917,2.9169 -19.375,12.292 -19.375,28.125 v 107.5 c -70,33.75 -125,50.625 -165,50.625 -17.5,0 -37.917,-2.7083 -61.25,-8.125 m -54.375,-61.25 c -0.41719,4.1667 -0.83438,7.7084 -1.25,10.625 -1.6e-4,2.9167 -1.6e-4,5.4167 0,7.5 -1.6e-4,2.0834 -1.6e-4,4.5834 0,7.5 0.41562,2.5002 0.83281,5.8334 1.25,10 43.75,20.833 84.583,31.25 122.5,31.25 32.5,0 84.375,-16.458 155.62,-49.375 v -109.38 c -4.7e-4,-13.75 6.2495,-22.5 18.75,-26.25 l 8.75,-2.5 c 2.9161,-0.41719 4.3745,-1.6664 4.375,-3.75 -4.7e-4,-3.3331 -4.5839,-4.7914 -13.75,-4.375 h -1.875 l -53.75,3.125 -46.25,-1.875 c -9.167,-0.41719 -13.75,0.625 -13.75,3.125 -4.7e-4,3.7503 3.1245,5.8336 9.375,6.25 20,2.5002 33.541,6.0419 40.625,10.625 7.4995,4.5836 11.25,12.292 11.25,23.125 v 90.625 c -48.334,27.083 -86.667,40.625 -115,40.625 -24.584,0 -45.209,-3.125 -61.875,-9.375 -17.917,-6.2498 -39.584,-18.75 -65,-37.5 m 22.5,-120 c 0.83281,3.3336 1.25,6.8752 1.25,10.625 0.41719,3.3336 0.83281,6.6669 1.25,10 31.666,-30.416 60.208,-45.625 85.625,-45.625 22.5,3.1e-4 33.75,6.6669 33.75,20 -3.1e-4,2.5003 -0.20938,4.1669 -0.625,5 9.1662,-1.25 13.75,-4.3747 13.75,-9.375 -3.1e-4,-2.9164 -0.83438,-5.6247 -2.5,-8.125 -1.667,-2.4997 -2.5003,-3.7497 -2.5,-3.75 0.83281,-0.83281 3.7497,-2.0831 8.75,-3.75 -11.25,-11.25 -22.5,-16.875 -33.75,-16.875 -10,3.1e-4 -26.042,3.9586 -48.125,11.875 -7.0836,2.5003 -11.459,4.3753 -13.125,5.625 -5.0003,3.7503 -8.5419,5.6253 -10.625,5.625 l -0.625,-0.625 1.875,-1.875 c 5.4164,-4.1664 11.458,-7.4997 18.125,-10 5.833,-1.6664 11.458,-3.1247 16.875,-4.375 5.833,-1.6664 11.666,-3.3331 17.5,-5 15.833,-4.5831 25.833,-9.3747 30,-14.375 -0.83438,-0.41562 -1.667,-0.83281 -2.5,-1.25 -0.83438,-0.41719 -1.667,-0.83281 -2.5,-1.25 0.41562,-1.25 1.6662,-2.2914 3.75,-3.125 7.9162,-3.7497 11.875,-9.1664 11.875,-16.25 -3.1e-4,-7.4997 -2.917,-11.25 -8.75,-11.25 -0.83438,3.1e-4 -1.25,0.41719 -1.25,1.25 l 1.875,6.25 0.625,1.875 c -3.1e-4,4.167 -3.1253,7.5003 -9.375,10 l -47.5,19.375 c -17.5,7.0836 -38.542,23.542 -63.125,49.375 M 611.24,196.66 c 4.5828,11.667 6.8745,20 6.875,25 -4.7e-4,1.667 -0.20938,3.9588 -0.625,6.875 -4.7e-4,2.5003 -0.20938,5.417 -0.625,8.75 l 3.75,7.5 c 0.83281,-5.4162 1.4578,-9.9997 1.875,-13.75 0.83281,-3.7497 1.25,-7.083 1.25,-10 -4.7e-4,-7.4995 -2.0839,-16.875 -6.25,-28.125 l -6.25,3.75 m -12.5,8.75 -3.75,3.125 c 7.0828,2.5005 11.458,5.2088 13.125,8.125 1.6661,2.5005 2.4995,7.917 2.5,16.25 l 3.125,1.25 v -2.5 c -4.7e-4,-8.333 -0.83438,-13.958 -2.5,-16.875 -1.25,-2.9162 -5.4172,-6.0412 -12.5,-9.375 m -1.875,25 -1.25,2.5 c 12.5,7.917 20.208,15.417 23.125,22.5 0.83281,2.917 1.4578,7.292 1.875,13.125 0.83281,5.417 1.0406,12.5 0.625,21.25 l -0.625,8.75 1.875,1.25 c 0.41562,-2.083 0.625,-4.7914 0.625,-8.125 v -7.5 c -4.7e-4,-17.083 -1.4594,-28.333 -4.375,-33.75 -2.5005,-5.833 -9.7922,-12.5 -21.875,-20 m 15,25.625 c -1.25,2.0838 -2.5005,4.167 -3.75,6.25 -0.83438,1.667 -1.6672,3.542 -2.5,5.625 l 1.25,6.875 c 1.6661,-2.083 3.1245,-4.1662 4.375,-6.25 1.6661,-2.4997 2.9161,-4.9997 3.75,-7.5 -0.83438,-1.6662 -1.8755,-3.333 -3.125,-5 m -6.875,2.5 5.625,-8.75 -2.5,-2.5 -4.375,9.375 1.25,1.875 m 5,-73.75 -6.25,3.75 c -4.7e-4,1.667 2.0828,2.5005 6.25,2.5 6.2495,4.7e-4 9.3745,-2.9162 9.375,-8.75 -4.7e-4,-0.83281 -0.83438,-1.25 -2.5,-1.25 -1.6672,4.7e-4 -3.9589,1.25 -6.875,3.75 m -296.88,0.625 c 6.2497,3.7505 11.25,9.3755 15,16.875 33.75,-12.916 65.833,-19.375 96.25,-19.375 85.416,4.7e-4 140,33.542 163.75,100.62 0.41562,2.0836 1.25,3.542 2.5,4.375 3.3328,3.1e-4 4.9995,-3.7497 5,-11.25 -4.7e-4,-2.4997 -0.20938,-3.958 -0.625,-4.375 l -15,-61.25 c -4.7e-4,4.7e-4 -0.20938,-1.0406 -0.625,-3.125 -4.7e-4,-2.083 -0.20938,-5.4162 -0.625,-10 -4.7e-4,-3.333 -0.625,-4.9995 -1.875,-5 -4.7e-4,4.7e-4 -1.8755,1.0422 -5.625,3.125 -3.7505,1.667 -6.8755,2.5005 -9.375,2.5 -3.7505,4.7e-4 -9.5838,-1.8745 -17.5,-5.625 -43.75,-18.75 -83.125,-28.125 -118.12,-28.125 -26.667,4.7e-4 -64.375,6.8755 -113.12,20.625 m 16.25,20 1.875,4.375 c 37.5,-13.75 68.958,-20.625 94.375,-20.625 33.75,4.7e-4 73.333,12.084 118.75,36.25 -33.75,-26.25 -75.417,-39.375 -125,-39.375 -24.167,4.7e-4 -54.167,6.4588 -90,19.375 m 252.5,-11.25 c 0.41562,7.5005 1.25,15.417 2.5,23.75 1.6661,8.3338 3.5411,17.292 5.625,26.875 4.9995,18.75 7.4995,30.209 7.5,34.375 -4.7e-4,1.667 -0.625,4.3753 -1.875,8.125 -0.41719,0.41719 -0.625,1.0422 -0.625,1.875 -4.7e-4,0.83438 0.20781,1.25 0.625,1.25 4.5828,3.1e-4 6.8745,-3.1247 6.875,-9.375 l -0.625,-1.875 -13.125,-62.5 -3.125,-19.375 -3.75,-3.125 m -180,-35 h 11.875 c 5.833,-7.0828 10.625,-10.625 14.375,-10.625 1.25,4.7e-4 3.5412,1.25 6.875,3.75 v -1.875 c -3.1e-4,-4.9995 -3.7503,-7.4995 -11.25,-7.5 -8.7503,4.7e-4 -16.042,5.4172 -21.875,16.25 m 101.88,-15 c -5.417,1.25 -10,2.2922 -13.75,3.125 -3.7505,0.83438 -6.8755,1.6672 -9.375,2.5 -7.5005,2.5005 -13.334,3.7505 -17.5,3.75 -6.667,4.7e-4 -10,-1.4578 -10,-4.375 -3.1e-4,-2.4995 0.20781,-4.3745 0.625,-5.625 -5.8338,2.0838 -8.7503,4.3755 -8.75,6.875 -3.1e-4,7.0838 3.7497,10.625 11.25,10.625 0.83281,4.7e-4 16.666,-5.6245 47.5,-16.875 m -7.5,7.5 c -8.3338,3.3338 -15.209,7.7088 -20.625,13.125 l 2.5,1.25 3.125,-1.875 1.25,2.5 3.125,1.25 c 1.6662,-2.9162 3.333,-5.6245 5,-8.125 1.6662,-2.9162 3.5412,-5.6245 5.625,-8.125 m -1.875,15 1.25,3.75 2.5,0.625 C 506.0412,158.114 515,148.322 525,141.655 c -9.5838,0.41719 -16.667,2.5005 -21.25,6.25 -4.5838,3.7505 -9.5838,10.417 -15,20 l 2.5,1.25 3.125,-2.5 m 23.75,-12.5 c 10.833,-5.8328 20,-8.7495 27.5,-8.75 6.2495,4.7e-4 16.25,2.9172 30,8.75 1.25,-0.41562 3.1245,-0.625 5.625,-0.625 0.83281,4.7e-4 1.8745,0.20938 3.125,0.625 1.25,4.7e-4 2.9161,0.20938 5,0.625 -19.167,-10.416 -33.542,-15.625 -43.125,-15.625 -7.5005,4.7e-4 -16.875,5.0005 -28.125,15 m 70.625,-8.125 0.625,-5 c -4.1672,1.6672 -6.2505,3.3338 -6.25,5 -4.7e-4,0.41719 2.2911,1.6672 6.875,3.75 l -1.25,-3.75 m 5.625,6.875 1.875,6.875 6.875,7.5 c 0.83281,2.5005 1.25,3.5422 1.25,3.125 -4.7e-4,0.83438 -0.625,1.25 -1.875,1.25 -0.83438,4.7e-4 -1.4594,-0.20781 -1.875,-0.625 l -9.375,-10.625 -13.125,-1.25 -1.25,3.75 -15,-1.875 c -11.25,4.7e-4 -16.875,3.9588 -16.875,11.875 -4.7e-4,1.25 2.2912,3.542 6.875,6.875 0.41562,-7.9162 2.9162,-11.875 7.5,-11.875 3.3328,4.7e-4 8.7495,1.6672 16.25,5 10.416,6.2505 18.541,9.3755 24.375,9.375 9.5828,4.7e-4 14.375,-3.958 14.375,-11.875 L 607.5,152.28 c -4.7e-4,-4.9995 2.2911,-7.4995 6.875,-7.5 4.1661,4.7e-4 6.2495,1.6672 6.25,5 -4.7e-4,1.25 -0.83438,3.1255 -2.5,5.625 -1.25,2.5005 -1.8755,4.5838 -1.875,6.25 -4.7e-4,4.5838 1.6661,6.8755 5,6.875 1.25,-0.41562 2.7078,-1.4578 4.375,-3.125 -2.9172,-1.25 -4.3755,-2.9162 -4.375,-5 -4.7e-4,-1.6662 0.20781,-2.7078 0.625,-3.125 l 2.5,-4.375 c -4.7e-4,-8.3328 -3.5422,-12.5 -10.625,-12.5 -5.0005,4.7e-4 -9.7922,4.7922 -14.375,14.375 l -5,-1.875 m -343.75,-9.375 c 1.6666,1.6672 2.4998,3.7505 2.5,6.25 v 1.25 c 6.6666,-0.83281 13.125,-1.4578 19.375,-1.875 6.6664,-0.41562 13.333,-0.625 20,-0.625 16.25,4.7e-4 35.208,5.8338 56.875,17.5 l 7.5,-1.875 c -8.3336,-4.5828 -15.625,-8.3328 -21.875,-11.25 -6.2503,-2.9162 -11.459,-4.9995 -15.625,-6.25 -8.7502,-2.9162 -22.084,-4.3745 -40,-4.375 -4.5836,4.7e-4 -9.3752,0.20938 -14.375,0.625 -5.0002,4.7e-4 -9.7919,0.20938 -14.375,0.625 m 110,19.375 1.875,-0.625 -6.875,-12.5 c -0.83438,-1.25 -2.0836,-1.8745 -3.75,-1.875 -1.25,4.7e-4 -1.8753,0.83438 -1.875,2.5 -3.1e-4,0.41719 0.20781,0.83438 0.625,1.25 l 10,11.25 m -20,-15 -0.625,1.25 c -3.1e-4,2.0838 1.0406,3.1255 3.125,3.125 1.25,4.7e-4 1.8747,-0.625 1.875,-1.875 -3.1e-4,-2.0828 -1.0422,-3.1245 -3.125,-3.125 l -1.25,0.625 m 5,-7.5 c -2.0836,4.7e-4 -3.1253,0.83438 -3.125,2.5 -3.1e-4,1.6672 1.25,2.5005 3.75,2.5 2.4997,4.7e-4 3.7497,-1.0406 3.75,-3.125 -3.1e-4,-1.6662 -1.25,-2.2912 -3.75,-1.875 h -0.625 m 13.125,0 c -2.5003,4.7e-4 -3.7503,1.0422 -3.75,3.125 -3.1e-4,1.6672 1.4578,2.5005 4.375,2.5 2.0831,4.7e-4 3.1247,-1.25 3.125,-3.75 -3.1e-4,-1.6662 -1.25,-2.2912 -3.75,-1.875 m 8.125,21.875 5.625,-1.25 v -3.125 c -0.83438,-7.4995 2.2914,-11.25 9.375,-11.25 2.9164,4.7e-4 5.833,1.4594 8.75,4.375 -2.5003,-6.6662 -5.8336,-9.9995 -10,-10 -8.7503,4.7e-4 -13.334,7.0838 -13.75,21.25 m -127.5,-11.875 0.625,6.875 c 0.83281,2.0838 2.0831,3.1255 3.75,3.125 l 0.625,-0.625 c 2.4998,-0.41562 3.7498,-2.9162 3.75,-7.5 -1.6e-4,-7.4995 -3.3334,-11.25 -10,-11.25 -1.25,4.7e-4 -1.8752,0.625 -1.875,1.875 v 0.625 l 3.125,6.875 m 330.62,3.75 c -12.084,-3.7495 -21.042,-5.6245 -26.875,-5.625 -7.5005,4.7e-4 -13.75,2.0838 -18.75,6.25 -5.0005,4.1672 -7.5005,9.3755 -7.5,15.625 -4.7e-4,5.417 2.4995,8.1255 7.5,8.125 4.1662,4.7e-4 7.9162,-4.1662 11.25,-12.5 -2.5005,2.5005 -4.7922,3.7505 -6.875,3.75 -3.7505,4.7e-4 -5.6255,-1.4578 -5.625,-4.375 -4.7e-4,-8.7495 7.0828,-13.125 21.25,-13.125 1.6662,4.7e-4 4.1662,0.20938 7.5,0.625 3.3328,0.41719 7.9162,1.0422 13.75,1.875 l 4.375,-0.625 m 27.5,323.12 c -2.5005,1.6e-4 -3.7505,1.0422 -3.75,3.125 -4.7e-4,2.5002 1.25,3.7502 3.75,3.75 2.4995,1.6e-4 3.7495,-1.25 3.75,-3.75 -4.7e-4,-2.0831 -1.25,-3.1248 -3.75,-3.125 m 0,10.625 c -2.9172,1.6e-4 -4.3755,1.4578 -4.375,4.375 -4.7e-4,3.3334 1.6661,5.0002 5,5 2.4995,1.6e-4 3.7495,-1.6666 3.75,-5 -4.7e-4,-2.9166 -1.4594,-4.3748 -4.375,-4.375 m 11.25,3.75 c -2.0839,0.83281 -3.1255,2.0834 -3.125,3.75 -4.7e-4,2.0834 0.83281,3.1252 2.5,3.125 2.4995,1.6e-4 3.7495,-1.25 3.75,-3.75 -4.7e-4,-2.0833 -1.0422,-3.1248 -3.125,-3.125 m -221.88,-73.125 c 10.416,-8.7498 19.166,-15.208 26.25,-19.375 7.4997,-4.1664 12.5,-7.0831 15,-8.75 5.833,-3.7498 8.7497,-7.9164 8.75,-12.5 -3.1e-4,-8.3331 -4.167,-12.5 -12.5,-12.5 -5.8338,3.1e-4 -9.5836,3.1253 -11.25,9.375 v 1.875 c -3.1e-4,4.1669 1.4578,6.2502 4.375,6.25 1.6662,1.6e-4 2.4997,-0.83281 2.5,-2.5 l -0.625,-0.625 -1.875,-4.375 c -3.1e-4,-2.9164 1.6662,-4.3747 5,-4.375 3.7497,3.1e-4 5.6247,2.0836 5.625,6.25 -3.1e-4,4.5836 -3.542,9.1669 -10.625,13.75 l -16.25,11.25 c -3.7503,3.3336 -8.542,8.7502 -14.375,16.25 m -183.75,-266.88 c -4.1667,2.0838 -8.3334,4.3755 -12.5,6.875 -4.1667,2.0838 -8.5417,4.5838 -13.125,7.5 l 21.25,1.25 13.125,-10.625 c 3.3331,-2.0828 5.8331,-3.1245 7.5,-3.125 1.6666,4.7e-4 2.4998,0.625 2.5,1.875 -1.6e-4,2.5005 -1.6669,4.7922 -5,6.875 l -15,7.5 c -9.5834,4.5838 -14.375,12.292 -14.375,23.125 -1.6e-4,3.3338 1.0422,9.167 3.125,17.5 1.6666,-1.6662 3.1248,-2.4995 4.375,-2.5 1.25,4.7e-4 1.8748,0.83438 1.875,2.5 l -0.625,8.125 c -0.41719,10.417 6.2498,15.625 20,15.625 8.7498,3.1e-4 13.958,-3.333 15.625,-10 v -1.25 c -1.6e-4,-4.583 -3.3334,-9.3745 -10,-14.375 -3.7502,-2.9162 -5.6252,-4.9995 -5.625,-6.25 -1.6e-4,-4.1662 1.8748,-6.2495 5.625,-6.25 1.6666,4.7e-4 4.1666,1.0422 7.5,3.125 -3.3334,-4.9995 -6.0419,-7.4995 -8.125,-7.5 -6.6669,4.7e-4 -10,4.167 -10,12.5 -1.6e-4,3.3338 2.7081,7.0838 8.125,11.25 5.4166,4.167 8.1248,6.8755 8.125,8.125 -1.6e-4,4.5838 -2.5002,6.8753 -7.5,6.875 -10,3.1e-4 -15,-7.083 -15,-21.25 -1.6e-4,-4.9995 0.83281,-8.958 2.5,-11.875 2.0831,-3.333 8.7498,-11.25 20,-23.75 6.2498,-7.4995 9.3748,-14.166 9.375,-20 -1.6e-4,-7.9162 -4.5834,-11.875 -13.75,-11.875 -1.6e-4,4.7e-4 -7.9169,2.2922 -23.75,6.875 -1.6667,0.41719 -3.1252,0.83438 -4.375,1.25 -1.25,4.7e-4 -2.7084,4.7e-4 -4.375,0 -4.5834,4.7e-4 -9.5834,-2.0828 -15,-6.25 -1.6667,2.9172 -2.5002,4.7922 -2.5,5.625 -1.6e-4,3.7505 4.3748,5.6255 13.125,5.625 3.7498,4.7e-4 9.3748,-1.0406 16.875,-3.125 m 35.625,410 v -5 c -1.6e-4,-2.0833 0.625,-5.4166 1.875,-10 0.41719,1.6667 0.625,3.125 0.625,4.375 0.41719,0.83281 0.625,1.6667 0.625,2.5 -1.6e-4,2.0834 -1.0422,4.7917 -3.125,8.125 m 10,-27.5 c 2.9166,2.9167 4.3748,5.8334 4.375,8.75 -1.6e-4,2.9167 -0.20781,5 -0.625,6.25 l -3.75,-15 m 31.25,-50 c -1.6e-4,-1.6666 -1.0422,-3.1248 -3.125,-4.375 -1.6669,-1.25 -2.5002,-2.0831 -2.5,-2.5 -1.6e-4,-3.3331 1.25,-8.5416 3.75,-15.625 1.25,3.7502 1.8748,11.25 1.875,22.5 m -3.75,33.125 4.375,11.25 v 11.875 l -3.125,-12.5 -1.25,-10.625 m -36.875,65.625 c 2.0831,-1.6666 4.1666,-3.125 6.25,-4.375 2.0831,-1.6666 4.1666,-3.125 6.25,-4.375 -3.3334,4.5834 -7.5002,7.5 -12.5,8.75 m 178.12,-126.88 c 2.083,-0.41719 3.958,-0.625 5.625,-0.625 2.083,-0.41719 3.5412,-0.625 4.375,-0.625 11.666,1.6e-4 19.166,0.83281 22.5,2.5 l -10,1.875 c -0.83438,1.6e-4 -3.1253,-0.20781 -6.875,-0.625 -3.3338,-0.83281 -8.542,-1.6666 -15.625,-2.5 m -21.25,23.75 c 1.25,-0.41719 3.7497,-0.625 7.5,-0.625 0.83281,1.6e-4 1.8747,0.20781 3.125,0.625 1.25,1.6e-4 2.9164,0.20781 5,0.625 -3.3336,1.25 -5.6253,1.8752 -6.875,1.875 -2.917,1.6e-4 -5.8336,-0.83281 -8.75,-2.5 m -20.625,-21.25 v -2.5 c -0.83281,-2.9166 2.708,-6.4581 10.625,-10.625 -1.25,1.25 -2.917,2.9169 -5,5 -1.667,2.0834 -3.542,4.7919 -5.625,8.125 m 17.5,-15 c 6.2497,-6.6666 11.458,-9.1664 15.625,-7.5 -6.2503,3.3334 -11.459,5.8334 -15.625,7.5 m 48.75,61.875 c 8.7497,-3.3333 15,-4.9998 18.75,-5 4.583,1.6e-4 9.583,1.4578 15,4.375 -2.5005,-0.41719 -4.792,-0.625 -6.875,-0.625 -1.667,-0.41719 -3.3338,-0.625 -5,-0.625 -3.3338,1.6e-4 -10.625,0.625 -21.875,1.875 m 29.375,11.875 c 2.9162,1.6667 5.208,2.5002 6.875,2.5 3.333,1.6e-4 6.458,-0.83281 9.375,-2.5 -1.25,-0.41719 -2.917,-0.625 -5,-0.625 h -3.125 c -0.83438,1.6e-4 -2.292,0.20781 -4.375,0.625 -1.667,1.6e-4 -3.542,0.20781 -5.625,0.625 l 1.875,-0.625 m -64.375,3.75 0.625,-1.875 c -3.1e-4,-3.3333 0.625,-6.0416 1.875,-8.125 0.41562,0.83281 0.625,2.2917 0.625,4.375 -3.1e-4,0.41719 -1.0422,2.2917 -3.125,5.625 m 156.25,50 c 2.0828,-1.6666 3.9578,-3.3333 5.625,-5 2.0828,-1.6666 3.9578,-3.5416 5.625,-5.625 -1.25,5.8334 -5.0005,9.375 -11.25,10.625 m 31.875,-29.375 c 4.9995,0 8.1245,2.0834 9.375,6.25 -4.5839,-1.25 -7.7089,-3.3333 -9.375,-6.25 m 10,44.375 c -2.9172,-4.1666 -4.3755,-7.5 -4.375,-10 -4.7e-4,-0.83281 -4.7e-4,-1.875 0,-3.125 0.41562,-1.6666 0.83281,-3.5416 1.25,-5.625 0.41562,2.9167 0.83281,6.0417 1.25,9.375 0.41562,2.9167 1.0406,6.0417 1.875,9.375 m -309.38,-116.88 c 1.25,-3.3331 3.1248,-7.0831 5.625,-11.25 2.9164,-4.5831 6.4581,-9.7916 10.625,-15.625 6.6664,-9.1664 10.416,-14.166 11.25,-15 l -7.5,10 c -4.1669,5.4169 -7.9169,10.833 -11.25,16.25 -2.9169,5.0002 -5.8336,10.208 -8.75,15.625 m 1.25,-223.12 -13.125,1.875 h -8.75 l 0.625,-3.75 -0.625,-2.5 c -1.6e-4,-1.25 0.625,-1.8747 1.875,-1.875 0.41719,0.41719 0.83281,0.625 1.25,0.625 0.41719,3.1e-4 0.83281,0.20938 1.25,0.625 2.0831,0.41719 4.5831,1.0422 7.5,1.875 2.9164,0.83438 6.2498,1.8753 10,3.125 m 17.5,337.5 c 0.83281,-1.6666 1.25,-3.3333 1.25,-5 0.41562,-1.6666 0.83281,-3.3333 1.25,-5 1.6664,1.6667 2.4997,3.5417 2.5,5.625 -3.1e-4,0.83281 -1.6669,2.2917 -5,4.375 m 0.625,-184.38 c -3.1e-4,1.25 -0.625,3.1252 -1.875,5.625 -1.25,2.0836 -1.8752,3.3336 -1.875,3.75 -1.6e-4,2.9169 -2.2919,6.2502 -6.875,10 3.3331,-3.7498 6.8748,-10.208 10.625,-19.375 m 294.38,-226.88 c -0.41719,1.6672 -0.41719,3.1255 0,4.375 h -1.875 l -6.875,1.875 c 4.1661,-2.083 7.0828,-4.1662 8.75,-6.25 m -120.62,266.25 c 0.83281,4.1669 1.25,6.0419 1.25,5.625 -4.7e-4,3.7502 -0.41719,6.0419 -1.25,6.875 -4.7e-4,-0.83281 -0.625,-1.8748 -1.875,-3.125 -0.83438,-1.25 -1.25,-2.0831 -1.25,-2.5 -4.7e-4,-1.25 1.0406,-3.5416 3.125,-6.875 m 15,-9.375 c 4.9995,5.8334 7.4995,10 7.5,12.5 l -1.875,0.625 c -2.5005,-4.1666 -4.3755,-8.5414 -5.625,-13.125 m -6.875,32.5 c -2.0838,3.7502 -4.792,5.6252 -8.125,5.625 -2.0838,1.6e-4 -3.542,-0.20781 -4.375,-0.625 1.6662,-0.41719 3.333,-0.83281 5,-1.25 2.083,-0.83281 4.583,-2.0831 7.5,-3.75 m -166.88,-77.5 c 4.9997,-2.9164 13.75,-10.416 26.25,-22.5 -6.2503,4.1669 -10.625,7.0836 -13.125,8.75 -2.5003,2.0836 -5.0003,4.5836 -7.5,7.5 -2.5003,2.5003 -5.2086,5.4169 -8.125,8.75 l 2.5,-2.5 m 57.5,-48.75 c 12.5,-7.4997 25.208,-12.708 38.125,-15.625 -5.417,3.3336 -14.167,7.292 -26.25,11.875 l -11.875,3.75 m 23.125,8.125 c 5.4164,-1.25 9.583,-1.8747 12.5,-1.875 10.833,3.1e-4 18.125,0.625 21.875,1.875 l -13.75,0.625 H 418.11 l -7.5,-0.625 m 17.5,5 h 4.375 c 6.2497,-0.41719 9.9997,-0.41719 11.25,0 -3.7503,0.41719 -8.9588,0.41719 -15.625,0 m 27.5,-98.125 c 0.41562,-4.583 1.0406,-9.1662 1.875,-13.75 1.25,-4.583 2.9162,-9.3747 5,-14.375 v 3.125 c -3.1e-4,6.2503 -2.292,14.584 -6.875,25 m 46.875,8.125 c -4.167,-4.1662 -8.3338,-10.416 -12.5,-18.75 2.9162,2.917 5.6245,5.8338 8.125,8.75 2.4995,2.5003 3.958,5.8338 4.375,10 m 17.5,-36.875 c -2.0838,-0.41562 -4.5838,-1.0406 -7.5,-1.875 -2.917,-1.25 -6.4588,-2.9162 -10.625,-5 2.083,0.41719 4.583,1.25 7.5,2.5 2.9162,0.83438 6.458,2.292 10.625,4.375 m -26.875,-1.25 c 0.41562,-4.9995 2.9162,-6.8745 7.5,-5.625 -4.7e-4,0.41719 -0.83438,0.625 -2.5,0.625 -1.25,2.0838 -2.917,3.7505 -5,5 m -85.625,29.375 c -3.3336,-2.083 -7.7086,-4.9997 -13.125,-8.75 -5.0003,-3.7497 -10.834,-8.5412 -17.5,-14.375 3.333,1.667 7.4997,4.5838 12.5,8.75 4.9997,3.7503 11.041,8.542 18.125,14.375 m -183.75,-100.62 c 3.7498,1.25 5.6248,2.5005 5.625,3.75 0.41719,1.25 1.0422,2.2922 1.875,3.125 -1.6e-4,4.7e-4 -0.625,-0.625 -1.875,-1.875 -1.25,-1.25 -3.1252,-2.9162 -5.625,-5 m -30.625,38.75 c 0.41719,-1.6662 2.2916,-4.3745 5.625,-8.125 2.0833,-2.083 3.3333,-3.5412 3.75,-4.375 -1.6667,2.0838 -3.3334,4.167 -5,6.25 -1.25,2.0838 -2.7084,4.167 -4.375,6.25 m 33.75,-20.625 -5.625,10.625 c 0.41719,-2.4995 0.625,-4.5828 0.625,-6.25 0.41719,-2.0828 2.0831,-3.5412 5,-4.375 m 24.375,29.375 c 15.833,10.417 29.166,18.125 40,23.125 11.25,4.5838 16.875,7.7088 16.875,9.375 -1.6e-4,1.667 0.625,2.5003 1.875,2.5 -3.7502,3.1e-4 -10.625,-2.4997 -20.625,-7.5 -17.084,-8.333 -29.792,-17.5 -38.125,-27.5 m 36.875,74.375 h 2.5 c 9.5831,-0.83281 14.791,1.667 15.625,7.5 -2.0836,-0.83281 -4.7919,-1.8747 -8.125,-3.125 -2.9169,-1.25 -6.2502,-2.708 -10,-4.375 m 62.5,-46.875 -2.5,15.625 c -1.6669,-2.9162 -2.5003,-5.4162 -2.5,-7.5 -3.1e-4,-2.083 1.6664,-4.7912 5,-8.125"
         style="fill:#000000"
         id="path3018"
         inkscape:connector-curvature="0" />
    </g>
    <path
       style="color:#000000;clip-rule:nonzero;display:inline;overflow:visible;visibility:visible;opacity:1;isolation:auto;mix-blend-mode:normal;color-interpolation:sRGB;color-interpolation-filters:linearRGB;solid-color:#000000;solid-opacity:1;vector-effect:none;fill:#fe4619;fill-opacity:1;fill-rule:evenodd;stroke:none;stroke-width:6;stroke-linecap:round;stroke-linejoin:round;stroke-miterlimit:4;stroke-dasharray:none;stroke-dashoffset:0;stroke-opacity:1;paint-order:normal;color-rendering:auto;image-rendering:auto;shape-rendering:auto;text-rendering:auto;enable-background:accumulate"
       d=""
       id="path5353"
       inkscape:connector-curvature="0"
       transform="matrix(0.26458334,0,0,0.26458334,0,11.249975)" />
    <path
       style="color:#000000;clip-rule:nonzero;display:inline;overflow:visible;visibility:visible;opacity:1;isolation:auto;mix-blend-mode:normal;color-interpolation:sRGB;color-interpolation-filters:linearRGB;solid-color:#000000;solid-opacity:1;vector-effect:none;fill:#fe4619;fill-opacity:1;fill-rule:evenodd;stroke:none;stroke-width:1.41135;stroke-linecap:round;stroke-linejoin:round;stroke-miterlimit:4;stroke-dasharray:none;stroke-dashoffset:0;stroke-opacity:1;paint-order:normal;color-rendering:auto;image-rendering:auto;shape-rendering:auto;text-rendering:auto;enable-background:accumulate"
       d="m 316.805,115.40217 c -1.16437,-0.44672 -3.00345,-0.82371 -4.08686,-0.83778 l -1.96984,-0.0256 0.25708,-1.76418 c 0.66121,-4.53759 2.12906,-10.35096 3.20936,-12.71067 1.37509,-3.003585 5.96465,-10.457102 6.43977,-10.458247 0.17662,-4.73e-4 0.45037,0.406427 0.60833,0.904123 0.37203,1.172115 3.06018,3.799594 3.88736,3.799594 0.43232,0 0.10878,0.952228 -0.99904,2.940318 -2.26476,4.064332 -4.04006,9.632592 -4.6851,14.694942 l -0.54404,4.26968 z"
       id="path5355"
       inkscape:connector-curvature="0" />
    <path
       style="color:#000000;clip-rule:nonzero;display:inline;overflow:visible;visibility:visible;opacity:1;isolation:auto;mix-blend-mode:normal;color-interpolation:sRGB;color-interpolation-filters:linearRGB;solid-color:#000000;solid-opacity:1;vector-effect:none;fill:#fe4619;fill-opacity:1;fill-rule:evenodd;stroke:none;stroke-width:1.41135;stroke-linecap:round;stroke-linejoin:round;stroke-miterlimit:4;stroke-dasharray:none;stroke-dashoffset:0;stroke-opacity:1;paint-order:normal;color-rendering:auto;image-rendering:auto;shape-rendering:auto;text-rendering:auto;enable-background:accumulate"
       d="m 322.28857,145.93538 c -2.61976,-0.44482 -2.8218,-0.58035 -4.28857,-2.87671 -4.2986,-6.72988 -6.44355,-12.94779 -7.12001,-20.63984 l -0.32062,-3.64598 h 1.97709 c 1.0874,0 3.02192,0.44947 4.29894,0.99883 2.10905,0.90729 2.32184,1.14064 2.32184,2.54609 0,4.10099 1.41357,8.84084 4.24339,14.22858 2.45843,4.68064 2.83866,5.73788 2.71819,7.55806 -0.0771,1.16392 -0.35175,2.15707 -0.6105,2.20701 -0.25874,0.0499 -1.70763,-0.11929 -3.21975,-0.37604 z"
       id="path5357"
       inkscape:connector-curvature="0" />
    <path
       style="color:#000000;clip-rule:nonzero;display:inline;overflow:visible;visibility:visible;opacity:1;isolation:auto;mix-blend-mode:normal;color-interpolation:sRGB;color-interpolation-filters:linearRGB;solid-color:#000000;solid-opacity:1;vector-effect:none;fill:#fe4619;fill-opacity:1;fill-rule:evenodd;stroke:none;stroke-width:1.41135;stroke-linecap:round;stroke-linejoin:round;stroke-miterlimit:4;stroke-dasharray:none;stroke-dashoffset:0;stroke-opacity:1;paint-order:normal;color-rendering:auto;image-rendering:auto;shape-rendering:auto;text-rendering:auto;enable-background:accumulate"
       d="m 354.31337,164.63628 c -4.58208,-0.77035 -9.10038,-2.12072 -15.27962,-4.56655 l -4.82211,-1.90866 v -3.94837 -3.94837 l 3.41076,2.28232 c 7.43343,4.97408 12.62661,7.18898 18.90233,8.06185 9.90919,1.37824 17.32744,-0.2386 29.78926,-6.4927 l 4.82211,-2.42003 v -12.03721 c 0,-13.62344 -0.0962,-14.05278 -3.51809,-15.70145 -1.41129,-0.67997 -8.83236,-2.36156 -10.42181,-2.36156 -0.0955,0 -0.1736,-0.30055 -0.1736,-0.66789 0,-0.55685 1.93607,-0.68065 11.64365,-0.74454 6.40399,-0.0422 13.00095,-0.11207 14.6599,-0.15539 3.79177,-0.099 4.2561,0.71575 1.02039,1.79047 -1.37958,0.45823 -2.85734,1.37296 -3.55232,2.19888 l -1.19002,1.41425 v 14.25777 c 0,13.16817 -0.0629,14.27723 -0.82327,14.51243 -0.45282,0.14007 -3.57543,1.45263 -6.93915,2.9168 -7.63845,3.32488 -17.13251,6.51506 -22.28073,7.48673 -4.63383,0.87459 -10.164,0.88591 -15.24768,0.0312 z"
       id="path5359"
       inkscape:connector-curvature="0" />
    <path
       style="color:#000000;clip-rule:nonzero;display:inline;overflow:visible;visibility:visible;opacity:1;isolation:auto;mix-blend-mode:normal;color-interpolation:sRGB;color-interpolation-filters:linearRGB;solid-color:#000000;solid-opacity:1;vector-effect:none;fill:#fe4619;fill-opacity:1;fill-rule:evenodd;stroke:none;stroke-width:1.41135;stroke-linecap:round;stroke-linejoin:round;stroke-miterlimit:4;stroke-dasharray:none;stroke-dashoffset:0;stroke-opacity:1;paint-order:normal;color-rendering:auto;image-rendering:auto;shape-rendering:auto;text-rendering:auto;enable-background:accumulate"
       d="m 402.12306,98.661089 c -0.15089,-0.452813 -1.14261,-2.622761 -2.20383,-4.822117 -1.54231,-3.196353 -2.73521,-4.813306 -5.94439,-8.05748 -3.41035,-3.447553 -4.68778,-4.381871 -8.48413,-6.205303 -7.3161,-3.514006 -14.6851,-4.857898 -24.22818,-4.418509 -6.12624,0.282065 -10.0448,0.99302 -16.20278,2.939699 l -3.97108,1.255346 -1.30883,-1.577817 c -0.71986,-0.867799 -1.31453,-1.719073 -1.32149,-1.891721 -0.007,-0.172652 2.70615,-0.96025 6.02914,-1.750226 19.51466,-4.639218 26.26859,-4.064218 48.64892,4.141768 2.50712,0.919259 2.83113,0.939876 4.40911,0.280556 0.93673,-0.391389 1.78314,-0.711618 1.88091,-0.711618 0.0978,0 0.17777,0.750485 0.17777,1.667746 0,0.91726 0.84682,5.035932 1.8818,9.152606 1.035,4.116678 1.88181,8.235352 1.88181,9.152614 0,1.74167 -0.77141,2.265017 -1.24475,0.844456 z"
       id="path5361"
       inkscape:connector-curvature="0" />
    <path
       style="fill:none;fill-rule:evenodd;stroke:#000000;stroke-width:0.676747;stroke-linecap:butt;stroke-linejoin:miter;stroke-miterlimit:4;stroke-dasharray:none;stroke-opacity:1"
       d="M 437.45753,38.946061 V 199.25498"
       id="path5363"
       inkscape:connector-curvature="0" />
    <text
       xml:space="preserve"
       style="font-style:normal;font-variant:normal;font-weight:normal;font-stretch:normal;font-size:6.31633px;line-height:4.22968px;font-family:'Morris Roman';-inkscape-font-specification:'Morris Roman, ';letter-spacing:0px;word-spacing:0px;fill:#000000;fill-opacity:1;stroke:none;stroke-width:0.169187px;stroke-linecap:butt;stroke-linejoin:miter;stroke-opacity:1"
       x="457.11145"
       y="77.72245"
       id="text5367"><tspan
         sodipodi:role="line"
         id="tspan5365"
         x="457.11145"
         y="77.72245"
         style="font-style:normal;font-variant:normal;font-weight:normal;font-stretch:normal;font-size:21.656px;line-height:0.95em;font-family:'League Gothic';-inkscape-font-specification:'League Gothic';stroke-width:0.169187px">Growing a</tspan><tspan
         sodipodi:role="line"
         x="457.11145"
         y="98.295647"
         style="font-style:normal;font-variant:normal;font-weight:normal;font-stretch:normal;font-size:21.656px;line-height:0.95em;font-family:'League Gothic';-inkscape-font-specification:'League Gothic';stroke-width:0.169187px"
         id="tspan5369">Workflow Language</tspan><tspan
         sodipodi:role="line"
         x="457.11145"
         y="118.86885"
         style="font-style:normal;font-variant:normal;font-weight:normal;font-stretch:normal;font-size:21.656px;line-height:0.95em;font-family:'League Gothic';-inkscape-font-specification:'League Gothic';stroke-width:0.169187px"
         id="tspan5371">with GNU Guix</tspan></text>
    <text
       xml:space="preserve"
       style="font-style:normal;font-variant:normal;font-weight:normal;font-stretch:normal;font-size:6.31633px;line-height:4.22968px;font-family:'Morris Roman';-inkscape-font-specification:'Morris Roman, ';letter-spacing:0px;word-spacing:0px;fill:#fe4619;fill-opacity:1;stroke:none;stroke-width:0.169187px;stroke-linecap:butt;stroke-linejoin:miter;stroke-opacity:1"
       x="457.97678"
       y="160.65141"
       id="text5375"><tspan
         sodipodi:role="line"
         id="tspan5373"
         x="457.97678"
         y="160.65141"
         style="font-style:normal;font-variant:normal;font-weight:normal;font-stretch:normal;font-size:12.6327px;line-height:0.9em;font-family:'League Gothic';-inkscape-font-specification:'League Gothic';fill:#000000;fill-opacity:1;stroke-width:0.169187px">Ricardo Wurmus</tspan><tspan
         sodipodi:role="line"
         x="457.97678"
         y="172.02084"
         style="font-style:normal;font-variant:normal;font-weight:normal;font-stretch:normal;font-size:12.6327px;line-height:0.9em;font-family:'League Gothic';-inkscape-font-specification:'League Gothic';fill:#fe4619;fill-opacity:1;stroke-width:0.169187px"
         id="tspan5377">FOSDEM 2021</tspan></text>
    <text
       xml:space="preserve"
       style="font-style:normal;font-variant:normal;font-weight:normal;font-stretch:normal;font-size:6.31633px;line-height:4.22968px;font-family:'Morris Roman';-inkscape-font-specification:'Morris Roman, ';letter-spacing:0px;word-spacing:0px;fill:#fe4619;fill-opacity:1;stroke:none;stroke-width:0.169187px;stroke-linecap:butt;stroke-linejoin:miter;stroke-opacity:1;"
       x="457.11145"
       y="98.342987"
       id="text5367-6"><tspan
         sodipodi:role="line"
         x="457.11145"
         y="98.342987"
         style="font-style:normal;font-variant:normal;font-weight:normal;font-stretch:normal;font-size:21.656px;line-height:0.95em;font-family:'League Gothic';-inkscape-font-specification:'League Gothic';fill:#fe4619;fill-opacity:1;stroke-width:0.169187px;stroke:none;stroke-opacity:1;"
         id="tspan5369-5">Workflow Language</tspan><tspan
         sodipodi:role="line"
         x="457.11145"
         y="107.37957"
         id="tspan5371-3"
         style="stroke-width:0.169187px;stroke:none;stroke-opacity:1;" /></text>
  </g>
  <style
     id="style10850"
     type="text/css">
	.st0{opacity:0.15;fill:#292F33;}
	.st1{fill:#FFFFFF;}
</style>
</svg>
