<?xml version="1.0" encoding="UTF-8" standalone="no"?>
<svg
   xmlns:dc="http://purl.org/dc/elements/1.1/"
   xmlns:cc="http://creativecommons.org/ns#"
   xmlns:rdf="http://www.w3.org/1999/02/22-rdf-syntax-ns#"
   xmlns:svg="http://www.w3.org/2000/svg"
   xmlns="http://www.w3.org/2000/svg"
   xmlns:xlink="http://www.w3.org/1999/xlink"
   xmlns:sodipodi="http://sodipodi.sourceforge.net/DTD/sodipodi-0.dtd"
   xmlns:inkscape="http://www.inkscape.org/namespaces/inkscape"
   width="1280"
   height="720"
   viewBox="0 0 338.66666 190.50001"
   version="1.1"
   id="svg8"
   inkscape:version="1.0.1 (3bc2e813f5, 2020-09-07)"
   sodipodi:docname="30-guix.svg">
  <defs
     id="defs2">
    <inkscape:path-effect
       is_visible="true"
       id="path-effect2491"
       effect="spiro"
       lpeversion="0" />
    <inkscape:path-effect
       simplifyJustCoalesce="false"
       simplifyindividualpaths="false"
       simplify_just_coalesce="false"
       simplify_individual_paths="false"
       helper_size="0"
       smooth_angles="360"
       threshold="0.0165116"
       steps="1"
       is_visible="true"
       id="path-effect2489"
       effect="simplify"
       lpeversion="0" />
    <inkscape:path-effect
       effect="spiro"
       id="path-effect2328"
       is_visible="true"
       lpeversion="0" />
    <inkscape:path-effect
       effect="simplify"
       id="path-effect2326"
       is_visible="true"
       steps="1"
       threshold="0.0165116"
       smooth_angles="360"
       helper_size="0"
       simplify_individual_paths="false"
       simplify_just_coalesce="false"
       simplifyindividualpaths="false"
       simplifyJustCoalesce="false"
       lpeversion="0" />
    <inkscape:path-effect
       effect="spiro"
       id="path-effect2322"
       is_visible="true"
       lpeversion="0" />
    <inkscape:path-effect
       effect="simplify"
       id="path-effect2320"
       is_visible="true"
       steps="1"
       threshold="0.0165116"
       smooth_angles="360"
       helper_size="0"
       simplify_individual_paths="false"
       simplify_just_coalesce="false"
       simplifyindividualpaths="false"
       simplifyJustCoalesce="false"
       lpeversion="0" />
    <inkscape:path-effect
       effect="spiro"
       id="path-effect2316"
       is_visible="true"
       lpeversion="0" />
    <inkscape:path-effect
       effect="simplify"
       id="path-effect2314"
       is_visible="true"
       steps="1"
       threshold="0.0165116"
       smooth_angles="360"
       helper_size="0"
       simplify_individual_paths="false"
       simplify_just_coalesce="false"
       simplifyindividualpaths="false"
       simplifyJustCoalesce="false"
       lpeversion="0" />
    <inkscape:path-effect
       effect="spiro"
       id="path-effect2298"
       is_visible="true"
       lpeversion="0" />
    <inkscape:path-effect
       effect="simplify"
       id="path-effect2296"
       is_visible="true"
       steps="1"
       threshold="0.0165116"
       smooth_angles="360"
       helper_size="0"
       simplify_individual_paths="false"
       simplify_just_coalesce="false"
       simplifyindividualpaths="false"
       simplifyJustCoalesce="false"
       lpeversion="0" />
    <inkscape:path-effect
       effect="spiro"
       id="path-effect2292"
       is_visible="true"
       lpeversion="0" />
    <inkscape:path-effect
       effect="simplify"
       id="path-effect2290"
       is_visible="true"
       steps="1"
       threshold="0.0165116"
       smooth_angles="360"
       helper_size="0"
       simplify_individual_paths="false"
       simplify_just_coalesce="false"
       simplifyindividualpaths="false"
       simplifyJustCoalesce="false"
       lpeversion="0" />
    <inkscape:path-effect
       effect="spiro"
       id="path-effect2286"
       is_visible="true"
       lpeversion="0" />
    <inkscape:path-effect
       effect="simplify"
       id="path-effect2284"
       is_visible="true"
       steps="1"
       threshold="0.0165116"
       smooth_angles="360"
       helper_size="0"
       simplify_individual_paths="false"
       simplify_just_coalesce="false"
       simplifyindividualpaths="false"
       simplifyJustCoalesce="false"
       lpeversion="0" />
    <inkscape:path-effect
       effect="spiro"
       id="path-effect2274"
       is_visible="true"
       lpeversion="0" />
    <inkscape:path-effect
       effect="simplify"
       id="path-effect2272"
       is_visible="true"
       steps="1"
       threshold="0.0165116"
       smooth_angles="360"
       helper_size="0"
       simplify_individual_paths="false"
       simplify_just_coalesce="false"
       simplifyindividualpaths="false"
       simplifyJustCoalesce="false"
       lpeversion="0" />
    <inkscape:path-effect
       effect="spiro"
       id="path-effect2268"
       is_visible="true"
       lpeversion="0" />
    <inkscape:path-effect
       effect="simplify"
       id="path-effect2266"
       is_visible="true"
       steps="1"
       threshold="0.0165116"
       smooth_angles="360"
       helper_size="0"
       simplify_individual_paths="false"
       simplify_just_coalesce="false"
       simplifyindividualpaths="false"
       simplifyJustCoalesce="false"
       lpeversion="0" />
    <inkscape:path-effect
       effect="spiro"
       id="path-effect2130"
       is_visible="true"
       lpeversion="0" />
    <inkscape:path-effect
       effect="simplify"
       id="path-effect2128"
       is_visible="true"
       steps="1"
       threshold="0.0165116"
       smooth_angles="360"
       helper_size="0"
       simplify_individual_paths="false"
       simplify_just_coalesce="false"
       simplifyindividualpaths="false"
       simplifyJustCoalesce="false"
       lpeversion="0" />
    <inkscape:path-effect
       effect="spiro"
       id="path-effect2124"
       is_visible="true"
       lpeversion="0" />
    <inkscape:path-effect
       effect="simplify"
       id="path-effect2122"
       is_visible="true"
       steps="1"
       threshold="0.0165116"
       smooth_angles="360"
       helper_size="0"
       simplify_individual_paths="false"
       simplify_just_coalesce="false"
       simplifyindividualpaths="false"
       simplifyJustCoalesce="false"
       lpeversion="0" />
    <inkscape:path-effect
       effect="spiro"
       id="path-effect2118"
       is_visible="true"
       lpeversion="0" />
    <inkscape:path-effect
       effect="simplify"
       id="path-effect2116"
       is_visible="true"
       steps="1"
       threshold="0.0165116"
       smooth_angles="360"
       helper_size="0"
       simplify_individual_paths="false"
       simplify_just_coalesce="false"
       simplifyindividualpaths="false"
       simplifyJustCoalesce="false"
       lpeversion="0" />
    <inkscape:path-effect
       effect="spiro"
       id="path-effect2112"
       is_visible="true"
       lpeversion="0" />
    <inkscape:path-effect
       effect="simplify"
       id="path-effect2110"
       is_visible="true"
       steps="1"
       threshold="0.0165116"
       smooth_angles="360"
       helper_size="0"
       simplify_individual_paths="false"
       simplify_just_coalesce="false"
       simplifyindividualpaths="false"
       simplifyJustCoalesce="false"
       lpeversion="0" />
    <inkscape:path-effect
       effect="spiro"
       id="path-effect2106"
       is_visible="true"
       lpeversion="0" />
    <inkscape:path-effect
       effect="simplify"
       id="path-effect2104"
       is_visible="true"
       steps="1"
       threshold="0.0165116"
       smooth_angles="360"
       helper_size="0"
       simplify_individual_paths="false"
       simplify_just_coalesce="false"
       simplifyindividualpaths="false"
       simplifyJustCoalesce="false"
       lpeversion="0" />
    <inkscape:path-effect
       effect="spiro"
       id="path-effect2088"
       is_visible="true"
       lpeversion="0" />
    <inkscape:path-effect
       effect="simplify"
       id="path-effect2086"
       is_visible="true"
       steps="1"
       threshold="0.0165116"
       smooth_angles="360"
       helper_size="0"
       simplify_individual_paths="false"
       simplify_just_coalesce="false"
       simplifyindividualpaths="false"
       simplifyJustCoalesce="false"
       lpeversion="0" />
    <inkscape:path-effect
       effect="spiro"
       id="path-effect2076"
       is_visible="true"
       lpeversion="0" />
    <inkscape:path-effect
       effect="simplify"
       id="path-effect2074"
       is_visible="true"
       steps="1"
       threshold="0.0165116"
       smooth_angles="360"
       helper_size="0"
       simplify_individual_paths="false"
       simplify_just_coalesce="false"
       simplifyindividualpaths="false"
       simplifyJustCoalesce="false"
       lpeversion="0" />
    <inkscape:path-effect
       effect="spiro"
       id="path-effect2058"
       is_visible="true"
       lpeversion="0" />
    <inkscape:path-effect
       effect="simplify"
       id="path-effect2056"
       is_visible="true"
       steps="1"
       threshold="0.0165116"
       smooth_angles="360"
       helper_size="0"
       simplify_individual_paths="false"
       simplify_just_coalesce="false"
       simplifyindividualpaths="false"
       simplifyJustCoalesce="false"
       lpeversion="0" />
    <inkscape:path-effect
       effect="spiro"
       id="path-effect2040"
       is_visible="true"
       lpeversion="0" />
    <inkscape:path-effect
       effect="simplify"
       id="path-effect2038"
       is_visible="true"
       steps="1"
       threshold="0.0165116"
       smooth_angles="360"
       helper_size="0"
       simplify_individual_paths="false"
       simplify_just_coalesce="false"
       simplifyindividualpaths="false"
       simplifyJustCoalesce="false"
       lpeversion="0" />
    <inkscape:path-effect
       effect="bspline"
       id="path-effect10907"
       is_visible="true"
       weight="33.333333"
       steps="2"
       helper_size="0"
       apply_no_weight="true"
       apply_with_weight="true"
       only_selected="false"
       lpeversion="0" />
    <inkscape:perspective
       sodipodi:type="inkscape:persp3d"
       inkscape:vp_x="0 : 47.624997 : 1"
       inkscape:vp_y="0 : 1000 : 0"
       inkscape:vp_z="507.99999 : 47.624997 : 1"
       inkscape:persp3d-origin="254 : -3.3333332e-07 : 1"
       id="perspective9456" />
    <inkscape:path-effect
       effect="bspline"
       id="path-effect4268"
       is_visible="true"
       weight="33.333333"
       steps="2"
       helper_size="0"
       apply_no_weight="true"
       apply_with_weight="true"
       only_selected="false"
       lpeversion="0" />
    <linearGradient
       id="linearGradient4094">
      <stop
         style="stop-color:#232323;stop-opacity:1;"
         offset="0"
         id="stop4096" />
      <stop
         style="stop-color:#4d4d4d;stop-opacity:1;"
         offset="1"
         id="stop4098" />
    </linearGradient>
    <linearGradient
       id="linearGradient4014">
      <stop
         style="stop-color:#a0a0a0;stop-opacity:1;"
         offset="0"
         id="stop4016" />
      <stop
         style="stop-color:#ffffff;stop-opacity:1;"
         offset="1"
         id="stop4018" />
    </linearGradient>
    <linearGradient
       id="linearGradient4678">
      <stop
         style="stop-color:#e5e5e5;stop-opacity:1;"
         offset="0"
         id="stop4680" />
      <stop
         style="stop-color:#d3cdcd;stop-opacity:1;"
         offset="1"
         id="stop4682" />
    </linearGradient>
    <linearGradient
       id="linearGradient4341">
      <stop
         id="stop4343"
         offset="0"
         style="stop-color:#333333;stop-opacity:1;" />
      <stop
         id="stop4345"
         offset="1"
         style="stop-color:#484848;stop-opacity:1;" />
    </linearGradient>
    <linearGradient
       id="linearGradient4696-5">
      <stop
         id="stop4698-6"
         offset="0"
         style="stop-color:#ffb638;stop-opacity:1;" />
      <stop
         id="stop4700-2"
         offset="1"
         style="stop-color:#f0ae26;stop-opacity:1;" />
    </linearGradient>
    <linearGradient
       id="linearGradient4702-3">
      <stop
         id="stop4704-1"
         offset="0"
         style="stop-color:#e34646;stop-opacity:1;" />
      <stop
         id="stop4706-8"
         offset="1"
         style="stop-color:#ffbf2d;stop-opacity:1;" />
    </linearGradient>
    <color-profile
       xlink:href="file:///usr/share/color/icc/ghostscript/ps_cmyk.icc"
       id="color-profile5598"
       name="Artifex-PS-CMYK-Profile" />
    <clipPath
       id="clipPath4501"
       clipPathUnits="userSpaceOnUse">
      <path
         style="clip-rule:evenodd"
         inkscape:connector-curvature="0"
         id="path4499"
         d="M 0,0 H 124.992 V 144 H 0 Z" />
    </clipPath>
    <clipPath
       id="clipPath4525"
       clipPathUnits="userSpaceOnUse">
      <path
         inkscape:connector-curvature="0"
         id="path4523"
         d="M 0,0 H 100 V 125 H 0 Z" />
    </clipPath>
    <clipPath
       id="clipPath4545"
       clipPathUnits="userSpaceOnUse">
      <path
         inkscape:connector-curvature="0"
         id="path4543"
         d="M 0,0 H 100 V 125 H 0 Z" />
    </clipPath>
    <clipPath
       id="clipPath4561"
       clipPathUnits="userSpaceOnUse">
      <path
         inkscape:connector-curvature="0"
         id="path4559"
         d="M 0,0 H 100 V 125 H 0 Z" />
    </clipPath>
    <clipPath
       id="clipPath4577"
       clipPathUnits="userSpaceOnUse">
      <path
         inkscape:connector-curvature="0"
         id="path4575"
         d="M 0,0 H 100 V 125 H 0 Z" />
    </clipPath>
    <clipPath
       id="clipPath4593"
       clipPathUnits="userSpaceOnUse">
      <path
         inkscape:connector-curvature="0"
         id="path4591"
         d="M 0,0 H 100 V 125 H 0 Z" />
    </clipPath>
    <clipPath
       id="clipPath4609"
       clipPathUnits="userSpaceOnUse">
      <path
         inkscape:connector-curvature="0"
         id="path4607"
         d="M 0,0 H 100 V 125 H 0 Z" />
    </clipPath>
    <clipPath
       id="clipPath4625"
       clipPathUnits="userSpaceOnUse">
      <path
         inkscape:connector-curvature="0"
         id="path4623"
         d="M 0,0 H 100 V 125 H 0 Z" />
    </clipPath>
    <clipPath
       id="clipPath4641"
       clipPathUnits="userSpaceOnUse">
      <path
         inkscape:connector-curvature="0"
         id="path4639"
         d="M 0,0 H 100 V 125 H 0 Z" />
    </clipPath>
    <clipPath
       id="clipPath4657"
       clipPathUnits="userSpaceOnUse">
      <path
         inkscape:connector-curvature="0"
         id="path4655"
         d="M 0,0 H 100 V 125 H 0 Z" />
    </clipPath>
    <clipPath
       id="clipPath4673"
       clipPathUnits="userSpaceOnUse">
      <path
         inkscape:connector-curvature="0"
         id="path4671"
         d="M 0,0 H 100 V 125 H 0 Z" />
    </clipPath>
    <style
       id="style3894"
       type="text/css"><![CDATA[
    line, polyline, path, rect, circle {
      fill: none;
      stroke: #000000;
      stroke-linecap: round;
      stroke-linejoin: round;
      stroke-miterlimit: 10.00;
    }
  ]]></style>
    <clipPath
       id="cpNzMuMDYyM3w1NDYuMzIzfDM5My4wNzJ8MzEuMDU2Nw==">
      <rect
         id="rect3902"
         height="362.01999"
         width="473.26001"
         y="31.059999"
         x="73.059998" />
    </clipPath>
    <clipPath
       id="cpMHw3MDguNjYxfDUwMy40MjV8MA==">
      <rect
         id="rect3995"
         height="503.42999"
         width="708.65997"
         y="0"
         x="0" />
    </clipPath>
    <marker
       inkscape:stockid="Arrow2Send"
       orient="auto"
       refY="0"
       refX="0"
       id="Arrow2Send-3-3"
       style="overflow:visible"
       inkscape:isstock="true">
      <path
         inkscape:connector-curvature="0"
         id="path6389-4-7"
         style="fill:#ffbf2d;fill-opacity:1;fill-rule:evenodd;stroke:#ffbf2d;stroke-width:0.625;stroke-linejoin:round;stroke-opacity:1"
         d="M 8.7185878,4.0337352 -2.2072895,0.01601326 8.7185884,-4.0017078 c -1.7454984,2.3720609 -1.7354408,5.6174519 -6e-7,8.035443 z"
         transform="matrix(-0.3,0,0,-0.3,0.69,0)" />
    </marker>
    <marker
       inkscape:stockid="Arrow2Send"
       orient="auto"
       refY="0"
       refX="0"
       id="Arrow2Send-3-3-6"
       style="overflow:visible"
       inkscape:isstock="true">
      <path
         inkscape:connector-curvature="0"
         id="path6389-4-7-3"
         style="fill:#ffbf2d;fill-opacity:1;fill-rule:evenodd;stroke:#ffbf2d;stroke-width:0.625;stroke-linejoin:round;stroke-opacity:1"
         d="M 8.7185878,4.0337352 -2.2072895,0.01601326 8.7185884,-4.0017078 c -1.7454984,2.3720609 -1.7354408,5.6174519 -6e-7,8.035443 z"
         transform="matrix(-0.3,0,0,-0.3,0.69,0)" />
    </marker>
    <inkscape:path-effect
       effect="bspline"
       id="path-effect10907-2"
       is_visible="true"
       weight="33.333333"
       steps="2"
       helper_size="0"
       apply_no_weight="true"
       apply_with_weight="true"
       only_selected="false"
       lpeversion="0" />
    <inkscape:path-effect
       effect="bspline"
       id="path-effect10907-7"
       is_visible="true"
       weight="33.333333"
       steps="2"
       helper_size="0"
       apply_no_weight="true"
       apply_with_weight="true"
       only_selected="false"
       lpeversion="0" />
    <inkscape:path-effect
       effect="bspline"
       id="path-effect10907-1"
       is_visible="true"
       weight="33.333333"
       steps="2"
       helper_size="0"
       apply_no_weight="true"
       apply_with_weight="true"
       only_selected="false"
       lpeversion="0" />
    <clipPath
       id="clipPath8">
      <path
         inkscape:connector-curvature="0"
         id="path10"
         d="M 76,2 V 48 H 54 V 71 H 35.580737 c -0.07818,0.665694 -0.141485,1.332869 -0.205737,2 -1.151162,12.530963 1.036422,24.087546 6.0625,33.96875 L 43.125,110 c 1.011403,1.81678 2.191241,3.52297 3.4375,5.1875 1.244725,1.66248 1.685716,2.58262 2.46875,3.6875 C 62.319911,133.81083 82.129473,141 105,141 155.64836,141 198.63299,118.56201 217.65625,68.15625 231.15302,69.54122 244.09968,66.080358 250,54.5625 240.60137,49.138835 228.52163,50.877226 221.5625,54.375 L 240,2 168,48 H 145 V 2 Z" />
    </clipPath>
    <clipPath
       id="clipPath24989">
      <path
         inkscape:connector-curvature="0"
         id="path24987"
         d="M 76,2 V 48 H 54 V 71 H 35.580737 c -0.07818,0.665694 -0.141485,1.332869 -0.205737,2 -1.151162,12.530963 1.036422,24.087546 6.0625,33.96875 L 43.125,110 c 1.011403,1.81678 2.191241,3.52297 3.4375,5.1875 1.244725,1.66248 1.685716,2.58262 2.46875,3.6875 C 62.319911,133.81083 82.129473,141 105,141 155.64836,141 198.63299,118.56201 217.65625,68.15625 231.15302,69.54122 244.09968,66.080358 250,54.5625 240.60137,49.138835 228.52163,50.877226 221.5625,54.375 L 240,2 168,48 H 145 V 2 Z" />
    </clipPath>
    <clipPath
       id="clipPath24993">
      <path
         inkscape:connector-curvature="0"
         id="path24991"
         d="M 76,2 V 48 H 54 V 71 H 35.580737 c -0.07818,0.665694 -0.141485,1.332869 -0.205737,2 -1.151162,12.530963 1.036422,24.087546 6.0625,33.96875 L 43.125,110 c 1.011403,1.81678 2.191241,3.52297 3.4375,5.1875 1.244725,1.66248 1.685716,2.58262 2.46875,3.6875 C 62.319911,133.81083 82.129473,141 105,141 155.64836,141 198.63299,118.56201 217.65625,68.15625 231.15302,69.54122 244.09968,66.080358 250,54.5625 240.60137,49.138835 228.52163,50.877226 221.5625,54.375 L 240,2 168,48 H 145 V 2 Z" />
    </clipPath>
    <clipPath
       id="clipPath24997">
      <path
         inkscape:connector-curvature="0"
         id="path24995"
         d="M 76,2 V 48 H 54 V 71 H 35.580737 c -0.07818,0.665694 -0.141485,1.332869 -0.205737,2 -1.151162,12.530963 1.036422,24.087546 6.0625,33.96875 L 43.125,110 c 1.011403,1.81678 2.191241,3.52297 3.4375,5.1875 1.244725,1.66248 1.685716,2.58262 2.46875,3.6875 C 62.319911,133.81083 82.129473,141 105,141 155.64836,141 198.63299,118.56201 217.65625,68.15625 231.15302,69.54122 244.09968,66.080358 250,54.5625 240.60137,49.138835 228.52163,50.877226 221.5625,54.375 L 240,2 168,48 H 145 V 2 Z" />
    </clipPath>
    <clipPath
       id="clipPath25001">
      <path
         inkscape:connector-curvature="0"
         id="path24999"
         d="M 76,2 V 48 H 54 V 71 H 35.580737 c -0.07818,0.665694 -0.141485,1.332869 -0.205737,2 -1.151162,12.530963 1.036422,24.087546 6.0625,33.96875 L 43.125,110 c 1.011403,1.81678 2.191241,3.52297 3.4375,5.1875 1.244725,1.66248 1.685716,2.58262 2.46875,3.6875 C 62.319911,133.81083 82.129473,141 105,141 155.64836,141 198.63299,118.56201 217.65625,68.15625 231.15302,69.54122 244.09968,66.080358 250,54.5625 240.60137,49.138835 228.52163,50.877226 221.5625,54.375 L 240,2 168,48 H 145 V 2 Z" />
    </clipPath>
    <filter
       inkscape:label="Torn Edges"
       inkscape:menu="Distort"
       inkscape:menu-tooltip="Displace the outside of shapes and pictures without altering their content"
       height="1.4"
       y="-0.2"
       width="1.4"
       x="-0.2"
       style="color-interpolation-filters:sRGB"
       id="filter33308">
      <feTurbulence
         baseFrequency="0.05"
         numOctaves="5"
         type="fractalNoise"
         result="result91"
         id="feTurbulence33302" />
      <feDisplacementMap
         scale="25"
         result="result5"
         xChannelSelector="R"
         in="SourceGraphic"
         in2="result91"
         id="feDisplacementMap33304"
         yChannelSelector="A" />
      <feComposite
         in="SourceGraphic"
         operator="atop"
         in2="result5"
         id="feComposite33306" />
    </filter>
    <filter
       inkscape:label="Pixellize"
       inkscape:menu="Pixel Tools"
       inkscape:menu-tooltip="Reduce or remove antialiasing around shapes"
       style="color-interpolation-filters:sRGB"
       id="filter1161">
      <feColorMatrix
         values="1 0 0 0 0 0 1 0 0 0 0 0 1 0 0 0 0 0 1000 -500 "
         id="feColorMatrix1159"
         result="fbSourceGraphic" />
      <feColorMatrix
         result="fbSourceGraphicAlpha"
         in="fbSourceGraphic"
         values="0 0 0 -1 0 0 0 0 -1 0 0 0 0 -1 0 0 0 0 1 0"
         id="feColorMatrix1163" />
      <feColorMatrix
         id="feColorMatrix1165"
         values="1 0 0 0 0 0 1 0 0 0 0 0 1 0 0 0 0 0 1000 -500 "
         in="fbSourceGraphic" />
    </filter>
    <inkscape:path-effect
       effect="simplify"
       id="path-effect2314-4"
       is_visible="true"
       steps="1"
       threshold="0.0165116"
       smooth_angles="360"
       helper_size="0"
       simplify_individual_paths="false"
       simplify_just_coalesce="false"
       simplifyindividualpaths="false"
       simplifyJustCoalesce="false"
       lpeversion="0" />
    <inkscape:path-effect
       effect="spiro"
       id="path-effect2316-4"
       is_visible="true"
       lpeversion="0" />
    <linearGradient
       id="linearGradient4702-3-3">
      <stop
         style="stop-color:#ff0000;stop-opacity:0.58431375;"
         offset="0"
         id="stop4704-1-8" />
      <stop
         style="stop-color:#ffcc00;stop-opacity:1;"
         offset="1"
         id="stop4706-8-0" />
    </linearGradient>
    <linearGradient
       inkscape:collect="always"
       xlink:href="#linearGradient4702-3-3"
       id="linearGradient3926-9"
       gradientUnits="userSpaceOnUse"
       gradientTransform="matrix(-1.0752268,0,0,1.0752268,357.54997,10.095724)"
       x1="142.96875"
       y1="63.65625"
       x2="177.04297"
       y2="69.791016" />
    <linearGradient
       inkscape:collect="always"
       xlink:href="#linearGradient4696-5"
       id="linearGradient3929-3"
       gradientUnits="userSpaceOnUse"
       gradientTransform="matrix(-0.60208989,0,0,0.60208989,308.8035,-455.12618)"
       x1="108.08774"
       y1="1025.709"
       x2="80.655251"
       y2="1043.709" />
    <linearGradient
       inkscape:collect="always"
       xlink:href="#linearGradient4702-3-3"
       id="linearGradient3932-5"
       gradientUnits="userSpaceOnUse"
       gradientTransform="matrix(1.0752268,0,0,1.0752268,139.14343,-906.38767)"
       x1="113.5146"
       y1="1004.8033"
       x2="78.000107"
       y2="922.07178" />
    <linearGradient
       inkscape:collect="always"
       xlink:href="#linearGradient4702-3-3"
       id="linearGradient3936-6"
       gradientUnits="userSpaceOnUse"
       gradientTransform="matrix(1.0752268,0,0,1.0752268,139.17821,10.096071)"
       x1="142.96875"
       y1="63.65625"
       x2="176.60477"
       y2="70.667412" />
  </defs>
  <sodipodi:namedview
     id="base"
     pagecolor="#ffffff"
     bordercolor="#f70bff"
     borderopacity="1"
     inkscape:pageopacity="0.0"
     inkscape:pageshadow="2"
     inkscape:zoom="0.35355339"
     inkscape:cx="1788.4118"
     inkscape:cy="658.40531"
     inkscape:document-units="px"
     inkscape:current-layer="layer1"
     showgrid="false"
     units="px"
     borderlayer="true"
     inkscape:showpageshadow="false"
     inkscape:pagecheckerboard="true"
     inkscape:window-width="1920"
     inkscape:window-height="1016"
     inkscape:window-x="0"
     inkscape:window-y="27"
     inkscape:window-maximized="1"
     showguides="false"
     inkscape:document-rotation="0" />
  <metadata
     id="metadata5">
    <rdf:RDF>
      <cc:Work
         rdf:about="">
        <dc:format>image/svg+xml</dc:format>
        <dc:type
           rdf:resource="http://purl.org/dc/dcmitype/StillImage" />
        <dc:title></dc:title>
        <cc:license
           rdf:resource="http://creativecommons.org/licenses/by-sa/4.0/" />
      </cc:Work>
      <cc:License
         rdf:about="http://creativecommons.org/licenses/by-sa/4.0/">
        <cc:permits
           rdf:resource="http://creativecommons.org/ns#Reproduction" />
        <cc:permits
           rdf:resource="http://creativecommons.org/ns#Distribution" />
        <cc:requires
           rdf:resource="http://creativecommons.org/ns#Notice" />
        <cc:requires
           rdf:resource="http://creativecommons.org/ns#Attribution" />
        <cc:permits
           rdf:resource="http://creativecommons.org/ns#DerivativeWorks" />
        <cc:requires
           rdf:resource="http://creativecommons.org/ns#ShareAlike" />
      </cc:License>
    </rdf:RDF>
  </metadata>
  <g
     inkscape:label="Layer 1"
     inkscape:groupmode="layer"
     id="layer1"
     transform="translate(0,-11.249975)">
    <rect
       style="color:#000000;clip-rule:nonzero;display:inline;overflow:visible;visibility:visible;opacity:1;isolation:auto;mix-blend-mode:normal;color-interpolation:sRGB;color-interpolation-filters:linearRGB;solid-color:#000000;solid-opacity:1;vector-effect:none;fill:#e6e6e6;fill-opacity:1;fill-rule:nonzero;stroke:none;stroke-width:0.200259;stroke-linecap:round;stroke-linejoin:round;stroke-miterlimit:4;stroke-dasharray:none;stroke-dashoffset:0;stroke-opacity:1;color-rendering:auto;image-rendering:auto;shape-rendering:auto;text-rendering:auto;enable-background:accumulate"
       id="rect2926"
       width="338.66666"
       height="190.5"
       x="4.4408921e-16"
       y="11.249975" />
    <path
       style="color:#000000;clip-rule:nonzero;display:inline;overflow:visible;visibility:visible;opacity:1;isolation:auto;mix-blend-mode:normal;color-interpolation:sRGB;color-interpolation-filters:linearRGB;solid-color:#000000;solid-opacity:1;vector-effect:none;fill:#fe4619;fill-opacity:1;fill-rule:evenodd;stroke:none;stroke-width:6;stroke-linecap:round;stroke-linejoin:round;stroke-miterlimit:4;stroke-dasharray:none;stroke-dashoffset:0;stroke-opacity:1;paint-order:normal;color-rendering:auto;image-rendering:auto;shape-rendering:auto;text-rendering:auto;enable-background:accumulate"
       d=""
       id="path5353"
       inkscape:connector-curvature="0"
       transform="matrix(0.26458334,0,0,0.26458334,0,11.249975)" />
    <g
       id="g6268"
       transform="translate(4.0310748,33.889785)">
      <path
         sodipodi:type="star"
         style="color:#000000;clip-rule:nonzero;display:inline;overflow:visible;visibility:visible;opacity:1;isolation:auto;mix-blend-mode:normal;color-interpolation:sRGB;color-interpolation-filters:linearRGB;solid-color:#000000;solid-opacity:1;vector-effect:none;fill:#f9f9f9;fill-opacity:1;fill-rule:evenodd;stroke:none;stroke-width:0.743599;stroke-linecap:round;stroke-linejoin:round;stroke-miterlimit:4;stroke-dasharray:none;stroke-dashoffset:0;stroke-opacity:1;paint-order:normal;color-rendering:auto;image-rendering:auto;shape-rendering:auto;text-rendering:auto;enable-background:accumulate"
         id="path1795"
         sodipodi:sides="42"
         sodipodi:cx="165.30226"
         sodipodi:cy="72.610191"
         sodipodi:r1="98.904678"
         sodipodi:r2="22.055744"
         sodipodi:arg1="0.9160175"
         sodipodi:arg2="0.99081733"
         inkscape:flatsided="false"
         inkscape:rounded="0"
         inkscape:randomized="0"
         d="m 225.53361,151.05967 -48.14466,-60.000419 35.77964,68.101219 -38.66433,-66.505852 25.23005,72.673262 -28.32029,-71.525655 14.11686,75.621905 -17.34364,-74.947692 2.68834,76.881282 -5.97955,-76.695526 -8.80026,76.423256 5.51811,-76.730105 L 141.52163,168.6134 158.41413,93.562746 127.4787,163.99681 155.36825,92.3021 114.28069,157.33878 152.54428,90.601571 102.22242,148.78807 150.0053,88.499143 91.573243,138.53566 147.80803,86.041783 82.571054,126.81059 146.00155,83.284383 75.416944,113.87477 144.62622,80.288539 70.270723,100.01716 143.71275,77.121174 67.247349,85.547333 143.28156,73.85304 66.414361,70.78851 143.34228,70.557144 67.790364,56.07038 143.89354,67.307109 71.344623,41.721722 144.92305,64.175536 76.99774,28.063061 146.40778,61.23238 84.623433,15.39951 148.31459,58.543385 94.051359,4.0139503 150.60088,56.168619 105.07091,-5.8392824 l 48.14466,60.0004134 -35.77964,-68.101214 38.66433,66.505848 -25.23005,-72.673259 28.3203,71.525651 -14.11687,-75.621902 17.34364,74.94769 -2.68833,-76.881278 5.97955,76.695522 8.80025,-76.423253 -5.51811,76.730101 20.09226,-74.258058 -16.89251,75.050658 30.93543,-70.434061 -27.88955,71.694706 41.08756,-65.036684 L 178.06024,54.618812 228.38211,-3.5676827 180.59922,56.72124 239.03128,6.6847243 182.79649,59.1786 248.03347,18.409797 184.60297,61.936 255.18758,31.345618 185.97831,64.931844 260.3338,45.20322 l -73.44203,22.895989 76.4654,-8.42616 -76.03421,11.694293 76.8672,3.064531 -76.92792,0.231366 75.55192,14.486764 -76.10318,-11.236729 72.54892,25.585386 -73.57842,-22.453814 67.9253,36.112474 -69.41004,-33.169317 61.78435,45.832867 -63.69116,-43.143872 54.26323,54.529432 -56.54952,-52.154667 z"
         inkscape:transform-center-x="0.24411711"
         inkscape:transform-center-y="-0.11025865" />
      <g
         id="g1793"
         transform="matrix(0.52548594,0,0,0.52548594,34.476407,-8.5257589)">
        <g
           id="g3122"
           transform="matrix(0.7228716,0,0,0.7228716,139.93318,-505.6259)">
          <path
             inkscape:connector-curvature="0"
             id="path3240"
             style="font-style:normal;font-weight:bold;font-size:67.2026px;line-height:125%;font-family:Sans;-inkscape-font-specification:'Sans Bold';letter-spacing:0px;word-spacing:0px;fill:#333333;fill-opacity:1;stroke:none"
             d="m 114.29864,1016.2686 c -3.15017,1.5313 -6.4206,2.6798 -9.81131,3.4454 -3.39079,0.7657 -6.89092,1.1485 -10.500399,1.1485 -8.159708,0 -14.62401,-2.2751 -19.392927,-6.8253 -4.768937,-4.572 -7.153401,-10.7629 -7.153397,-18.57256 -4e-6,-7.89714 2.428211,-14.10987 7.284652,-18.63821 4.85642,-4.52825 11.506666,-6.79239 19.95076,-6.79244 3.259466,5e-5 6.376771,0.30631 9.351921,0.91878 2.99694,0.61258 5.81892,1.52042 8.46595,2.72354 v 10.13945 c -2.73453,-1.55314 -5.45807,-2.71256 -8.17063,-3.47825 -2.69076,-0.76562 -5.392426,-1.14844 -8.104994,-1.14849 -5.031469,5e-5 -8.914426,1.41104 -11.648882,4.23298 -2.712621,2.80014 -4.068921,6.81435 -4.068905,12.04264 -1.6e-5,5.18456 1.312533,9.18786 3.93765,12.00986 2.625077,2.822 6.354903,4.233 11.189489,4.233 1.312517,0 2.526625,-0.077 3.642326,-0.2297 1.137506,-0.175 2.154736,-0.4376 3.051676,-0.7876 v -9.516 h -7.711228 v -8.46591 h 19.688248 v 23.56031" />
          <path
             inkscape:connector-curvature="0"
             id="path3242"
             style="font-style:normal;font-weight:bold;font-size:67.2026px;line-height:125%;font-family:Sans;-inkscape-font-specification:'Sans Bold';letter-spacing:0px;word-spacing:0px;fill:#333333;fill-opacity:1;stroke:none"
             d="m 124.47091,1005.6041 v -22.44461 h 11.81295 v 3.67514 c -2e-5,1.99073 -0.011,4.49551 -0.0328,7.51435 -0.0219,2.99701 -0.0328,4.99865 -0.0328,6.00492 -2e-5,2.9532 0.0765,5.0861 0.22969,6.3987 0.15311,1.2907 0.41563,2.2313 0.78753,2.822 0.48125,0.7656 1.10471,1.3563 1.87039,1.7719 0.78751,0.4156 1.68441,0.6235 2.69072,0.6235 2.45007,0 4.37514,-0.9407 5.77522,-2.822 1.40003,-1.8813 2.10005,-4.4955 2.10008,-7.8425 v -18.14601 h 11.74732 v 36.75141 h -11.74732 v -5.3158 c -1.77197,2.1438 -3.65329,3.7298 -5.64396,4.758 -1.96885,1.0062 -4.14549,1.5094 -6.52994,1.5094 -4.24392,0 -7.48154,-1.3016 -9.71287,-3.9048 -2.20946,-2.6033 -3.31419,-6.3878 -3.31419,-11.3536" />
          <path
             inkscape:connector-curvature="0"
             id="path3244"
             style="font-style:normal;font-weight:bold;font-size:67.2026px;line-height:125%;font-family:Sans;-inkscape-font-specification:'Sans Bold';letter-spacing:0px;word-spacing:0px;fill:#333333;fill-opacity:1;stroke:none"
             d="m 172.77274,983.15949 h 11.74732 v 36.75141 h -11.74732 v -36.75141 m 0,-14.3068 h 11.74732 v 9.58162 h -11.74732 v -9.58162" />
          <path
             inkscape:connector-curvature="0"
             id="path3246"
             style="font-style:normal;font-weight:bold;font-size:67.2026px;line-height:125%;font-family:Sans;-inkscape-font-specification:'Sans Bold';letter-spacing:0px;word-spacing:0px;fill:#333333;fill-opacity:1;stroke:none"
             d="m 205.15991,1001.1086 -13.25675,-17.94911 h 12.43641 l 7.51435,10.89416 7.61279,-10.89416 h 12.43641 l -13.25676,17.88351 13.91303,18.8679 h -12.43641 l -8.26906,-11.6161 -8.17063,11.6161 h -12.43641 l 13.91303,-18.8023" />
        </g>
        <path
           inkscape:connector-curvature="0"
           style="font-style:normal;font-weight:bold;font-size:144px;line-height:125%;font-family:Sans;-inkscape-font-specification:'Sans Bold';letter-spacing:0px;word-spacing:0px;fill:#ffcc00;fill-opacity:1;stroke:none;stroke-width:0.722872"
           d="m 336.61685,61.169181 c -1.93915,3.543988 -3.9078,6.429236 -5.91377,8.702627 -1.93912,2.206646 -4.07746,3.971673 -6.41773,5.308933 -2.27348,1.270514 -4.85297,2.186783 -7.72819,2.721676 -2.8084,0.468066 -6.03303,0.705732 -9.71067,0.705568 -2.71283,0 -5.15086,-0.138791 -7.29138,-0.40315 -0.008,0 -0.0246,0 -0.0336,0 -0.2713,-0.01913 -0.83185,-0.110924 -1.41122,-0.20163 -0.61024,-0.09562 -1.23404,-0.187696 -2.21765,-0.3696 -18.0299,-3.335992 -24.00954,9.180692 -25.30145,12.633946 -0.20217,0.540467 -0.30239,0.873539 -0.30239,0.873539 l -21.90778,61.08634 -13.4403,22.84868 h 26.84705 c 11.02634,-24.5506 21.62708,-75.811544 32.96242,-80.339642 2.45691,0.343646 5.50234,0.503939 9.17302,0.503939 4.81439,0 9.12496,-0.577159 12.93634,-1.780792 3.81135,-1.203577 7.2396,-3.07043 10.31547,-5.611377 3.07581,-2.607748 5.85894,-5.933822 8.333,-9.945848 2.54089,-4.011917 4.95067,-8.831556 7.22414,-14.448343 l -6.11526,-2.284866 z"
           id="path3143-6" />
        <path
           style="font-style:normal;font-weight:bold;font-size:144px;line-height:125%;font-family:Sans;-inkscape-font-specification:'Sans Bold';letter-spacing:0px;word-spacing:0px;fill:url(#linearGradient3936-6);fill-opacity:1;stroke:none;stroke-width:0.722872"
           d="m 336.61617,61.171694 c -1.93918,3.543988 -3.90766,6.425247 -5.91364,8.698666 -1.93909,2.206618 -4.0783,3.972465 -6.41858,5.309752 -0.563,0.314658 -1.14347,0.60377 -1.74388,0.87455 -0.005,0.0022 -0.0109,0.0082 -0.0164,0.01093 -0.75576,0.531505 -1.72784,0.987768 -3.04532,1.301414 -15.19536,3.618001 -25.54542,17.159664 -26.51759,18.469658 0.4408,-0.362415 0.88449,-0.658275 1.32745,-0.884959 0.0667,-0.03524 0.13114,-0.06721 0.19781,-0.0989 0.0109,-0.0055 0.0191,-0.01093 0.0311,-0.01639 0.0771,-0.03606 0.1571,-0.06803 0.23414,-0.0989 2.45688,0.343617 5.50166,0.504949 9.17236,0.504949 4.81437,0 9.12466,-0.581913 12.93604,-1.785545 3.81135,-1.203578 7.23655,-3.06554 10.31241,-5.606487 3.07585,-2.607747 5.8602,-5.935953 8.33426,-9.948006 2.54089,-4.011917 4.95196,-8.834097 7.22543,-14.450885 l -6.11674,-2.280112 z"
           id="path3145-4"
           inkscape:connector-curvature="0" />
        <path
           inkscape:connector-curvature="0"
           style="font-style:normal;font-weight:bold;font-size:144px;line-height:125%;font-family:Sans;-inkscape-font-specification:'Sans Bold';letter-spacing:0px;word-spacing:0px;fill:#ffcc00;fill-opacity:1;stroke:none;stroke-width:0.722872"
           d="m 160.11144,61.169208 c 1.93918,3.543961 3.9078,6.429209 5.91377,8.7026 1.93912,2.206646 4.07746,3.971673 6.41776,5.308933 2.27345,1.270514 4.85295,2.186783 7.7282,2.721676 2.80836,0.468202 6.03299,0.705732 9.71064,0.705568 2.71282,0 5.15085,-0.138791 7.29135,-0.40315 0.008,0 0.0246,0 0.0336,0 0.2713,-0.01913 0.83185,-0.110924 1.41125,-0.20163 0.61024,-0.09562 1.23404,-0.187696 2.21765,-0.3696 18.0299,-3.335992 24.00954,9.180692 25.30144,12.633946 0.20218,0.540467 0.3024,0.873539 0.3024,0.873539 l 21.90775,61.08634 13.44033,22.84868 h -26.84706 c -11.02634,-24.5506 -21.62707,-75.811544 -32.96242,-80.339642 -2.45691,0.343646 -5.50234,0.503939 -9.17304,0.503939 -4.81437,0 -9.12493,-0.577159 -12.93631,-1.780792 -3.81135,-1.203577 -7.23961,-3.07043 -10.31545,-5.61135 -3.07581,-2.607747 -5.85896,-5.933822 -8.333,-9.945848 -2.54092,-4.011889 -4.9507,-8.831528 -7.2242,-14.44837 l 6.11537,-2.284839 z"
           id="path3147-0" />
        <path
           sodipodi:nodetypes="ccccccccsscccccccccccc"
           id="path3149-0"
           d="m 160.11038,61.168334 c 1.93914,3.54396 3.90777,6.429208 5.91374,8.7026 1.93912,2.206618 4.07746,3.971645 6.41776,5.308932 2.27345,1.270488 4.85294,2.186784 7.72819,2.72165 2.80837,0.468202 6.033,0.705732 9.71064,0.705595 2.71285,0 5.15086,-0.139064 7.29138,-0.403151 0.008,0 0.0246,0 0.0336,0 0.2713,-0.01912 0.83185,-0.110923 1.41122,-0.201629 0.61025,-0.09562 1.23404,-0.187697 2.21766,-0.369601 18.0299,-3.335992 24.00953,9.180665 25.30144,12.633919 0.20218,0.540494 0.30239,0.873566 0.30239,0.873566 l 21.90774,61.086335 11.28989,22.84866 H 234.93942 C 223.91308,150.52464 213.31232,99.263692 201.977,94.735594 c -2.45691,0.343645 -5.50234,0.503938 -9.17305,0.503938 -4.81436,0 -9.12493,-0.577159 -12.93631,-1.780791 -3.81137,-1.203578 -7.23963,-3.070431 -10.31547,-5.611378 -3.07581,-2.607747 -5.85894,-5.933821 -8.333,-9.945847 -2.54089,-4.01189 -4.9507,-8.831529 -7.22417,-14.448343 l 6.11534,-2.284839 z"
           style="font-style:normal;font-weight:bold;font-size:144px;line-height:125%;font-family:Sans;-inkscape-font-specification:'Sans Bold';letter-spacing:0px;word-spacing:0px;fill:url(#linearGradient3932-5);fill-opacity:1;stroke:none;stroke-width:0.722872"
           inkscape:connector-curvature="0" />
        <path
           inkscape:connector-curvature="0"
           id="path3151-4"
           style="font-style:normal;font-weight:bold;font-size:144px;line-height:125%;font-family:Sans;-inkscape-font-specification:'Sans Bold';letter-spacing:0px;word-spacing:0px;fill:url(#linearGradient3929-3);fill-opacity:1;stroke:none;stroke-width:0.722872"
           d="m 248.34162,152.21789 -13.3876,22.85822 h 26.83367"
           sodipodi:nodetypes="ccc" />
        <path
           style="font-style:normal;font-weight:bold;font-size:144px;line-height:125%;font-family:Sans;-inkscape-font-specification:'Sans Bold';letter-spacing:0px;word-spacing:0px;fill:url(#linearGradient3926-9);fill-opacity:1;stroke:none;stroke-width:0.722872"
           d="m 160.11328,61.171694 -6.11666,2.280085 c 0.71046,1.755246 1.43384,3.434622 2.17077,5.033864 0.14726,0.319848 0.29403,0.63385 0.44247,0.947442 5.7e-4,0.0014 -5.7e-4,0.0055 0,0.0055 0.14781,0.312117 0.29889,0.620655 0.44768,0.926597 0.0495,0.101907 0.10136,0.200537 0.15109,0.301925 0.24944,0.508529 0.49713,1.013286 0.74961,1.504438 0.001,0.0022 0.003,0.0027 0.006,0.0055 0.15054,0.292636 0.30138,0.582869 0.4529,0.869331 0.61115,1.15552 1.23068,2.261342 1.85841,3.31602 0.15683,0.263376 0.31073,0.518582 0.46851,0.77562 0.0612,0.09972 0.12103,0.198078 0.18223,0.296734 0.0975,0.157097 0.19862,0.313729 0.29673,0.468503 0.15464,0.250808 0.30624,0.499021 0.46329,0.744419 0.25026,0.390965 0.50893,0.773161 0.76523,1.150438 0.0648,0.09535 0.12759,0.192068 0.19262,0.286298 0.16256,0.235782 0.32427,0.467246 0.48932,0.697563 0.32845,0.458394 0.66155,0.906434 0.99949,1.34308 0.16884,0.218296 0.33883,0.43263 0.51017,0.645489 0.34266,0.425718 0.68903,0.840398 1.04112,1.24415 0.26693,0.306133 0.53979,0.60713 0.81207,0.900586 0.0861,0.09262 0.17376,0.184418 0.26037,0.275889 0.36225,0.382687 0.72682,0.753653 1.09839,1.114019 0.18524,0.179773 0.36935,0.356787 0.557,0.530986 0.18851,0.175128 0.37654,0.34594 0.56743,0.515359 0.18988,0.168571 0.38039,0.331541 0.57262,0.494539 0.57672,0.476426 1.16823,0.929574 1.76992,1.358653 1.60454,1.144263 3.29848,2.12124 5.08591,2.930792 0.22349,0.101088 0.4452,0.20081 0.67155,0.296735 0.45413,0.192614 0.91348,0.374846 1.3795,0.546586 0.23223,0.08552 0.46233,0.1642 0.69756,0.244525 0.23524,0.08032 0.47496,0.159009 0.71317,0.234142 0.23824,0.07513 0.47626,0.148353 0.71838,0.218569 0.48421,0.140704 0.97856,0.274304 1.4784,0.39561 0.24999,0.06065 0.50099,0.115841 0.75483,0.17185 0.25381,0.05574 0.50749,0.110377 0.76521,0.161467 0.25928,0.05136 0.51752,0.09918 0.78086,0.145622 0.52329,0.09262 1.05397,0.176221 1.59294,0.249988 0.80843,0.110651 1.63413,0.202177 2.47789,0.270753 0.56248,0.0459 1.13445,0.08196 1.71265,0.109284 0.5782,0.02732 1.16557,0.04289 1.75951,0.05218 0.29695,0.0055 0.59448,0.0055 0.89536,0.0055 0.45886,0 0.9089,-1.37e-4 1.34827,-0.0055 0.87873,-0.01093 1.71782,-0.03169 2.51953,-0.06257 0.39911,-0.01639 0.79106,-0.03142 1.17129,-0.05191 0.38181,-0.02186 0.75627,-0.04672 1.11921,-0.07295 1.0888,-0.07841 2.09274,-0.178407 3.01406,-0.307117 0.0773,0.03087 0.1571,0.06284 0.23415,0.0989 0.0109,0.0055 0.0219,0.01093 0.0311,0.01639 0.0667,0.03169 0.13114,0.06366 0.1978,0.0989 0.4432,0.226765 0.88638,0.52227 1.32745,0.884958 -0.97016,-1.307368 -11.32052,-14.851436 -26.51765,-18.46971 -1.31746,-0.313701 -2.28954,-0.769882 -3.0453,-1.301414 -0.006,-0.0022 -0.0109,-0.0082 -0.0164,-0.01093 -0.59907,-0.270206 -1.18205,-0.560712 -1.74391,-0.87455 -0.001,-5.74e-4 -0.003,5.74e-4 -0.006,0 -0.14507,-0.08278 -0.28864,-0.168844 -0.43205,-0.255179 -0.001,-5.74e-4 -0.003,5.74e-4 -0.005,0 -0.1448,-0.08688 -0.28376,-0.175129 -0.42687,-0.265562 -0.28742,-0.181412 -0.57265,-0.36736 -0.85373,-0.562214 -0.13988,-0.09699 -0.27805,-0.196439 -0.41645,-0.296707 -0.27873,-0.202177 -0.55012,-0.408807 -0.82248,-0.624698 -0.13524,-0.107099 -0.2672,-0.212286 -0.40086,-0.322745 -0.13469,-0.11147 -0.26774,-0.223487 -0.40082,-0.338372 -0.13224,-0.113929 -0.25983,-0.23141 -0.39042,-0.348782 -0.65276,-0.58694 -1.28628,-1.212375 -1.90005,-1.884721 -0.12267,-0.13442 -0.24835,-0.27332 -0.3696,-0.411237 -0.44602,-0.505496 -0.89021,-1.042028 -1.33264,-1.608559 -0.0552,-0.07049 -0.10628,-0.14207 -0.16147,-0.213378 -0.12431,-0.161468 -0.25081,-0.323045 -0.37482,-0.489322 -0.61981,-0.831382 -1.23475,-1.725766 -1.848,-2.680913 -0.24534,-0.382086 -0.48971,-0.774281 -0.73398,-1.176475 -0.12213,-0.201084 -0.24261,-0.402905 -0.36441,-0.60907 -0.36455,-0.616529 -0.73073,-1.25863 -1.09318,-1.920894 z"
           id="path3154-6"
           inkscape:connector-curvature="0" />
      </g>
    </g>
  </g>
  <style
     id="style10850"
     type="text/css">
	.st0{opacity:0.15;fill:#292F33;}
	.st1{fill:#FFFFFF;}
</style>
</svg>
