<?xml version="1.0" encoding="UTF-8" standalone="no"?>
<svg
   xmlns:dc="http://purl.org/dc/elements/1.1/"
   xmlns:cc="http://creativecommons.org/ns#"
   xmlns:rdf="http://www.w3.org/1999/02/22-rdf-syntax-ns#"
   xmlns:svg="http://www.w3.org/2000/svg"
   xmlns="http://www.w3.org/2000/svg"
   xmlns:xlink="http://www.w3.org/1999/xlink"
   xmlns:sodipodi="http://sodipodi.sourceforge.net/DTD/sodipodi-0.dtd"
   xmlns:inkscape="http://www.inkscape.org/namespaces/inkscape"
   width="1280"
   height="720"
   viewBox="0 0 338.66666 190.50001"
   version="1.1"
   id="svg8"
   inkscape:version="1.0.1 (3bc2e813f5, 2020-09-07)"
   sodipodi:docname="99-end.svg">
  <defs
     id="defs2">
    <inkscape:path-effect
       is_visible="true"
       id="path-effect2491"
       effect="spiro"
       lpeversion="0" />
    <inkscape:path-effect
       simplifyJustCoalesce="false"
       simplifyindividualpaths="false"
       simplify_just_coalesce="false"
       simplify_individual_paths="false"
       helper_size="0"
       smooth_angles="360"
       threshold="0.0165116"
       steps="1"
       is_visible="true"
       id="path-effect2489"
       effect="simplify"
       lpeversion="0" />
    <inkscape:path-effect
       effect="spiro"
       id="path-effect2328"
       is_visible="true"
       lpeversion="0" />
    <inkscape:path-effect
       effect="simplify"
       id="path-effect2326"
       is_visible="true"
       steps="1"
       threshold="0.0165116"
       smooth_angles="360"
       helper_size="0"
       simplify_individual_paths="false"
       simplify_just_coalesce="false"
       simplifyindividualpaths="false"
       simplifyJustCoalesce="false"
       lpeversion="0" />
    <inkscape:path-effect
       effect="spiro"
       id="path-effect2322"
       is_visible="true"
       lpeversion="0" />
    <inkscape:path-effect
       effect="simplify"
       id="path-effect2320"
       is_visible="true"
       steps="1"
       threshold="0.0165116"
       smooth_angles="360"
       helper_size="0"
       simplify_individual_paths="false"
       simplify_just_coalesce="false"
       simplifyindividualpaths="false"
       simplifyJustCoalesce="false"
       lpeversion="0" />
    <inkscape:path-effect
       effect="spiro"
       id="path-effect2316"
       is_visible="true"
       lpeversion="0" />
    <inkscape:path-effect
       effect="simplify"
       id="path-effect2314"
       is_visible="true"
       steps="1"
       threshold="0.0165116"
       smooth_angles="360"
       helper_size="0"
       simplify_individual_paths="false"
       simplify_just_coalesce="false"
       simplifyindividualpaths="false"
       simplifyJustCoalesce="false"
       lpeversion="0" />
    <inkscape:path-effect
       effect="spiro"
       id="path-effect2298"
       is_visible="true"
       lpeversion="0" />
    <inkscape:path-effect
       effect="simplify"
       id="path-effect2296"
       is_visible="true"
       steps="1"
       threshold="0.0165116"
       smooth_angles="360"
       helper_size="0"
       simplify_individual_paths="false"
       simplify_just_coalesce="false"
       simplifyindividualpaths="false"
       simplifyJustCoalesce="false"
       lpeversion="0" />
    <inkscape:path-effect
       effect="spiro"
       id="path-effect2292"
       is_visible="true"
       lpeversion="0" />
    <inkscape:path-effect
       effect="simplify"
       id="path-effect2290"
       is_visible="true"
       steps="1"
       threshold="0.0165116"
       smooth_angles="360"
       helper_size="0"
       simplify_individual_paths="false"
       simplify_just_coalesce="false"
       simplifyindividualpaths="false"
       simplifyJustCoalesce="false"
       lpeversion="0" />
    <inkscape:path-effect
       effect="spiro"
       id="path-effect2286"
       is_visible="true"
       lpeversion="0" />
    <inkscape:path-effect
       effect="simplify"
       id="path-effect2284"
       is_visible="true"
       steps="1"
       threshold="0.0165116"
       smooth_angles="360"
       helper_size="0"
       simplify_individual_paths="false"
       simplify_just_coalesce="false"
       simplifyindividualpaths="false"
       simplifyJustCoalesce="false"
       lpeversion="0" />
    <inkscape:path-effect
       effect="spiro"
       id="path-effect2274"
       is_visible="true"
       lpeversion="0" />
    <inkscape:path-effect
       effect="simplify"
       id="path-effect2272"
       is_visible="true"
       steps="1"
       threshold="0.0165116"
       smooth_angles="360"
       helper_size="0"
       simplify_individual_paths="false"
       simplify_just_coalesce="false"
       simplifyindividualpaths="false"
       simplifyJustCoalesce="false"
       lpeversion="0" />
    <inkscape:path-effect
       effect="spiro"
       id="path-effect2268"
       is_visible="true"
       lpeversion="0" />
    <inkscape:path-effect
       effect="simplify"
       id="path-effect2266"
       is_visible="true"
       steps="1"
       threshold="0.0165116"
       smooth_angles="360"
       helper_size="0"
       simplify_individual_paths="false"
       simplify_just_coalesce="false"
       simplifyindividualpaths="false"
       simplifyJustCoalesce="false"
       lpeversion="0" />
    <inkscape:path-effect
       effect="spiro"
       id="path-effect2130"
       is_visible="true"
       lpeversion="0" />
    <inkscape:path-effect
       effect="simplify"
       id="path-effect2128"
       is_visible="true"
       steps="1"
       threshold="0.0165116"
       smooth_angles="360"
       helper_size="0"
       simplify_individual_paths="false"
       simplify_just_coalesce="false"
       simplifyindividualpaths="false"
       simplifyJustCoalesce="false"
       lpeversion="0" />
    <inkscape:path-effect
       effect="spiro"
       id="path-effect2124"
       is_visible="true"
       lpeversion="0" />
    <inkscape:path-effect
       effect="simplify"
       id="path-effect2122"
       is_visible="true"
       steps="1"
       threshold="0.0165116"
       smooth_angles="360"
       helper_size="0"
       simplify_individual_paths="false"
       simplify_just_coalesce="false"
       simplifyindividualpaths="false"
       simplifyJustCoalesce="false"
       lpeversion="0" />
    <inkscape:path-effect
       effect="spiro"
       id="path-effect2118"
       is_visible="true"
       lpeversion="0" />
    <inkscape:path-effect
       effect="simplify"
       id="path-effect2116"
       is_visible="true"
       steps="1"
       threshold="0.0165116"
       smooth_angles="360"
       helper_size="0"
       simplify_individual_paths="false"
       simplify_just_coalesce="false"
       simplifyindividualpaths="false"
       simplifyJustCoalesce="false"
       lpeversion="0" />
    <inkscape:path-effect
       effect="spiro"
       id="path-effect2112"
       is_visible="true"
       lpeversion="0" />
    <inkscape:path-effect
       effect="simplify"
       id="path-effect2110"
       is_visible="true"
       steps="1"
       threshold="0.0165116"
       smooth_angles="360"
       helper_size="0"
       simplify_individual_paths="false"
       simplify_just_coalesce="false"
       simplifyindividualpaths="false"
       simplifyJustCoalesce="false"
       lpeversion="0" />
    <inkscape:path-effect
       effect="spiro"
       id="path-effect2106"
       is_visible="true"
       lpeversion="0" />
    <inkscape:path-effect
       effect="simplify"
       id="path-effect2104"
       is_visible="true"
       steps="1"
       threshold="0.0165116"
       smooth_angles="360"
       helper_size="0"
       simplify_individual_paths="false"
       simplify_just_coalesce="false"
       simplifyindividualpaths="false"
       simplifyJustCoalesce="false"
       lpeversion="0" />
    <inkscape:path-effect
       effect="spiro"
       id="path-effect2088"
       is_visible="true"
       lpeversion="0" />
    <inkscape:path-effect
       effect="simplify"
       id="path-effect2086"
       is_visible="true"
       steps="1"
       threshold="0.0165116"
       smooth_angles="360"
       helper_size="0"
       simplify_individual_paths="false"
       simplify_just_coalesce="false"
       simplifyindividualpaths="false"
       simplifyJustCoalesce="false"
       lpeversion="0" />
    <inkscape:path-effect
       effect="spiro"
       id="path-effect2076"
       is_visible="true"
       lpeversion="0" />
    <inkscape:path-effect
       effect="simplify"
       id="path-effect2074"
       is_visible="true"
       steps="1"
       threshold="0.0165116"
       smooth_angles="360"
       helper_size="0"
       simplify_individual_paths="false"
       simplify_just_coalesce="false"
       simplifyindividualpaths="false"
       simplifyJustCoalesce="false"
       lpeversion="0" />
    <inkscape:path-effect
       effect="spiro"
       id="path-effect2058"
       is_visible="true"
       lpeversion="0" />
    <inkscape:path-effect
       effect="simplify"
       id="path-effect2056"
       is_visible="true"
       steps="1"
       threshold="0.0165116"
       smooth_angles="360"
       helper_size="0"
       simplify_individual_paths="false"
       simplify_just_coalesce="false"
       simplifyindividualpaths="false"
       simplifyJustCoalesce="false"
       lpeversion="0" />
    <inkscape:path-effect
       effect="spiro"
       id="path-effect2040"
       is_visible="true"
       lpeversion="0" />
    <inkscape:path-effect
       effect="simplify"
       id="path-effect2038"
       is_visible="true"
       steps="1"
       threshold="0.0165116"
       smooth_angles="360"
       helper_size="0"
       simplify_individual_paths="false"
       simplify_just_coalesce="false"
       simplifyindividualpaths="false"
       simplifyJustCoalesce="false"
       lpeversion="0" />
    <inkscape:path-effect
       effect="bspline"
       id="path-effect10907"
       is_visible="true"
       weight="33.333333"
       steps="2"
       helper_size="0"
       apply_no_weight="true"
       apply_with_weight="true"
       only_selected="false"
       lpeversion="0" />
    <inkscape:perspective
       sodipodi:type="inkscape:persp3d"
       inkscape:vp_x="0 : 47.624997 : 1"
       inkscape:vp_y="0 : 1000 : 0"
       inkscape:vp_z="507.99999 : 47.624997 : 1"
       inkscape:persp3d-origin="254 : -3.3333332e-07 : 1"
       id="perspective9456" />
    <inkscape:path-effect
       effect="bspline"
       id="path-effect4268"
       is_visible="true"
       weight="33.333333"
       steps="2"
       helper_size="0"
       apply_no_weight="true"
       apply_with_weight="true"
       only_selected="false"
       lpeversion="0" />
    <linearGradient
       id="linearGradient4094">
      <stop
         style="stop-color:#232323;stop-opacity:1;"
         offset="0"
         id="stop4096" />
      <stop
         style="stop-color:#4d4d4d;stop-opacity:1;"
         offset="1"
         id="stop4098" />
    </linearGradient>
    <linearGradient
       id="linearGradient4014">
      <stop
         style="stop-color:#a0a0a0;stop-opacity:1;"
         offset="0"
         id="stop4016" />
      <stop
         style="stop-color:#ffffff;stop-opacity:1;"
         offset="1"
         id="stop4018" />
    </linearGradient>
    <linearGradient
       id="linearGradient4678">
      <stop
         style="stop-color:#e5e5e5;stop-opacity:1;"
         offset="0"
         id="stop4680" />
      <stop
         style="stop-color:#d3cdcd;stop-opacity:1;"
         offset="1"
         id="stop4682" />
    </linearGradient>
    <linearGradient
       id="linearGradient4341">
      <stop
         id="stop4343"
         offset="0"
         style="stop-color:#333333;stop-opacity:1;" />
      <stop
         id="stop4345"
         offset="1"
         style="stop-color:#484848;stop-opacity:1;" />
    </linearGradient>
    <linearGradient
       id="linearGradient4696-5">
      <stop
         id="stop4698-6"
         offset="0"
         style="stop-color:#ffb638;stop-opacity:1;" />
      <stop
         id="stop4700-2"
         offset="1"
         style="stop-color:#f0ae26;stop-opacity:1;" />
    </linearGradient>
    <linearGradient
       id="linearGradient4702-3">
      <stop
         id="stop4704-1"
         offset="0"
         style="stop-color:#e34646;stop-opacity:1;" />
      <stop
         id="stop4706-8"
         offset="1"
         style="stop-color:#ffbf2d;stop-opacity:1;" />
    </linearGradient>
    <color-profile
       xlink:href="file:///usr/share/color/icc/ghostscript/ps_cmyk.icc"
       id="color-profile59"
       name="Artifex-PS-CMYK-Profile" />
    <clipPath
       id="clipPath4501"
       clipPathUnits="userSpaceOnUse">
      <path
         style="clip-rule:evenodd"
         inkscape:connector-curvature="0"
         id="path4499"
         d="M 0,0 H 124.992 V 144 H 0 Z" />
    </clipPath>
    <clipPath
       id="clipPath4525"
       clipPathUnits="userSpaceOnUse">
      <path
         inkscape:connector-curvature="0"
         id="path4523"
         d="M 0,0 H 100 V 125 H 0 Z" />
    </clipPath>
    <clipPath
       id="clipPath4545"
       clipPathUnits="userSpaceOnUse">
      <path
         inkscape:connector-curvature="0"
         id="path4543"
         d="M 0,0 H 100 V 125 H 0 Z" />
    </clipPath>
    <clipPath
       id="clipPath4561"
       clipPathUnits="userSpaceOnUse">
      <path
         inkscape:connector-curvature="0"
         id="path4559"
         d="M 0,0 H 100 V 125 H 0 Z" />
    </clipPath>
    <clipPath
       id="clipPath4577"
       clipPathUnits="userSpaceOnUse">
      <path
         inkscape:connector-curvature="0"
         id="path4575"
         d="M 0,0 H 100 V 125 H 0 Z" />
    </clipPath>
    <clipPath
       id="clipPath4593"
       clipPathUnits="userSpaceOnUse">
      <path
         inkscape:connector-curvature="0"
         id="path4591"
         d="M 0,0 H 100 V 125 H 0 Z" />
    </clipPath>
    <clipPath
       id="clipPath4609"
       clipPathUnits="userSpaceOnUse">
      <path
         inkscape:connector-curvature="0"
         id="path4607"
         d="M 0,0 H 100 V 125 H 0 Z" />
    </clipPath>
    <clipPath
       id="clipPath4625"
       clipPathUnits="userSpaceOnUse">
      <path
         inkscape:connector-curvature="0"
         id="path4623"
         d="M 0,0 H 100 V 125 H 0 Z" />
    </clipPath>
    <clipPath
       id="clipPath4641"
       clipPathUnits="userSpaceOnUse">
      <path
         inkscape:connector-curvature="0"
         id="path4639"
         d="M 0,0 H 100 V 125 H 0 Z" />
    </clipPath>
    <clipPath
       id="clipPath4657"
       clipPathUnits="userSpaceOnUse">
      <path
         inkscape:connector-curvature="0"
         id="path4655"
         d="M 0,0 H 100 V 125 H 0 Z" />
    </clipPath>
    <clipPath
       id="clipPath4673"
       clipPathUnits="userSpaceOnUse">
      <path
         inkscape:connector-curvature="0"
         id="path4671"
         d="M 0,0 H 100 V 125 H 0 Z" />
    </clipPath>
    <style
       id="style3894"
       type="text/css"><![CDATA[
    line, polyline, path, rect, circle {
      fill: none;
      stroke: #000000;
      stroke-linecap: round;
      stroke-linejoin: round;
      stroke-miterlimit: 10.00;
    }
  ]]></style>
    <clipPath
       id="cpNzMuMDYyM3w1NDYuMzIzfDM5My4wNzJ8MzEuMDU2Nw==">
      <rect
         id="rect3902"
         height="362.01999"
         width="473.26001"
         y="31.059999"
         x="73.059998" />
    </clipPath>
    <clipPath
       id="cpMHw3MDguNjYxfDUwMy40MjV8MA==">
      <rect
         id="rect3995"
         height="503.42999"
         width="708.65997"
         y="0"
         x="0" />
    </clipPath>
    <marker
       inkscape:stockid="Arrow2Send"
       orient="auto"
       refY="0"
       refX="0"
       id="Arrow2Send-3-3"
       style="overflow:visible"
       inkscape:isstock="true">
      <path
         inkscape:connector-curvature="0"
         id="path6389-4-7"
         style="fill:#ffbf2d;fill-opacity:1;fill-rule:evenodd;stroke:#ffbf2d;stroke-width:0.625;stroke-linejoin:round;stroke-opacity:1"
         d="M 8.7185878,4.0337352 -2.2072895,0.01601326 8.7185884,-4.0017078 c -1.7454984,2.3720609 -1.7354408,5.6174519 -6e-7,8.035443 z"
         transform="matrix(-0.3,0,0,-0.3,0.69,0)" />
    </marker>
    <marker
       inkscape:stockid="Arrow2Send"
       orient="auto"
       refY="0"
       refX="0"
       id="Arrow2Send-3-3-6"
       style="overflow:visible"
       inkscape:isstock="true">
      <path
         inkscape:connector-curvature="0"
         id="path6389-4-7-3"
         style="fill:#ffbf2d;fill-opacity:1;fill-rule:evenodd;stroke:#ffbf2d;stroke-width:0.625;stroke-linejoin:round;stroke-opacity:1"
         d="M 8.7185878,4.0337352 -2.2072895,0.01601326 8.7185884,-4.0017078 c -1.7454984,2.3720609 -1.7354408,5.6174519 -6e-7,8.035443 z"
         transform="matrix(-0.3,0,0,-0.3,0.69,0)" />
    </marker>
    <inkscape:path-effect
       effect="bspline"
       id="path-effect10907-2"
       is_visible="true"
       weight="33.333333"
       steps="2"
       helper_size="0"
       apply_no_weight="true"
       apply_with_weight="true"
       only_selected="false"
       lpeversion="0" />
    <inkscape:path-effect
       effect="bspline"
       id="path-effect10907-7"
       is_visible="true"
       weight="33.333333"
       steps="2"
       helper_size="0"
       apply_no_weight="true"
       apply_with_weight="true"
       only_selected="false"
       lpeversion="0" />
    <inkscape:path-effect
       effect="bspline"
       id="path-effect10907-1"
       is_visible="true"
       weight="33.333333"
       steps="2"
       helper_size="0"
       apply_no_weight="true"
       apply_with_weight="true"
       only_selected="false"
       lpeversion="0" />
    <clipPath
       id="clipPath8">
      <path
         inkscape:connector-curvature="0"
         id="path10"
         d="M 76,2 V 48 H 54 V 71 H 35.580737 c -0.07818,0.665694 -0.141485,1.332869 -0.205737,2 -1.151162,12.530963 1.036422,24.087546 6.0625,33.96875 L 43.125,110 c 1.011403,1.81678 2.191241,3.52297 3.4375,5.1875 1.244725,1.66248 1.685716,2.58262 2.46875,3.6875 C 62.319911,133.81083 82.129473,141 105,141 155.64836,141 198.63299,118.56201 217.65625,68.15625 231.15302,69.54122 244.09968,66.080358 250,54.5625 240.60137,49.138835 228.52163,50.877226 221.5625,54.375 L 240,2 168,48 H 145 V 2 Z" />
    </clipPath>
    <clipPath
       id="clipPath24989">
      <path
         inkscape:connector-curvature="0"
         id="path24987"
         d="M 76,2 V 48 H 54 V 71 H 35.580737 c -0.07818,0.665694 -0.141485,1.332869 -0.205737,2 -1.151162,12.530963 1.036422,24.087546 6.0625,33.96875 L 43.125,110 c 1.011403,1.81678 2.191241,3.52297 3.4375,5.1875 1.244725,1.66248 1.685716,2.58262 2.46875,3.6875 C 62.319911,133.81083 82.129473,141 105,141 155.64836,141 198.63299,118.56201 217.65625,68.15625 231.15302,69.54122 244.09968,66.080358 250,54.5625 240.60137,49.138835 228.52163,50.877226 221.5625,54.375 L 240,2 168,48 H 145 V 2 Z" />
    </clipPath>
    <clipPath
       id="clipPath24993">
      <path
         inkscape:connector-curvature="0"
         id="path24991"
         d="M 76,2 V 48 H 54 V 71 H 35.580737 c -0.07818,0.665694 -0.141485,1.332869 -0.205737,2 -1.151162,12.530963 1.036422,24.087546 6.0625,33.96875 L 43.125,110 c 1.011403,1.81678 2.191241,3.52297 3.4375,5.1875 1.244725,1.66248 1.685716,2.58262 2.46875,3.6875 C 62.319911,133.81083 82.129473,141 105,141 155.64836,141 198.63299,118.56201 217.65625,68.15625 231.15302,69.54122 244.09968,66.080358 250,54.5625 240.60137,49.138835 228.52163,50.877226 221.5625,54.375 L 240,2 168,48 H 145 V 2 Z" />
    </clipPath>
    <clipPath
       id="clipPath24997">
      <path
         inkscape:connector-curvature="0"
         id="path24995"
         d="M 76,2 V 48 H 54 V 71 H 35.580737 c -0.07818,0.665694 -0.141485,1.332869 -0.205737,2 -1.151162,12.530963 1.036422,24.087546 6.0625,33.96875 L 43.125,110 c 1.011403,1.81678 2.191241,3.52297 3.4375,5.1875 1.244725,1.66248 1.685716,2.58262 2.46875,3.6875 C 62.319911,133.81083 82.129473,141 105,141 155.64836,141 198.63299,118.56201 217.65625,68.15625 231.15302,69.54122 244.09968,66.080358 250,54.5625 240.60137,49.138835 228.52163,50.877226 221.5625,54.375 L 240,2 168,48 H 145 V 2 Z" />
    </clipPath>
    <clipPath
       id="clipPath25001">
      <path
         inkscape:connector-curvature="0"
         id="path24999"
         d="M 76,2 V 48 H 54 V 71 H 35.580737 c -0.07818,0.665694 -0.141485,1.332869 -0.205737,2 -1.151162,12.530963 1.036422,24.087546 6.0625,33.96875 L 43.125,110 c 1.011403,1.81678 2.191241,3.52297 3.4375,5.1875 1.244725,1.66248 1.685716,2.58262 2.46875,3.6875 C 62.319911,133.81083 82.129473,141 105,141 155.64836,141 198.63299,118.56201 217.65625,68.15625 231.15302,69.54122 244.09968,66.080358 250,54.5625 240.60137,49.138835 228.52163,50.877226 221.5625,54.375 L 240,2 168,48 H 145 V 2 Z" />
    </clipPath>
    <filter
       inkscape:label="Torn Edges"
       inkscape:menu="Distort"
       inkscape:menu-tooltip="Displace the outside of shapes and pictures without altering their content"
       height="1.4"
       y="-0.2"
       width="1.4"
       x="-0.2"
       style="color-interpolation-filters:sRGB"
       id="filter33308">
      <feTurbulence
         baseFrequency="0.05"
         numOctaves="5"
         type="fractalNoise"
         result="result91"
         id="feTurbulence33302" />
      <feDisplacementMap
         scale="25"
         result="result5"
         xChannelSelector="R"
         in="SourceGraphic"
         in2="result91"
         id="feDisplacementMap33304"
         yChannelSelector="A" />
      <feComposite
         in="SourceGraphic"
         operator="atop"
         in2="result5"
         id="feComposite33306" />
    </filter>
    <filter
       inkscape:label="Pixellize"
       inkscape:menu="Pixel Tools"
       inkscape:menu-tooltip="Reduce or remove antialiasing around shapes"
       style="color-interpolation-filters:sRGB"
       id="filter1161">
      <feColorMatrix
         values="1 0 0 0 0 0 1 0 0 0 0 0 1 0 0 0 0 0 1000 -500 "
         id="feColorMatrix1159"
         result="fbSourceGraphic" />
      <feColorMatrix
         result="fbSourceGraphicAlpha"
         in="fbSourceGraphic"
         values="0 0 0 -1 0 0 0 0 -1 0 0 0 0 -1 0 0 0 0 1 0"
         id="feColorMatrix1163" />
      <feColorMatrix
         id="feColorMatrix1165"
         values="1 0 0 0 0 0 1 0 0 0 0 0 1 0 0 0 0 0 1000 -500 "
         in="fbSourceGraphic" />
    </filter>
    <inkscape:path-effect
       effect="simplify"
       id="path-effect2314-4"
       is_visible="true"
       steps="1"
       threshold="0.0165116"
       smooth_angles="360"
       helper_size="0"
       simplify_individual_paths="false"
       simplify_just_coalesce="false"
       simplifyindividualpaths="false"
       simplifyJustCoalesce="false"
       lpeversion="0" />
    <inkscape:path-effect
       effect="spiro"
       id="path-effect2316-4"
       is_visible="true"
       lpeversion="0" />
  </defs>
  <sodipodi:namedview
     id="base"
     pagecolor="#ffffff"
     bordercolor="#f70bff"
     borderopacity="1"
     inkscape:pageopacity="0.0"
     inkscape:pageshadow="2"
     inkscape:zoom="0.5"
     inkscape:cx="980.35786"
     inkscape:cy="709.46381"
     inkscape:document-units="px"
     inkscape:current-layer="layer1"
     showgrid="false"
     units="px"
     borderlayer="true"
     inkscape:showpageshadow="false"
     inkscape:pagecheckerboard="true"
     inkscape:window-width="1920"
     inkscape:window-height="1016"
     inkscape:window-x="0"
     inkscape:window-y="27"
     inkscape:window-maximized="1"
     showguides="false"
     inkscape:document-rotation="0" />
  <metadata
     id="metadata5">
    <rdf:RDF>
      <cc:Work
         rdf:about="">
        <dc:format>image/svg+xml</dc:format>
        <dc:type
           rdf:resource="http://purl.org/dc/dcmitype/StillImage" />
        <dc:title></dc:title>
        <cc:license
           rdf:resource="http://creativecommons.org/licenses/by-sa/4.0/" />
      </cc:Work>
      <cc:License
         rdf:about="http://creativecommons.org/licenses/by-sa/4.0/">
        <cc:permits
           rdf:resource="http://creativecommons.org/ns#Reproduction" />
        <cc:permits
           rdf:resource="http://creativecommons.org/ns#Distribution" />
        <cc:requires
           rdf:resource="http://creativecommons.org/ns#Notice" />
        <cc:requires
           rdf:resource="http://creativecommons.org/ns#Attribution" />
        <cc:permits
           rdf:resource="http://creativecommons.org/ns#DerivativeWorks" />
        <cc:requires
           rdf:resource="http://creativecommons.org/ns#ShareAlike" />
      </cc:License>
    </rdf:RDF>
  </metadata>
  <g
     inkscape:label="Layer 1"
     inkscape:groupmode="layer"
     id="layer1"
     transform="translate(0,-11.249975)">
    <rect
       style="color:#000000;clip-rule:nonzero;display:inline;overflow:visible;visibility:visible;opacity:1;isolation:auto;mix-blend-mode:normal;color-interpolation:sRGB;color-interpolation-filters:linearRGB;solid-color:#000000;solid-opacity:1;vector-effect:none;fill:#e6e6e6;fill-opacity:1;fill-rule:nonzero;stroke:none;stroke-width:0.200259;stroke-linecap:round;stroke-linejoin:round;stroke-miterlimit:4;stroke-dasharray:none;stroke-dashoffset:0;stroke-opacity:1;color-rendering:auto;image-rendering:auto;shape-rendering:auto;text-rendering:auto;enable-background:accumulate"
       id="rect2926"
       width="338.66666"
       height="190.5"
       x="4.4408921e-16"
       y="11.249975" />
    <path
       style="color:#000000;clip-rule:nonzero;display:inline;overflow:visible;visibility:visible;opacity:1;isolation:auto;mix-blend-mode:normal;color-interpolation:sRGB;color-interpolation-filters:linearRGB;solid-color:#000000;solid-opacity:1;vector-effect:none;fill:#fe4619;fill-opacity:1;fill-rule:evenodd;stroke:none;stroke-width:6;stroke-linecap:round;stroke-linejoin:round;stroke-miterlimit:4;stroke-dasharray:none;stroke-dashoffset:0;stroke-opacity:1;paint-order:normal;color-rendering:auto;image-rendering:auto;shape-rendering:auto;text-rendering:auto;enable-background:accumulate"
       d=""
       id="path5353"
       inkscape:connector-curvature="0"
       transform="matrix(0.26458334,0,0,0.26458334,0,11.249975)" />
    <path
       style="fill:none;fill-rule:evenodd;stroke:#000000;stroke-width:0.678695;stroke-linecap:butt;stroke-linejoin:miter;stroke-miterlimit:4;stroke-dasharray:none;stroke-opacity:1"
       d="M 178.017,23.850518 V 184.6203"
       id="path5363"
       inkscape:connector-curvature="0" />
    <text
       xml:space="preserve"
       style="font-style:normal;font-variant:normal;font-weight:normal;font-stretch:normal;font-size:6.33449px;line-height:4.24184px;font-family:'Morris Roman';-inkscape-font-specification:'Morris Roman, ';letter-spacing:0px;word-spacing:0px;fill:#000000;fill-opacity:1;stroke:none;stroke-width:0.169674px;stroke-linecap:butt;stroke-linejoin:miter;stroke-opacity:1"
       x="197.72743"
       y="68.002213"
       id="text5367"><tspan
         sodipodi:role="line"
         id="tspan5365"
         x="197.72743"
         y="68.002213"
         style="font-style:normal;font-variant:normal;font-weight:normal;font-stretch:normal;font-size:21.7183px;line-height:0.95em;font-family:'League Gothic';-inkscape-font-specification:'League Gothic';stroke-width:0.169674px">Growing a</tspan><tspan
         sodipodi:role="line"
         x="197.72743"
         y="88.634598"
         style="font-style:normal;font-variant:normal;font-weight:normal;font-stretch:normal;font-size:21.7183px;line-height:0.95em;font-family:'League Gothic';-inkscape-font-specification:'League Gothic';stroke-width:0.169674px"
         id="tspan5369"> </tspan><tspan
         sodipodi:role="line"
         x="197.72743"
         y="109.26698"
         style="font-style:normal;font-variant:normal;font-weight:normal;font-stretch:normal;font-size:21.7183px;line-height:0.95em;font-family:'League Gothic';-inkscape-font-specification:'League Gothic';stroke-width:0.169674px"
         id="tspan5371">with GNU Guix</tspan></text>
    <text
       xml:space="preserve"
       style="font-style:normal;font-variant:normal;font-weight:normal;font-stretch:normal;font-size:6.33449px;line-height:4.24184px;font-family:'Morris Roman';-inkscape-font-specification:'Morris Roman, ';letter-spacing:0px;word-spacing:0px;fill:#fe4619;fill-opacity:1;stroke:none;stroke-width:0.169674px;stroke-linecap:butt;stroke-linejoin:miter;stroke-opacity:1"
       x="197.72743"
       y="88.68206"
       id="text5367-6"><tspan
         sodipodi:role="line"
         x="197.72743"
         y="88.68206"
         style="font-style:normal;font-variant:normal;font-weight:normal;font-stretch:normal;font-size:21.7183px;line-height:0.95em;font-family:'League Gothic';-inkscape-font-specification:'League Gothic';fill:#fe4619;fill-opacity:1;stroke-width:0.169674px"
         id="tspan5369-5">Workflow Language</tspan><tspan
         sodipodi:role="line"
         x="197.72743"
         y="97.744637"
         id="tspan5371-3"
         style="stroke-width:0.169674px" /></text>
    <text
       xml:space="preserve"
       style="font-style:normal;font-variant:normal;font-weight:normal;font-stretch:normal;font-size:9.87778px;line-height:6.61458px;font-family:'League Gothic';-inkscape-font-specification:'League Gothic';letter-spacing:0px;word-spacing:0px;fill:#000000;fill-opacity:1;stroke:none;stroke-width:0.264583px;stroke-linecap:butt;stroke-linejoin:miter;stroke-opacity:1"
       x="33.337502"
       y="56.229141"
       id="text964" />
    <text
       xml:space="preserve"
       style="font-style:normal;font-variant:normal;font-weight:normal;font-stretch:normal;font-size:6.33449px;line-height:4.24184px;font-family:'Morris Roman';-inkscape-font-specification:'Morris Roman, ';letter-spacing:0px;word-spacing:0px;fill:#000000;fill-opacity:1;stroke:none;stroke-width:0.169674px;stroke-linecap:butt;stroke-linejoin:miter;stroke-opacity:1"
       x="159.45181"
       y="125.71853"
       id="text968"><tspan
         sodipodi:role="line"
         x="159.45181"
         y="125.71853"
         style="font-style:normal;font-variant:normal;font-weight:normal;font-stretch:semi-condensed;line-height:1.2em;font-family:'DejaVu Sans';-inkscape-font-specification:'DejaVu Sans Semi-Condensed';text-align:end;text-anchor:end;stroke-width:0.169674px"
         id="tspan982">© 2021 Ricardo Wurmus</tspan><tspan
         sodipodi:role="line"
         x="159.45181"
         y="131.72392"
         id="tspan988"
         style="stroke-width:0.169674px" /><tspan
         sodipodi:role="line"
         x="159.45181"
         y="137.56175"
         style="font-style:normal;font-variant:normal;font-weight:normal;font-stretch:semi-condensed;line-height:1.2em;font-family:'DejaVu Sans';-inkscape-font-specification:'DejaVu Sans Semi-Condensed';text-align:end;text-anchor:end;stroke-width:0.169674px"
         id="tspan990"> This slide set is available under the terms of the</tspan><tspan
         sodipodi:role="line"
         x="159.45181"
         y="145.16315"
         style="font-style:normal;font-variant:normal;font-weight:normal;font-stretch:semi-condensed;line-height:1.2em;font-family:'DejaVu Sans';-inkscape-font-specification:'DejaVu Sans Semi-Condensed';text-align:end;text-anchor:end;stroke-width:0.169674px"
         id="tspan992">CC-BY-SA 4.0 international license.</tspan><tspan
         sodipodi:role="line"
         x="159.45181"
         y="151.16853"
         id="tspan964"
         style="stroke-width:0.169674px" /><tspan
         sodipodi:role="line"
         x="159.45181"
         y="157.00638"
         style="font-style:normal;font-variant:normal;font-weight:normal;font-stretch:semi-condensed;line-height:1.2em;font-family:'DejaVu Sans';-inkscape-font-specification:'DejaVu Sans Semi-Condensed';text-align:end;text-anchor:end;stroke-width:0.169674px"
         id="tspan966">https://workflows.guix.info</tspan><tspan
         sodipodi:role="line"
         x="159.45181"
         y="164.60776"
         style="font-style:normal;font-variant:normal;font-weight:normal;font-stretch:semi-condensed;line-height:1.2em;font-family:'DejaVu Sans';-inkscape-font-specification:'DejaVu Sans Semi-Condensed';text-align:end;text-anchor:end;stroke-width:0.169674px"
         id="tspan968">#guix-hpc on irc.freenode.net</tspan><tspan
         sodipodi:role="line"
         x="159.45181"
         y="172.20915"
         style="font-style:normal;font-variant:normal;font-weight:normal;font-stretch:semi-condensed;line-height:1.2em;font-family:'DejaVu Sans';-inkscape-font-specification:'DejaVu Sans Semi-Condensed';text-align:end;text-anchor:end;stroke-width:0.169674px"
         id="tspan970">@GuixHPC on the bird thing</tspan></text>
    <flowRoot
       xml:space="preserve"
       id="flowRoot996"
       style="font-style:normal;font-variant:normal;font-weight:normal;font-stretch:normal;font-size:37.3333px;line-height:25px;font-family:'Morris Roman';-inkscape-font-specification:'Morris Roman, ';letter-spacing:0px;word-spacing:0px;fill:#000000;fill-opacity:1;stroke:none;stroke-width:1px;stroke-linecap:butt;stroke-linejoin:miter;stroke-opacity:1"><flowRegion
         id="flowRegion998"><rect
           id="rect1000"
           width="138"
           height="54"
           x="842"
           y="272" /></flowRegion><flowPara
         id="flowPara1002" /></flowRoot>
    <g
       id="g964"
       transform="matrix(0.30627891,0,0,0.30627891,136.76481,100.51287)">
      <g
         id="g1016"
         transform="matrix(-1,0,0,1,867.63952,11.1125)">
        <path
           style="color:#000000;clip-rule:nonzero;display:inline;overflow:visible;visibility:visible;opacity:1;isolation:auto;mix-blend-mode:normal;color-interpolation:sRGB;color-interpolation-filters:linearRGB;solid-color:#000000;solid-opacity:1;vector-effect:none;fill:#f9f9f9;fill-opacity:1;fill-rule:evenodd;stroke:none;stroke-width:0.1;stroke-linecap:round;stroke-linejoin:round;stroke-miterlimit:4;stroke-dasharray:none;stroke-dashoffset:0;stroke-opacity:1;paint-order:normal;color-rendering:auto;image-rendering:auto;shape-rendering:auto;text-rendering:auto;enable-background:accumulate"
           d="M 499.8526,315.48192 234.34882,108.31001 198.80197,107.56166 307.30894,316.23028 Z"
           id="rect1029"
           inkscape:connector-curvature="0"
           sodipodi:nodetypes="ccccc" />
        <g
           id="g1027"
           transform="matrix(0.65060947,0,0,0.65060947,155.15056,67.221368)"
           style="stroke:none">
          <path
             sodipodi:nodetypes="csccccccccccscccscccccccccccccccccccsscccccsscsccccccccccccccccsccccccccssccccccscccccsscccscccccsccccccccssccccccccscccccccscccccccscscsccsccccscccccscsssscssscscccccscsscccccsccscssscccccccccccscsccccc"
             inkscape:connector-curvature="0"
             id="path1022"
             d="m 211.58931,316.4473 c -0.3486,-0.22964 -2.74762,-4.65321 -2.74762,-5.06636 0,-0.27565 -2.18098,-5.04365 -2.673,-5.84365 -0.13425,-0.21829 -0.48807,-0.93266 -0.78627,-1.5875 -0.2982,-0.65485 -0.72149,-1.54782 -0.94065,-1.98438 -0.21915,-0.43656 -0.93694,-2.10344 -1.5951,-3.70417 -1.15053,-2.77647 -5.87738,-12.72181 -4.53392,-13.62604 0,0 0.59939,-1.80882 0.70179,-3.83646 0.83371,-1.05657 -0.18699,-4.55551 0.24452,-5.33947 4.66258,2.19107 5.74696,7.68538 0.0578,-1.75684 0,-0.87636 -0.13485,-1.30293 -0.49121,-1.55375 -0.27016,-0.19015 -0.57221,-0.60217 -0.6712,-0.91559 -0.099,-0.31342 -0.94838,-1.38499 -1.88751,-2.38125 -0.93913,-0.99626 -1.95474,-2.31191 -2.2569,-2.92365 -4.9869,-5.08451 -8.77205,-13.0618 -13.82228,-17.72179 -1.03641,-0.94217 -1.63739,-2.41524 -1.42291,-3.48766 0.0782,-0.39094 -0.0719,-4.16052 -0.33353,-8.37684 -0.26163,-4.21632 -0.42106,-7.80995 -0.35428,-7.98585 0.0668,-0.1759 -0.007,-0.71168 -0.16368,-1.19063 -0.27446,-0.83839 -0.68685,-5.70637 -0.64533,-7.61768 0.0111,-0.50932 0.10275,-1.93807 0.20374,-3.175 0.101,-1.23693 0.21641,-2.9038 0.25649,-3.70417 0.0401,-0.80036 0.21357,-1.79732 0.38555,-2.21546 0.17199,-0.41814 0.2478,-1.13251 0.16849,-1.5875 -0.0793,-0.45499 -0.0302,-2.0774 0.10918,-3.60537 0.31867,-3.49385 0.57881,-7.11055 0.64706,-8.99583 0.029,-0.80037 0.14547,-1.60378 0.25888,-1.78537 0.11342,-0.18159 0.2031,-1.01503 0.1993,-1.85208 -0.004,-0.83706 0.0191,-2.47443 0.0509,-3.6386 0.0543,-1.98961 0.0945,-2.12186 0.66856,-2.20323 0.428,-0.0607 0.53587,-0.17943 0.36049,-0.39688 -0.28111,-0.34854 -0.5987,-2.23226 -0.60407,-3.58285 -0.002,-0.54904 0.21282,-1.12161 0.55992,-1.49107 0.44504,-0.47373 0.52736,-0.7922 0.39168,-1.51539 -0.12619,-0.67269 -0.055,-1.03236 0.26825,-1.35564 1.32613,-12.68934 -2.78379,-14.6481 17.36187,-21.24195 0.22192,-0.2674 0.18982,-0.39335 -0.13171,-0.51673 -0.54953,-0.21087 -0.28682,-0.63686 0.39277,-0.63686 0.35337,0 0.49972,0.15145 0.44741,0.46302 1.07989,0.53009 6.61908,0.80024 8.25663,0.0436 0.25721,-0.15347 -0.18112,-0.21826 -1.2456,-0.18413 -1.60666,0.0515 -2.21678,-0.12318 -1.81926,-0.52091 0.10908,-0.10914 1.17072,-0.2114 2.3592,-0.22725 1.18848,-0.0158 4.00633,-0.16738 6.26191,-0.33674 2.25557,-0.16936 5.23213,-0.34891 6.61458,-0.39901 1.38245,-0.0501 3.28745,-0.15681 4.23333,-0.23714 0.94589,-0.0803 4.04152,-0.21528 6.87917,-0.29988 2.83766,-0.0846 6.11188,-0.21386 7.27604,-0.28724 1.86737,-0.1177 4.33463,-0.23805 11.1125,-0.54205 1.01865,-0.0457 3.99036,-0.15885 6.6038,-0.25146 2.61344,-0.0926 4.86319,-0.2373 4.99945,-0.32151 0.13625,-0.0842 1.56986,-0.12969 3.18579,-0.10106 1.61593,0.0286 5.25977,-0.0735 8.09742,-0.22705 14.1578,-1.21268 27.15028,-1.0936 41.14271,-0.3995 2.03729,0.0977 3.77748,0.22235 3.86709,0.2769 0.0896,0.0545 1.81601,0.16512 3.83646,0.24571 2.02044,0.0806 4.0866,0.21281 4.59145,0.2938 2.53962,0.98325 14.83295,-1.79201 15.88313,2.51982 0,0.14455 0.28678,0.64183 0.63729,1.10506 1.41433,1.86918 1.7803,4.28801 2.42926,16.05579 0.0682,1.23692 0.24185,3.06032 0.38587,4.05199 0.14402,0.99166 0.19979,1.90343 0.12395,2.02615 -0.0758,0.12272 -0.0235,1.33542 0.11628,2.69489 0.27711,2.69462 0.78792,9.31534 0.94601,12.26134 0.11783,2.19575 0.5407,7.62444 0.89653,11.50938 0.13994,1.52797 0.32314,4.25149 0.40711,6.05226 0.084,1.80078 0.20431,3.35771 0.26744,3.45985 0.0631,0.10214 0.17526,1.60534 0.24919,3.34044 0.0739,1.73511 0.26209,4.76209 0.41813,6.72662 0.65534,8.25008 0.75242,10.03124 0.66092,12.12566 -0.15424,3.5304 -0.81392,4.14168 -4.90843,4.5483 -1.51902,0.15085 -2.91067,0.32672 -3.09257,0.39081 -0.48257,0.17004 -0.40495,0.92689 0.0951,0.92689 0.23418,0 1.65625,0.53579 3.16015,1.19063 1.5039,0.65484 2.83035,1.18884 2.94765,1.18665 0.22247,-0.004 4.27559,1.71937 6.56328,2.79091 6.00467,2.81257 9.73046,4.82105 10.98021,5.91914 0.50933,0.44752 1.50225,1.31609 2.2065,1.93016 0.70424,0.61406 1.57425,1.65704 1.93335,2.31772 0.3591,0.66069 0.94846,1.69962 1.30969,2.30875 1.41815,2.39133 1.00263,5.42248 -1.14286,8.33692 -1.61355,2.19185 -2.05111,2.52078 -3.83385,2.882 l -1.51155,0.30628 0.92018,1.09198 c 2.29712,2.72603 5.44158,6.94568 5.57651,7.4833 0.0818,0.32576 0.43498,0.7799 0.78493,1.0092 0.34995,0.22929 0.63643,0.56298 0.63662,0.74153 1.9e-4,0.17854 0.46971,1.0008 1.04339,1.82724 2.19893,3.16777 2.91801,5.14652 2.91535,8.02239 -0.002,2.41963 -0.63138,4.20156 -1.63093,4.61936 -0.3346,0.13986 -3.64446,0.62205 -7.35524,1.07154 -3.71079,0.44948 -9.42579,1.17223 -12.7,1.60609 -17.21747,2.28147 -26.79507,3.49681 -42.46563,5.38864 -6.69396,0.80812 -13.0638,1.59056 -14.15521,1.73876 -1.09141,0.14819 -8.83047,1.10377 -17.19792,2.12352 -8.36744,1.01974 -18.07104,2.20552 -21.56354,2.63507 -3.4925,0.42954 -7.36203,0.89862 -8.59896,1.04239 -3.36641,0.39129 -14.89854,1.79398 -19.71146,2.39757 -13.95015,1.7495 -17.86936,2.09777 -18.55134,1.64853 z m 131.58907,-27.73862 c -0.0879,-0.0879 -0.31613,-0.0973 -0.50712,-0.0209 -0.21107,0.0845 -0.14838,0.14715 0.15985,0.15985 0.27891,0.0115 0.43518,-0.0511 0.34727,-0.13897 z m 19.71697,-2.39662 c -0.18191,-0.0734 -0.47956,-0.0734 -0.66146,0 -0.1819,0.0734 -0.0331,0.13345 0.33073,0.13345 0.3638,0 0.51263,-0.06 0.33073,-0.13345 z m 3.0868,-0.25555 c 0.26556,-0.23701 -2.00244,-0.0629 -2.3592,0.18116 -0.28184,0.19276 -0.0134,0.22011 0.92604,0.0943 0.72761,-0.0974 1.37253,-0.22139 1.43316,-0.2755 z m 1.21267,-0.0984 c 0.46891,-0.2015 0.44631,-0.22951 -0.19843,-0.24599 -0.40019,-0.0102 -0.72761,0.10047 -0.72761,0.24599 0,0.31054 0.20337,0.31054 0.92604,0 z M 225.64274,265.86495 c 0.90617,-0.18743 0.94421,-0.21995 0.26458,-0.22615 -0.43656,-0.004 -1.38906,0.0855 -2.11667,0.1988 -1.29585,0.20184 -1.30126,0.20647 -0.26458,0.22616 0.58208,0.0111 1.53458,-0.0784 2.11667,-0.19881 z m 137.52445,-1.91037 c 0.70279,-0.94374 0.46266,-1.79086 -0.93858,-3.31102 -1.60662,-1.74297 -3.88836,-3.28022 -7.18474,-4.84047 -1.5898,-0.75248 -3.31357,-1.71685 -3.8306,-2.14303 -0.58955,-0.48595 -1.2382,-0.77222 -1.73967,-0.76775 l -0.79961,0.007 0.82398,0.72048 c 0.45318,0.39627 1.15624,1.17263 1.56235,1.72525 0.42693,0.58097 0.88847,0.94717 1.09425,0.8682 0.52185,-0.20025 1.14963,0.10823 1.14963,0.5649 0,0.24408 -0.1528,0.33825 -0.39688,0.24458 -0.63524,-0.24376 -0.45956,0.31682 0.3461,1.10438 0.40864,0.39946 0.82162,0.93122 0.91774,1.18171 0.0961,0.25048 0.36983,0.45543 0.60825,0.45543 0.29357,0 0.37959,0.14045 0.2665,0.43515 -0.1122,0.29241 0.26908,0.93651 1.16232,1.96349 0.73112,0.84058 1.3293,1.65339 1.3293,1.80624 0,0.44655 1.58504,0.78919 3.41238,0.73765 1.49741,-0.0422 1.7531,-0.12899 2.21728,-0.75231 z m -4.76976,-0.27981 c -0.32742,-0.15791 -0.59531,-0.4614 -0.59531,-0.67441 0,-0.28243 0.16119,-0.33505 0.59531,-0.19433 0.32742,0.10613 1.1812,0.26885 1.89729,0.36159 0.71608,0.0927 1.35108,0.31744 1.41111,0.49934 0.13877,0.42054 -2.43999,0.42663 -3.3084,0.008 z m 2.05052,-0.83686 c 0,-0.0558 0.29766,-0.15835 0.66146,-0.22789 0.3638,-0.0695 0.66146,-0.0239 0.66146,0.10144 0,0.12535 -0.29766,0.2279 -0.66146,0.2279 -0.3638,0 -0.66146,-0.0457 -0.66146,-0.10145 z m -3.43958,-0.9725 c 0,-0.15411 0.11906,-0.20661 0.26458,-0.11668 0.14552,0.0899 0.26458,0.21603 0.26458,0.2802 0,0.0642 -0.11906,0.11668 -0.26458,0.11668 -0.14552,0 -0.26458,-0.12609 -0.26458,-0.2802 z m 1.70463,-2.21171 c -0.28225,-0.20638 -0.43399,-0.45443 -0.3372,-0.55122 0.0968,-0.0968 0.42401,0.0721 0.72718,0.37525 0.62746,0.62745 0.38009,0.73906 -0.38998,0.17597 z m -13.87547,-7.1826 c 2.55424,-0.16994 2.89645,-0.24125 2.13168,-0.44419 -0.50107,-0.13295 -1.15265,-0.41096 -1.44794,-0.61779 -0.29529,-0.20684 -0.75992,-0.37606 -1.03251,-0.37606 -0.2726,0 -0.81165,-0.16398 -1.19791,-0.36439 -0.87054,-0.4517 -3.23636,-1.02618 -3.42971,-0.83283 -0.0785,0.0785 -0.16235,0.40974 -0.18635,0.73611 -0.024,0.32637 -0.13258,1.02372 -0.24128,1.54966 l -0.19764,0.95626 1.27948,-0.20216 c 0.70371,-0.11119 2.64869,-0.29326 4.32218,-0.40461 z m -164.0119,-58.39951 c -0.21608,-0.21608 -0.29435,-0.18647 -0.29435,0.11135 0,0.52595 0.35578,0.88174 0.48727,0.48727 0.0558,-0.16735 -0.031,-0.43673 -0.19292,-0.59862 z m 0.76398,-9.83019 c 0,-0.0642 -0.11906,-0.19026 -0.26458,-0.2802 -0.14552,-0.0899 -0.26459,-0.0374 -0.26459,0.11668 0,0.15411 0.11907,0.28019 0.26459,0.28019 0.14552,0 0.26458,-0.0525 0.26458,-0.11667 z m 29.04276,-27.85369 c -0.39758,-0.0604 -1.11195,-0.0616 -1.5875,-0.003 -0.47555,0.0589 -0.15026,0.10828 0.72287,0.10977 0.87312,10e-4 1.26221,-0.0467 0.86463,-0.10707 z m 10.83767,-0.50003 c -0.0879,-0.0879 -0.31613,-0.0973 -0.50712,-0.0209 -0.21107,0.0845 -0.14837,0.14715 0.15985,0.15985 0.27892,0.0115 0.43519,-0.0511 0.34727,-0.13897 z m -24.66689,0.95354 c -0.0899,-0.14552 0.0887,-0.26459 0.39688,-0.26459 0.30822,0 0.48681,0.11907 0.39687,0.26459 -0.0899,0.14552 -0.26853,0.26458 -0.39687,0.26458 -0.12835,0 -0.30694,-0.11906 -0.39688,-0.26458 z m 3.70417,-0.79375 c 0.73535,-0.31599 1.65679,-0.31599 1.85208,0 0.10089,0.16324 -0.32382,0.25746 -1.10886,0.24598 -0.95442,-0.0139 -1.14015,-0.0754 -0.74322,-0.24598 z"
             style="fill:#d0d0d0;stroke:none;stroke-width:0.264583" />
          <path
             sodipodi:nodetypes="ccccccccccccccccccccccscssscscccsscccccscccccscssssssscssssssssssssccscsscccccsccscscscccccscccccccccccssccccccsssccccccsssccccccscsccccccccccccscccccsscscccccscccccccscccccccscscccccscscsscscccscscccssssscccsccccccccccccccacccc"
             inkscape:connector-curvature="0"
             id="path1020"
             d="m 212.11422,316.12609 c -0.44004,-0.46029 0.12523,-2.1948 0.64968,-1.99355 0.21321,0.0818 0.61199,-0.0543 0.88618,-0.3024 0.2992,-0.27077 0.99797,-0.46985 1.74767,-0.49791 -0.2148,-4.49553 111.82192,-14.68755 136.09509,-15.79554 1.25931,-0.052 2.44993,-0.21756 2.64583,-0.36802 0.19589,-0.15045 1.24914,-0.25975 2.34055,-0.24287 1.18475,0.0183 2.20115,-0.10337 2.52232,-0.30197 0.41635,-0.25745 0.76021,-0.26443 1.52126,-0.0309 0.78499,0.24092 1.61036,0.2057 4.09226,-0.17465 1.70992,-0.26204 3.28755,-0.47059 3.50583,-0.46344 0.21828,0.007 0.57547,-0.0593 0.79375,-0.14772 0.3991,-0.16163 0.97904,-0.22182 3.175,-0.32949 0.65484,-0.0321 1.44617,-0.15544 1.75851,-0.27407 0.51428,-0.19534 0.55027,-0.14981 0.38126,0.48216 -0.23341,0.87273 -0.46195,0.93091 -6.5054,1.65601 -30.30487,4.06714 -71.16921,9.11754 -109.40521,13.75515 -4.72943,0.57308 -9.96818,1.22243 -11.64167,1.443 -10.9365,-1.08485 -28.31044,2.63142 -34.56289,3.58617 z m -2.58488,-30.82822 c -3.9126,-11.83056 -5.09027,-15.69217 -4.89622,-16.05476 0.51684,-0.96573 1.74945,-1.28787 6.39606,-1.67164 8.50891,-0.70276 26.64527,-2.41421 32.34064,-3.05185 2.5387,-0.28423 11.49361,-1.17399 15.875,-1.57735 1.45521,-0.13397 5.80099,-0.54559 9.65729,-0.91471 3.85631,-0.36912 8.91646,-0.85059 11.2448,-1.06994 2.32833,-0.21935 5.36442,-0.51987 6.74687,-0.66781 1.38245,-0.14795 5.72823,-0.5656 9.65729,-0.92812 10.06532,-0.92869 14.80583,-1.3731 21.03438,-1.97192 2.98318,-0.2868 6.79318,-0.64362 8.46666,-0.79292 6.47995,-0.57813 11.63929,-1.09244 14.72755,-1.4681 6.63271,-0.80682 7.80917,-0.52223 9.86601,2.38666 3.17664,4.49257 4.67652,6.59065 7.28212,10.18646 1.52899,2.11005 3.57837,4.96755 4.55419,6.35 0.97581,1.38245 2.15666,2.98979 2.62411,3.57187 2.02449,2.52096 4.06883,5.60069 4.07088,6.13267 0.003,0.80899 -0.6136,1.33385 -1.77846,1.51353 -0.85,0.13112 -6.9045,0.86831 -24.14848,2.94029 -1.81901,0.21857 -9.6176,1.10968 -17.33021,1.98025 -14.61719,1.64993 -14.74017,1.66406 -18.38854,2.11335 -1.23693,0.15232 -8.49974,0.98641 -16.13958,1.85351 -73.72231,-2.61757 -70.40064,25.75767 -81.86236,-8.85947 z m 34.10506,-5.68975 c 0.46891,-0.2015 0.44631,-0.22951 -0.19843,-0.24599 -0.40019,-0.0102 -0.72761,0.10047 -0.72761,0.24599 0,0.31054 0.20337,0.31054 0.92604,0 z m 6.21771,-1.05833 c 0,-0.14553 -0.11906,-0.26459 -0.26458,-0.26459 -0.14552,0 -0.26458,0.11906 -0.26458,0.26459 0,0.14552 0.11906,0.26458 0.26458,0.26458 0.14552,0 0.26458,-0.11906 0.26458,-0.26458 z m -11.37708,-4.76251 c 0,-0.14552 -0.18562,-0.26458 -0.41249,-0.26458 -0.22687,0 -0.33891,0.11906 -0.24897,0.26458 0.0899,0.14553 0.27556,0.26459 0.41249,0.26459 0.13693,0 0.24897,-0.11906 0.24897,-0.26459 z m 6.61458,0 c 0,-0.14552 -0.11906,-0.26458 -0.26458,-0.26458 -0.14552,0 -0.26458,0.11906 -0.26458,0.26458 0,0.14553 0.11906,0.26459 0.26458,0.26459 0.14552,0 0.26458,-0.11906 0.26458,-0.26459 z m 20.37292,-1.5875 c 0,-0.14552 -0.11906,-0.26458 -0.26458,-0.26458 -0.14552,0 -0.26459,0.11906 -0.26459,0.26458 0,0.14553 0.11907,0.26459 0.26459,0.26459 0.14552,0 0.26458,-0.11906 0.26458,-0.26459 z m 108.66639,20.86408 c -0.25461,-0.1425 -0.39387,-0.37082 -0.30946,-0.5074 0.24334,-0.39374 1.18057,-0.28821 1.18057,0.13294 0,0.53602 -0.3294,0.67761 -0.87111,0.37446 z m -13.87941,-24.53515 c -1.34607,-1.75443 -2.44739,-3.30531 -2.44739,-3.44638 0,-0.15783 0.90619,-0.19779 2.35576,-0.10387 2.27842,0.14761 2.37832,0.13007 3.04271,-0.53433 0.97192,-0.97192 0.8915,-1.94909 -0.28466,-3.45874 -1.67473,-2.14959 -4.10221,-3.75894 -9.3962,-6.22941 -0.68182,-0.31817 -1.68046,-0.92879 -2.21919,-1.35692 -0.53874,-0.42813 -1.2722,-0.77842 -1.62992,-0.77842 -0.35772,0 -0.96643,-0.16209 -1.35268,-0.36019 -0.38626,-0.19811 -1.08924,-0.49577 -1.56218,-0.66146 -0.47294,-0.1657 -1.24685,-0.43629 -1.71979,-0.60132 -0.47294,-0.16503 -1.091,-0.41836 -1.37345,-0.56297 -0.49085,-0.25129 -3.67447,-0.98906 -4.268,-0.98906 -0.29664,0 -0.97071,3.65158 -0.7423,4.02117 0.0721,0.11669 0.65285,0.21216 1.29052,0.21216 0.63767,0 1.23298,0.11906 1.32292,0.26458 0.19422,0.31426 0.0798,0.32623 -3.83646,0.40143 -1.67349,0.0321 -3.63802,0.12551 -4.36563,0.20748 -2.36608,0.26657 -6.56084,0.73094 -8.99583,0.99586 -1.30969,0.14248 -3.27422,0.37006 -4.36563,0.50571 -3.11092,0.38666 -7.72173,0.79994 -8.92465,0.79994 -0.60228,0 -1.37401,0.10605 -1.71494,0.23568 -0.34093,0.12962 -1.56907,0.31032 -2.7292,0.40155 -4.08454,0.32121 -7.94853,0.71013 -9.64996,0.97129 -0.94588,0.1452 -2.96994,0.32377 -4.49791,0.39683 -1.52797,0.0731 -3.4925,0.26308 -4.36563,0.42225 -2.00101,0.36479 -3.01093,0.45886 -9.26041,0.8626 -1.16417,0.0752 -2.65245,0.25325 -3.3073,0.39564 -0.65484,0.14239 -3.09562,0.39278 -5.42396,0.55643 -2.32833,0.16364 -4.65736,0.40571 -5.17562,0.53793 -0.51826,0.13223 -2.48279,0.31452 -4.36562,0.40509 -1.88284,0.0906 -3.50589,0.21396 -3.60679,0.27418 -0.1009,0.0602 -1.11293,0.17061 -2.24896,0.24531 -1.13603,0.0747 -2.69112,0.24649 -3.45576,0.38176 -0.76464,0.13527 -1.56379,0.17934 -1.77589,0.098 -0.2121,-0.0814 -1.67008,-0.004 -3.23995,0.17157 -1.56988,0.17576 -3.98542,0.37284 -5.36786,0.43796 -1.38245,0.0651 -3.16839,0.1561 -3.96875,0.20218 -0.80037,0.0461 -6.01689,0.16597 -11.59228,0.26643 -7.1608,0.12904 -10.23883,0.0982 -10.48366,-0.10496 -0.37029,-0.30732 -1.2074,-0.11391 -1.2074,0.27896 0,0.12995 -0.17859,0.23628 -0.39687,0.23628 -0.25315,0 -0.39688,-0.25446 -0.39688,-0.70261 v -0.70262 l -0.60374,0.70262 c -0.76992,0.89601 -1.33476,0.88902 -2.02001,-0.025 -0.94185,-1.25628 -1.1053,-1.40491 -1.3671,-1.24311 -0.15704,0.097 -0.19162,-0.23856 -0.09,-0.87379 0.15283,-0.95573 0.078,-1.12209 -1.02035,-2.26843 -0.65191,-0.68037 -1.37816,-1.23705 -1.6139,-1.23705 -0.23573,0 -0.42861,-0.11906 -0.42861,-0.26459 0,-0.14552 -0.17184,-0.26458 -0.38187,-0.26458 -0.84216,0 -1.61837,-2.09493 -0.93313,-2.51843 0.14987,-0.0926 0.79615,0.13847 1.43617,0.51355 1.38196,0.80988 2.06687,0.85295 3.01299,0.18945 0.38626,-0.27088 1.17855,-0.5784 1.76063,-0.68337 1.30203,-0.24706 -1.57422,-2.91151 -0.70585,-3.91264 8.57604,-1.48889 24.53431,-2.98353 33.3819,-4.16985 1.0914,-0.14659 3.23453,-0.38871 4.7625,-0.53805 1.52796,-0.14934 3.3139,-0.38322 3.96875,-0.51975 0.65484,-0.13652 2.79796,-0.38069 4.7625,-0.5426 1.96453,-0.16191 4.10765,-0.40217 4.7625,-0.53392 0.65484,-0.13174 2.01528,-0.30713 3.0232,-0.38975 1.00792,-0.0826 1.91247,-0.1996 2.01011,-0.25995 0.0976,-0.0603 1.23751,-0.17955 2.53304,-0.2649 1.29554,-0.0853 2.8913,-0.26718 3.54615,-0.40408 0.65484,-0.13689 1.60734,-0.24599 2.11666,-0.24243 12.09257,-1.29793 26.15993,-2.68405 37.17396,-3.99155 1.16417,-0.13838 2.89058,-0.30808 3.83646,-0.37712 1.72099,-0.1256 4.57674,-0.39897 5.82083,-0.55721 7.70805,-0.78241 16.43513,-1.49408 24.20938,-2.61939 1.78229,-0.26082 2.43015,-0.27215 2.57564,-0.045 0,0 -6.86285,-0.20858 -7.68644,6.58728 -0.0689,0.59842 0.0195,0.72761 0.49771,0.72761 0.31978,0 1.66715,0.47121 2.99413,1.04715 1.32699,0.57593 2.88896,1.21731 3.47104,1.4253 1.84385,0.65881 5.34204,2.17562 5.99023,2.59735 0.3434,0.22341 1.10061,0.55777 1.68269,0.743 0.58208,0.18524 1.41552,0.5479 1.85208,0.80592 0.43657,0.25802 2.10344,1.15276 3.70417,1.98831 1.60073,0.83555 3.40151,1.94946 4.00174,2.47535 0.60023,0.52589 1.55273,1.32871 2.11667,1.78404 0.56394,0.45534 1.323,1.40784 1.6868,2.11667 0.3638,0.70883 0.92066,1.61501 1.23746,2.01374 0.31681,0.39873 0.71621,1.40029 0.88756,2.2257 0.44069,2.12282 -0.14196,4.15596 -1.86247,6.499 -1.49361,2.03403 -2.399,2.5956 -4.47264,2.77414 l -1.47845,0.12729 z m -148.76198,-5.45703 c -0.18116,-0.21828 -0.58269,-0.39309 -0.89229,-0.38846 -0.55188,0.008 -0.55285,0.016 -0.0493,0.39687 0.7131,0.53936 1.3912,0.53331 0.94162,-0.008 z m 130.50696,-9.28369 c 0.12467,-0.12467 4.78454,-0.87765 5.55502,-0.89763 0.10914,-0.003 0.19844,0.11259 0.19844,0.25648 0,0.14389 -0.26789,0.24927 -0.59531,0.23418 -0.32743,-0.0151 -1.42875,0.10294 -2.4474,0.2623 -2.09227,0.32733 -2.93858,0.37249 -2.71075,0.14467 z m -23.49705,-31.08805 c -0.0977,-0.15802 -0.24071,-1.52447 -0.31788,-3.03655 -0.11244,-2.20307 -0.0671,-2.77592 0.2281,-2.88356 0.20263,-0.0739 1.43998,-0.26048 2.74966,-0.41469 1.30969,-0.1542 4.34578,-0.51186 6.74688,-0.7948 11.04328,-1.30131 12.21749,-1.40236 12.42343,-1.06915 0.30318,0.49056 0.55886,5.66377 0.29306,5.92957 -0.12831,0.12831 -2.11928,0.45203 -4.42437,0.71938 -7.7291,0.89641 -11.3231,1.33134 -13.05462,1.57983 -2.32335,0.33342 -4.42804,0.31981 -4.64426,-0.03 z m 3.9828,-1.82935 c 0.0899,-0.14552 -0.0291,-0.26459 -0.26458,-0.26459 -0.23546,0 -0.35452,0.11907 -0.26459,0.26459 0.0899,0.14552 0.209,0.26458 0.26459,0.26458 0.0556,0 0.17464,-0.11906 0.26458,-0.26458 z m 1.68754,-0.23906 c 0.41464,-0.26263 0.1783,-0.81928 -0.34784,-0.81928 -0.19188,0 -0.48147,0.15978 -0.64355,0.35508 -0.49971,0.60211 0.23243,0.94492 0.99139,0.4642 z m 3.55962,-0.29416 c 1.10891,-0.008 1.65437,-0.73324 0.66406,-0.88314 -0.19523,-0.0296 -0.5038,-0.14671 -0.6857,-0.26035 -0.18645,-0.11647 -0.33073,-0.0844 -0.33073,0.0736 0,0.15411 -0.14883,0.28202 -0.33073,0.28425 -0.57148,0.007 -1.06814,0.45275 -0.86703,0.77816 0.10613,0.17171 0.36924,0.24455 0.58471,0.16187 0.21546,-0.0827 0.6499,-0.15215 0.96542,-0.15438 z m 2.29347,-0.52512 c 0,-0.14552 -0.11907,-0.26458 -0.26459,-0.26458 -0.14552,0 -0.26458,0.11906 -0.26458,0.26458 0,0.14552 0.11906,0.26459 0.26458,0.26459 0.14552,0 0.26459,-0.11907 0.26459,-0.26459 z m 1.68671,-0.21107 c 0.0718,-0.11609 0.0283,-0.37632 -0.0965,-0.5783 -0.18769,-0.30369 -0.29911,-0.30735 -0.644,-0.0211 -0.22937,0.19036 -0.41704,0.4506 -0.41704,0.5783 0,0.29007 0.98028,0.30796 1.15755,0.0211 z m -6.39456,-1.11764 c 0.39386,-0.11839 0.96485,-0.15021 1.26887,-0.0707 0.35237,0.0922 0.67765,-0.0262 0.89727,-0.32661 0.32901,-0.44994 0.36718,-0.44838 0.8478,0.0345 0.48527,0.48758 0.53605,0.48902 1.41921,0.0402 0.50376,-0.256 1.11474,-0.40236 1.35773,-0.32523 0.55237,0.17531 0.85989,-0.52911 0.39825,-0.91224 -0.18664,-0.1549 -0.41415,-0.20684 -0.50557,-0.11541 -0.0914,0.0914 -0.55672,0.20337 -1.03399,0.24878 -1.44207,0.1372 -3.4443,0.35586 -4.70423,0.51375 -0.65484,0.0821 -1.62386,0.18807 -2.15337,0.23557 -1.19231,0.10698 -1.69246,0.38275 -1.33767,0.73754 0.16926,0.16925 0.44312,0.16082 0.78902,-0.0243 0.40831,-0.21853 0.60655,-0.19105 0.86455,0.11982 0.18987,0.22878 0.5168,0.32896 0.75538,0.23147 0.23135,-0.0945 0.74289,-0.26876 1.13675,-0.38716 z"
             style="fill:#9b9b9b;stroke:none;stroke-width:0.264583" />
          <path
             sodipodi:nodetypes="csssccccccccccccscccccccscccssccsscccsscccsscsssscscccsssscscccsccccsccccccscccsccsccssssssccccccscccscssscscccsscsscccsccsccccccccccccccsccccccccccccccccccccccccssssscsccccccccsscscscscssssscsccscccsssssscccccsccsssscsccsssscssccscccscscccscscscssscscscsscsccsccccccccssccccscccccccccscscssssssccscsscscsccccssccssccccccsssssccscccccccccccssscsssscscsccsscscccccssssscscccccsccssscscccccccccsccsscssssccsccsccccsccscccccssscsccccccsscccccccccscccccscccccccccsscsccscssscssccscscsscsssscssscsccssssscccccccsccccccscccssscssccssssssssssssssscccccccccccsssscccccccscccccccsccccscccssscsccsccsscsssscssccccccccccccsccscssccscccccssscsssssssssscscscccccccccccccscccccccccccccccccccscsssssscscscccccccsccccsccccscccsscsscsscsccccsccccsccssscssssscscccccccsscssccsccsccscssccscscccccccccsccccccscccccscccccssssccssccccscccsscscccccccsscscscscscccccccccccsscsccccsccccssscscsccccccccsccccccccccccsccccsscccscacccs"
             inkscape:connector-curvature="0"
             id="path1018"
             d="m 218.36669,315.1713 c 1.09141,-0.1996 5.37766,-0.78142 9.52501,-1.29294 4.14734,-0.51152 8.79078,-1.10708 10.31875,-1.32347 1.52796,-0.21639 4.38546,-0.5789 6.35,-0.80558 1.96453,-0.22668 5.59593,-0.64495 8.06979,-0.92948 5.01426,-0.57672 10.0995,-1.18747 13.09687,-1.57297 2.19494,-0.28229 4.69512,-0.5818 10.05417,-1.20445 4.55177,-0.52885 10.97015,-1.32459 15.875,-1.96815 2.11005,-0.27686 4.6699,-0.5747 5.68854,-0.66186 1.01865,-0.0872 3.10224,-0.32717 4.63021,-0.53335 1.52797,-0.20619 4.86172,-0.62034 7.40833,-0.92033 2.54662,-0.3 5.01498,-0.59549 5.48526,-0.65665 0.47028,-0.0611 0.91296,-0.0175 0.98375,0.097 0.13653,0.22091 -2.58373,0.6525 -6.73359,1.06836 -1.38245,0.13854 -2.75167,0.30302 -3.04271,0.36551 -0.29104,0.0625 -1.42213,0.19517 -2.51354,0.29483 -1.09141,0.0997 -3.47266,0.40554 -5.29167,0.67973 -1.81901,0.27419 -5.92666,0.80482 -9.12812,1.1792 -9.38725,1.09772 -14.3664,1.71097 -17.33021,2.13445 -1.52797,0.21832 -3.84969,0.5034 -5.15938,0.63352 -1.30968,0.13011 -3.75046,0.41891 -5.42395,0.64175 -4.59702,0.61216 -19.86538,2.45855 -25.4,3.07162 -2.69214,0.2982 -5.78777,0.65705 -6.87917,0.79745 -1.09141,0.14039 -3.29406,0.38414 -4.89479,0.54165 -1.60073,0.15752 -3.74386,0.39474 -4.7625,0.52716 -2.69659,0.35055 -3.22536,0.25745 -0.92605,-0.16305 z m 98.35886,-11.92591 c 0.1819,-0.0734 0.47956,-0.0734 0.66146,0 0.1819,0.0734 0.0331,0.13345 -0.33073,0.13345 -0.3638,0 -0.51263,-0.0601 -0.33073,-0.13345 z m 2.11667,-0.26458 c 0.1819,-0.0734 0.47956,-0.0734 0.66146,0 0.1819,0.0734 0.0331,0.13345 -0.33073,0.13345 -0.3638,0 -0.51263,-0.06 -0.33073,-0.13345 z m -102.53735,-1.32453 c -0.47917,-0.23616 -0.98009,-0.63282 -1.11316,-0.88147 -0.13308,-0.24865 -1.27565,-3.59483 -2.53905,-7.43596 -1.2634,-3.84112 -3.53147,-10.73083 -5.04016,-15.31046 l -2.74307,-8.3266 0.63236,-0.63237 c 0.73402,-0.73402 0.53142,-0.70654 14.05553,-1.90613 7.97337,-0.70723 22.85867,-2.13521 34.39583,-3.29965 2.18282,-0.22031 7.83829,-0.76046 12.56771,-1.20032 10.2116,-0.94974 15.06033,-1.41008 20.7698,-1.97188 2.32833,-0.22911 7.9838,-0.76807 12.5677,-1.19769 4.58391,-0.42962 11.48954,-1.08213 15.34584,-1.45002 3.8563,-0.36789 9.51177,-0.90244 12.56771,-1.18789 3.05593,-0.28545 8.50246,-0.83577 12.10338,-1.22293 6.28551,-0.6758 6.59415,-0.68598 7.72365,-0.25462 1.08404,0.414 1.53425,0.94195 5.72814,6.71718 2.5034,3.44732 5.52425,7.57754 6.71301,9.17827 2.15198,2.89777 4.07555,5.53168 7.21847,9.88414 0.90817,1.25768 1.65232,2.42702 1.65364,2.59853 0.002,0.30227 -0.70031,1.14338 -0.95518,1.14338 -0.35354,0 -8.53447,0.95993 -17.96011,2.1074 -5.82084,0.70862 -13.38131,1.60177 -16.80104,1.98477 -6.79644,0.76118 -10.87328,1.23198 -22.88646,2.643 -4.36563,0.51277 -10.0211,1.16622 -12.56771,1.45211 -7.62646,0.85615 -16.07484,1.82565 -24.34167,2.79332 -28.31768,3.31474 -54.21827,6.21961 -55.3815,6.21129 -0.46335,-0.003 -1.2345,-0.19925 -1.71366,-0.4354 z m 43.07224,-6.56073 c 0,-0.38552 -0.76743,-0.93535 -1.30552,-0.93535 -0.37952,0 -0.3579,0.612 0.0355,1.00542 0.4428,0.4428 1.27,0.39716 1.27,-0.0701 z m -28.18392,-3.68519 c -0.59218,-0.90378 -0.92024,-0.87362 -0.92024,0.0846 0,0.52071 0.15166,0.80907 0.46302,0.88035 0.75202,0.17217 0.94099,-0.22664 0.45722,-0.96496 z m -7.34209,-1.21891 c -0.0357,-0.21828 -0.36605,-0.4321 -0.73404,-0.47516 -0.55387,-0.0648 -0.74708,0.0985 -1.12221,0.9488 -0.24924,0.5649 -0.45316,1.10156 -0.45316,1.19259 0,0.091 0.53424,-0.15735 1.18719,-0.55193 0.67839,-0.40996 1.15934,-0.88751 1.12222,-1.1143 z m 1.89634,0.28724 c 0.5517,-0.34934 0.13887,-1.08099 -0.60995,-1.08099 -0.86311,0 -1.15468,0.51886 -0.54294,0.96618 0.57031,0.41702 0.66129,0.42608 1.15289,0.11481 z m 10.98545,-1.61427 c 0.57976,-0.57976 -0.25043,-0.78053 -1.97002,-0.47641 -1.85148,0.32744 -2.45025,0.63507 -1.8991,0.9757 0.4167,0.25753 3.51169,-0.14186 3.86912,-0.49929 z m 7.03381,-0.12818 c 0,-0.21828 -0.11907,-0.39687 -0.26459,-0.39687 -0.14552,0 -0.26458,0.17859 -0.26458,0.39687 0,0.21829 0.11906,0.39688 0.26458,0.39688 0.14552,0 0.26459,-0.17859 0.26459,-0.39688 z m 2.06781,-0.99298 c 0.11748,-0.61947 -0.61973,-0.86878 -1.45015,-0.49041 -0.56365,0.25681 -0.6177,0.3708 -0.3365,0.70961 0.44149,0.53198 1.67284,0.38091 1.78665,-0.2192 z m -24.66418,-0.33173 c 0.30098,-0.45936 0.64854,-0.64931 1.13057,-0.6179 1.13035,0.0737 2.41579,-0.31613 2.41579,-0.73255 0,-0.57054 -0.6328,-0.71321 -2.26109,-0.50977 -1.73078,0.21625 -2.92589,1.20115 -2.47647,2.0409 0.35093,0.65571 0.67542,0.6065 1.1912,-0.18068 z m 6.72137,-0.0138 c 0,-0.22687 -0.11907,-0.3389 -0.26459,-0.24897 -0.14552,0.0899 -0.26458,0.27556 -0.26458,0.41249 0,0.13694 0.11906,0.24897 0.26458,0.24897 0.14552,0 0.26459,-0.18562 0.26459,-0.41249 z m 24.83614,-0.20716 c 0.38594,-0.46504 0.11916,-0.70326 -0.78754,-0.70326 -0.77445,0 -1.17125,0.35091 -0.89756,0.79375 0.23716,0.38373 1.3407,0.32447 1.6851,-0.0905 z m 4.79719,0.0905 c 0,-0.14553 -0.12609,-0.26459 -0.2802,-0.26459 -0.15411,0 -0.20661,0.11906 -0.11668,0.26459 0.0899,0.14552 0.21603,0.26458 0.2802,0.26458 0.0642,0 0.11668,-0.11906 0.11668,-0.26458 z m -26.50608,-1.12448 c -0.0772,-0.54335 -0.21816,-0.59258 -1.61515,-0.56402 -1.67899,0.0343 -1.91932,0.14142 -1.68539,0.75104 0.11752,0.30626 0.56006,0.40829 1.77088,0.40829 1.52266,0 1.60941,-0.0338 1.52966,-0.59531 z m 28.62275,0.32667 c 0.35277,-0.23158 0.35277,-0.28948 0,-0.52106 -0.51767,-0.33983 -1.77527,-0.34239 -1.98438,-0.004 -0.43338,0.70123 1.09855,1.10662 1.98438,0.52512 z m 4.61624,-0.28313 c -0.0852,-0.13784 -0.26767,-0.18091 -0.40551,-0.0957 -0.13784,0.0852 -0.18092,0.26766 -0.0957,0.4055 0.0852,0.13784 0.26766,0.18092 0.4055,0.0957 0.13784,-0.0852 0.18092,-0.26767 0.0957,-0.40551 z m 1.94889,-0.83729 c 0.0998,-0.52367 -0.85301,-0.64409 -1.53805,-0.19439 -0.35278,0.23158 -0.35278,0.2901 0,0.52663 0.57892,0.38816 1.43604,0.20301 1.53805,-0.33224 z m 6.86247,-0.19483 c 0.1819,-0.002 0.33073,-0.16947 0.33073,-0.37218 0,-0.6915 -1.5726,-0.94845 -2.07797,-0.33951 -0.39873,0.48044 0.18628,1.04572 0.88734,0.85743 0.29105,-0.0782 0.678,-0.14375 0.8599,-0.14574 z m -27.5167,-0.68715 c -0.25214,-0.25214 -0.75764,0.15626 -0.56973,0.46029 0.11168,0.18071 0.25968,0.17615 0.4497,-0.0139 0.15577,-0.15578 0.20979,-0.35667 0.12003,-0.44643 z m -4.17079,0.0265 c 0.27023,-0.3256 0.20519,-0.43832 -0.38171,-0.66145 -1.02092,-0.38816 -1.72403,-0.33126 -1.91047,0.15461 -0.32191,0.83888 1.654,1.2758 2.29218,0.50684 z m 44.32135,-0.80419 c 1.47134,-0.31592 1.54368,-0.36228 1.20403,-0.77153 -0.54834,-0.66071 -2.93365,-0.0128 -2.50518,0.68053 0.0655,0.10603 -0.002,0.26757 -0.14975,0.35898 -0.14789,0.0914 -0.26625,0.36752 -0.26301,0.61359 0.005,0.37077 0.0842,0.34818 0.46302,-0.13186 0.25142,-0.3186 0.81432,-0.65597 1.25089,-0.74971 z m -5.55847,0.37133 c 0.59006,-0.57351 -1.39871,-1.03972 -2.21915,-0.52021 -0.21579,0.13663 -0.29711,0.42192 -0.19565,0.68632 0.1399,0.36457 0.36592,0.41718 1.16304,0.2707 0.54416,-0.1 1.10746,-0.29655 1.25176,-0.43681 z m -27.91133,0.0316 c 0,-0.14553 -0.11906,-0.26459 -0.26458,-0.26459 -0.14552,0 -0.26458,0.11906 -0.26458,0.26459 0,0.14552 0.11906,0.26458 0.26458,0.26458 0.14552,0 0.26458,-0.11906 0.26458,-0.26458 z m -27.71534,-2.04779 c -0.51991,-0.40204 -0.48343,-0.45354 -0.70072,0.98945 l -0.17929,1.19063 0.65209,-0.92604 c 0.58848,-0.83571 0.61071,-0.95804 0.22792,-1.25404 z m 23.59266,1.88719 c 0.59944,-0.23003 0.51795,-0.50291 -0.25539,-0.85527 -1.37406,-0.62606 -2.6618,-0.21225 -1.96231,0.63058 0.32782,0.395 1.47183,0.5109 2.2177,0.22469 z m 43.22038,-0.31896 c 0.0576,-0.17281 -0.0838,-0.31419 -0.31419,-0.31419 -0.23041,0 -0.41892,0.18851 -0.41892,0.41892 0,0.46723 0.56958,0.38586 0.73311,-0.10473 z m -32.21853,-0.44649 c 0,-0.2324 0.2467,-0.40076 0.59531,-0.40625 0.32742,-0.005 0.88697,-0.17089 1.24344,-0.3683 0.35647,-0.19741 0.80296,-0.29952 0.99219,-0.2269 0.18923,0.0726 0.34406,0.008 0.34406,-0.14465 0,-0.32463 -2.19149,-0.70312 -2.77488,-0.47926 -0.22006,0.0845 -0.40012,0.39541 -0.40012,0.69102 0,0.29561 -0.11906,0.53747 -0.26458,0.53747 -0.14552,0 -0.26459,0.17859 -0.26459,0.39687 0,0.21828 0.11907,0.39688 0.26459,0.39688 0.14552,0 0.26458,-0.1786 0.26458,-0.39688 z m -4.65185,-0.0283 c 0.23019,-0.0883 0.41852,-0.31372 0.41852,-0.50086 0,-0.63193 -2.16386,-0.96267 -2.52071,-0.38529 -0.43926,0.71074 0.98965,1.31307 2.10219,0.88615 z m 43.5456,-0.24283 c 0,-0.22188 0.30734,-0.52027 0.68296,-0.66308 0.37564,-0.14282 0.63366,-0.40776 0.57339,-0.58877 -0.17449,-0.52407 -0.98595,-0.54867 -1.54062,-0.0467 -0.61041,0.55241 -0.68646,1.70198 -0.1126,1.70198 0.21828,0 0.39687,-0.18155 0.39687,-0.40343 z m 14.2875,0.0935 c 0,-0.54652 -0.85617,-1.2776 -1.49621,-1.2776 -0.81003,0 -0.78318,0.24376 0.10715,0.97273 0.80078,0.65565 1.38906,0.78476 1.38906,0.30487 z m -46.65051,-0.53346 c -0.0845,-0.21107 -0.14716,-0.14838 -0.15985,0.15985 -0.0115,0.27891 0.051,0.43518 0.13896,0.34726 0.0879,-0.0879 0.0973,-0.31612 0.0209,-0.50711 z m 27.20364,0.0428 c 0,-0.58872 -1.55479,-0.52232 -1.66911,0.0713 -0.0721,0.37454 0.0765,0.44794 0.79013,0.39007 0.56588,-0.0459 0.87898,-0.21023 0.87898,-0.46135 z m 11.50937,-0.4057 c 0,-0.53833 0.12953,-0.64584 0.77814,-0.64584 0.98462,0 1.25807,-0.41201 0.53151,-0.80085 -0.65513,-0.35061 -1.30965,-0.16702 -1.30965,0.36737 0,0.20727 -0.17859,0.4454 -0.39687,0.52916 -0.39831,0.15285 -0.54429,0.99164 -0.22768,1.30824 0.29989,0.29989 0.62455,-0.0942 0.62455,-0.75808 z m -32.01458,-0.13229 c 0,-0.13693 -0.11907,-0.24896 -0.26459,-0.24896 -0.14552,0 -0.26458,0.18562 -0.26458,0.41249 0,0.22687 0.11906,0.3389 0.26458,0.24896 0.14552,-0.0899 0.26459,-0.27555 0.26459,-0.41249 z m -4.10105,-0.64135 c 0,-0.68117 -1.90672,-1.08519 -2.48712,-0.527 -0.31472,0.30268 -0.23511,0.41604 0.52917,0.75354 1.196,0.52814 1.95795,0.43998 1.95795,-0.22654 z m 45.10215,0.02 c 0.15786,-0.41523 0.524,-0.69154 1.05178,-0.79375 0.44529,-0.0862 1.16681,-0.22579 1.60337,-0.31012 0.43656,-0.0843 0.79375,-0.27663 0.79375,-0.42736 0,-0.17881 -0.52868,-0.20936 -1.52136,-0.0879 -1.62276,0.19854 -2.71198,0.91065 -2.71198,1.77305 0,0.69348 0.49952,0.59547 0.78444,-0.1539 z m -83.91135,-0.22296 c -0.0748,-0.52671 -0.23699,-0.59531 -1.40746,-0.59531 -1.17048,0 -1.33266,0.0686 -1.40747,0.59531 -0.0791,0.55698 0.0115,0.59532 1.40747,0.59532 1.39593,0 1.48656,-0.0383 1.40746,-0.59532 z m 49.78941,0.0441 c 0,-0.6448 -0.61827,-0.55366 -0.747,0.11012 -0.0506,0.26108 0.0843,0.4411 0.33073,0.4411 0.24543,0 0.41627,-0.22622 0.41627,-0.55122 z m -3.78213,-0.34096 c 0.38856,-0.38856 -0.54887,-0.82411 -1.67955,-0.78035 -1.37574,0.0532 -1.54895,0.15456 -1.31343,0.76831 0.13678,0.35644 0.42461,0.417 1.49371,0.31427 0.72836,-0.07 1.40303,-0.20599 1.49927,-0.30223 z m 10.34997,-0.25423 c 0.0506,-0.26108 -0.0843,-0.44109 -0.33073,-0.44109 -0.24543,0 -0.41627,0.22621 -0.41627,0.55121 0,0.6448 0.61827,0.55366 0.747,-0.11012 z m -47.89064,-0.37452 c 0.15158,-1.0672 -2.29669,-1.49806 -2.6899,-0.47339 -0.25054,0.65291 0.58661,1.23696 1.64613,1.14843 0.76328,-0.0638 0.97654,-0.20171 1.04377,-0.67504 z m 11.04785,-0.26722 c -0.26874,-0.26874 -0.75534,0.39596 -0.54226,0.74073 0.14589,0.23605 0.26588,0.2017 0.451,-0.12908 0.13872,-0.24788 0.17979,-0.52312 0.0913,-0.61165 z m 74.71821,0.35069 c 0.17899,-0.47078 0.47871,-0.66624 1.11576,-0.7276 0.57712,-0.0556 0.90062,-0.24014 0.95874,-0.54692 0.0717,-0.37868 -0.10587,-0.46302 -0.97502,-0.46302 -1.17153,0 -1.88649,0.67408 -1.88649,1.77866 0,0.79564 0.47837,0.77065 0.78701,-0.0411 z m -41.70943,-0.005 c 0.46709,-0.35398 0.4653,-0.37793 -0.0488,-0.65304 -0.29349,-0.15708 -0.70159,-0.28559 -0.90688,-0.28559 -0.46517,0 -1.31342,0.90574 -1.07322,1.14595 0.30255,0.30254 1.52026,0.17811 2.02885,-0.20733 z m -37.40478,-0.26447 c 0.17536,-0.2113 0.24345,-0.62169 0.15132,-0.91199 -0.1481,-0.46662 -0.32702,-0.50981 -1.54322,-0.3725 -0.75663,0.0854 -1.42577,0.19863 -1.48698,0.25158 -0.0612,0.0529 0.16791,0.39345 0.50914,0.75667 0.69464,0.73941 1.87149,0.87659 2.36974,0.27624 z m 47.76783,-0.145 c 0,-0.19403 -0.14883,-0.40238 -0.33073,-0.46302 -0.19674,-0.0656 -0.33073,0.122 -0.33073,0.46302 0,0.34102 0.13399,0.5286 0.33073,0.46302 0.1819,-0.0606 0.33073,-0.26899 0.33073,-0.46302 z m 6.21771,-0.66146 c 0,-0.3638 -0.11907,-0.66145 -0.26459,-0.66145 -0.14552,0 -0.26458,0.29765 -0.26458,0.66145 0,0.36381 0.11906,0.66146 0.26458,0.66146 0.14552,0 0.26459,-0.29765 0.26459,-0.66146 z m 42.18246,0.21761 c 0.0963,-0.2511 -0.006,-0.62042 -0.23628,-0.85044 -0.36574,-0.36574 -0.4066,-0.32115 -0.4066,0.44384 0,0.90908 0.36216,1.13813 0.64288,0.4066 z m -89.62827,-0.10576 c 0.20365,-0.20365 0.10201,-0.46805 -0.35598,-0.92604 -0.71964,-0.71964 -1.2082,-0.80695 -1.63537,-0.29225 -0.70106,0.84472 1.20116,2.00848 1.99135,1.21829 z m 37.21125,0.11264 c 0.24255,-0.24255 -1.07816,-0.88594 -1.81861,-0.88594 -0.67039,0 -1.03814,0.37465 -0.77912,0.79375 0.18004,0.29131 2.32257,0.36735 2.59773,0.0922 z m 17.06515,-0.9725 c 0.0593,-0.50119 -0.037,-0.70719 -0.33073,-0.70719 -0.2866,0 -0.41445,0.25165 -0.41445,0.81579 0,1.01229 0.62324,0.92146 0.74518,-0.1086 z m -82.78461,0.0204 c 0.0102,0.1819 0.18445,0.33073 0.38717,0.33073 0.68257,0 0.63408,-0.67304 -0.10148,-1.4086 l -0.73032,-0.73032 -0.1336,0.69892 c -0.0735,0.3844 -0.0683,0.94858 0.0115,1.25372 0.14043,0.53702 0.15155,0.53829 0.34662,0.0398 0.11085,-0.28325 0.20991,-0.36617 0.22013,-0.18427 z m 39.7061,0.19844 c 0,-0.21828 -0.11906,-0.39688 -0.26458,-0.39688 -0.14552,0 -0.26459,0.1786 -0.26459,0.39688 0,0.21828 0.11907,0.39687 0.26459,0.39687 0.14552,0 0.26458,-0.17859 0.26458,-0.39687 z m 31.97668,0.16131 c 0.44852,-0.28419 0.17542,-0.45877 -1.08859,-0.69591 -0.79287,-0.14874 -0.99017,-0.10519 -0.99017,0.21852 0,0.64266 1.33433,0.94909 2.07876,0.47739 z m -36.48396,-0.46949 c 0.29406,-0.27287 -0.50468,-1.02229 -1.17403,-1.10157 -0.92915,-0.11004 -1.20608,0.18569 -0.90632,0.9679 0.20401,0.53238 0.35365,0.59133 1.09683,0.43211 0.47333,-0.1014 0.91591,-0.2357 0.98352,-0.29844 z m 54.24895,-0.76833 c 0,-0.40963 -0.65974,-0.95369 -0.88424,-0.72918 -0.23447,0.23446 -0.22194,1.53735 0.0171,1.77638 0.21663,0.21663 0.86716,-0.56896 0.86716,-1.0472 z m -43.12709,0.39943 c 0,-0.13693 -0.11906,-0.24896 -0.26458,-0.24896 -0.14552,0 -0.26458,0.18562 -0.26458,0.41249 0,0.22687 0.11906,0.3389 0.26458,0.24896 0.14552,-0.0899 0.26458,-0.27555 0.26458,-0.41249 z m 84.13751,-0.39687 c 0,-0.35522 -0.11907,-0.64584 -0.26459,-0.64584 -0.14552,0 -0.26458,0.36421 -0.26458,0.80936 0,0.4722 0.11022,0.74125 0.26458,0.64584 0.14552,-0.0899 0.26459,-0.45415 0.26459,-0.80936 z m -52.2664,0.43059 c 0.17078,-0.27633 -0.84796,-1.07643 -1.3706,-1.07643 -0.48697,0 -0.41571,0.54413 0.12501,0.9546 0.54819,0.41613 1.03431,0.46368 1.24559,0.12183 z m -70.44736,-0.86477 c -0.24694,-0.24694 -0.3175,-0.17639 -0.3175,0.3175 0,0.49389 0.0706,0.56445 0.3175,0.3175 0.24695,-0.24694 0.24695,-0.38805 0,-0.635 z m 33.76192,1.7e-4 c 0.0956,-0.80036 -0.52626,-1.13962 -1.31512,-0.71743 -0.53084,0.28409 -0.53031,0.29111 0.0701,0.93017 0.72427,0.77095 1.13593,0.70061 1.24506,-0.21274 z m 11.42892,0.31733 c 0,-0.29104 -0.11907,-0.52916 -0.26459,-0.52916 -0.14552,0 -0.26458,0.23812 -0.26458,0.52916 0,0.29104 0.11906,0.52917 0.26458,0.52917 0.14552,0 0.26459,-0.23813 0.26459,-0.52917 z m 70.44531,-0.0706 c -0.0364,-0.10667 -0.0661,-0.31301 -0.0661,-0.45853 0,-0.46163 -2.11385,-0.31523 -2.29582,0.15899 -0.0894,0.23297 -0.021,0.51105 0.15197,0.61796 0.37888,0.23416 2.30386,-0.0432 2.20999,-0.31842 z m -38.82044,0.059 c 0.25422,-0.41133 -0.38548,-1.04674 -1.0538,-1.04674 -0.89092,0 -1.02769,0.32574 -0.35435,0.84388 0.69406,0.53408 1.1618,0.60147 1.40815,0.20286 z m -25.27487,-0.79777 c 0,-0.28246 -0.11907,-0.51355 -0.26459,-0.51355 -0.14552,0 -0.26458,0.30468 -0.26458,0.67707 0,0.384 0.11452,0.60629 0.26458,0.51355 0.14552,-0.0899 0.26459,-0.39462 0.26459,-0.67707 z m -55.98102,0.38418 c 0.4305,-0.1652 0.57816,-1.03242 0.2141,-1.25742 -0.11243,-0.0695 -0.85498,-0.0468 -1.65012,0.0505 -1.05517,0.12908 -1.46889,0.29737 -1.53152,0.62295 -0.0658,0.3421 0.14925,0.47051 0.92252,0.55084 0.55458,0.0576 1.14742,0.12476 1.31742,0.14922 0.17,0.0245 0.49742,-0.0278 0.7276,-0.11612 z m 44.82077,-0.56971 c 0.074,-0.51887 -0.033,-0.59261 -0.85989,-0.59261 -1.06041,0 -1.1412,0.1378 -0.4977,0.84886 0.5726,0.63271 1.24898,0.50505 1.35759,-0.25625 z m 88.154,0.0993 c 0,-0.76554 -1.22312,-1.69127 -1.65887,-1.25552 -0.19612,0.19612 -0.0694,0.35921 0.42516,0.54725 0.44283,0.16836 0.70454,0.46687 0.70454,0.80358 0,0.29465 0.11907,0.53572 0.26459,0.53572 0.14552,0 0.26458,-0.28397 0.26458,-0.63103 z m -126.20625,-0.0623 c 0,-0.0592 -0.11038,-0.31432 -0.24527,-0.567 -0.1349,-0.25269 -0.30976,-0.66779 -0.38858,-0.92245 -0.0788,-0.25467 -0.33888,-0.46303 -0.57792,-0.46303 -0.35889,0 -0.40221,0.1728 -0.24861,0.99159 0.10232,0.54537 0.31313,1.07013 0.46848,1.16614 0.27081,0.16738 0.9919,0.0181 0.9919,-0.20525 z m 4.60345,-0.67285 c -0.23592,-0.38172 -0.63527,0.0355 -0.62629,0.65422 0.008,0.56064 0.0209,0.56319 0.3884,0.0777 0.20899,-0.2761 0.31604,-0.60547 0.23789,-0.73192 z m 6.77363,0.15997 c 0,-0.43658 -0.41816,-0.51034 -0.66146,-0.11668 -0.21577,0.34912 0.1006,0.84457 0.41516,0.65016 0.13546,-0.0837 0.2463,-0.32379 0.2463,-0.53348 z m 33.77886,0.25968 c 0.23126,-0.60265 -0.57194,-1.34611 -1.03716,-0.96002 -0.19678,0.16332 -0.61947,0.2285 -0.93932,0.14486 -0.66549,-0.17403 -0.71581,-0.0336 -0.25332,0.70698 0.41008,0.65664 1.98992,0.73329 2.2298,0.10818 z m 10.67114,-0.25968 c 0,-0.2097 -0.11906,-0.38126 -0.26458,-0.38126 -0.14552,0 -0.26459,0.24515 -0.26459,0.54478 0,0.29963 0.11907,0.4712 0.26459,0.38126 0.14552,-0.0899 0.26458,-0.33509 0.26458,-0.54478 z m 28.91252,0.1808 c 0.74153,-0.74152 -0.82404,-1.01305 -3.50905,-0.6086 -0.87422,0.13169 -1.21271,0.31175 -1.28411,0.68308 -0.0913,0.47473 0.0388,0.49467 2.22242,0.34057 1.27566,-0.09 2.43249,-0.2768 2.57074,-0.41505 z m -33.84162,-1.03236 c -0.37261,-0.5917 -1.15632,-0.74722 -1.15632,-0.22946 0,0.63356 0.81082,1.31769 1.15444,0.97407 0.20789,-0.20789 0.20841,-0.41665 0.002,-0.74461 z m 11.50281,0.35176 c 0.0585,-0.30163 -0.0369,-0.42885 -0.26459,-0.35303 -0.19579,0.0652 -0.39713,0.33075 -0.44741,0.59011 -0.0585,0.30163 0.0369,0.42885 0.26459,0.35303 0.19579,-0.0652 0.39713,-0.33075 0.44741,-0.59011 z m 29.59838,-0.0508 c 0.0761,-0.22825 -0.24153,-0.44986 -1.57782,-1.10094 -0.10914,-0.0532 -0.19844,0.1552 -0.19844,0.46306 0,0.81141 1.5347,1.36255 1.77626,0.63788 z m -85.44763,-0.0506 c 0.41424,-0.26296 0.16097,-1.75057 -0.37356,-2.19419 -0.27896,-0.23152 -0.53712,-0.23456 -1.0254,-0.0121 l -0.65258,0.29734 0.55484,1.06448 c 0.55486,1.06452 0.86996,1.24231 1.4967,0.84445 z m 6.84941,-0.0576 c 0.19378,-0.19377 0.14983,-0.55357 -0.14552,-1.19129 -0.33584,-0.72515 -0.55915,-0.89988 -1.08234,-0.84686 -0.89471,0.0907 -0.94514,0.71149 -0.12902,1.58817 0.74335,0.79852 0.94236,0.86451 1.35688,0.44998 z M 221.87041,274.611 c 0.61432,-0.68945 0.89626,-0.78121 2.88801,-0.93988 2.9541,-0.23533 3.66244,-0.39001 3.66244,-0.79979 0,-0.49298 -1.05407,-0.62949 -3.62301,-0.46922 -1.79956,0.11227 -2.30204,0.23658 -2.54795,0.63036 -0.16848,0.26977 -0.56077,0.4905 -0.87174,0.4905 -0.83193,0 -1.26664,0.62813 -0.90385,1.30601 0.38642,0.72202 0.58638,0.6908 1.3961,-0.21798 z m 28.77545,0.21927 c 0,-0.29963 -0.11906,-0.47119 -0.26458,-0.38126 -0.14552,0.0899 -0.26458,0.33509 -0.26458,0.54479 0,0.20969 0.11906,0.38126 0.26458,0.38126 0.14552,0 0.26458,-0.24516 0.26458,-0.54479 z m 40.13567,0.10965 c 0.21342,-0.55616 -0.57752,-1.15237 -1.52876,-1.15237 -0.93381,0 -1.17888,0.66372 -0.43695,1.18339 0.75805,0.53096 1.7561,0.51521 1.96571,-0.031 z m 10.66433,-0.25755 c 0,-0.21828 -0.11906,-0.32329 -0.26458,-0.23336 -0.14552,0.0899 -0.26458,0.34212 -0.26458,0.5604 0,0.21828 0.11906,0.32329 0.26458,0.23335 0.14552,-0.0899 0.26458,-0.34211 0.26458,-0.56039 z m 36.77709,0.1479 c 0,-0.29963 -0.11906,-0.47119 -0.26458,-0.38126 -0.14553,0.0899 -0.26459,0.33509 -0.26459,0.54479 0,0.20969 0.11906,0.38126 0.26459,0.38126 0.14552,0 0.26458,-0.24516 0.26458,-0.54479 z m 6.08542,0.0312 c 0,-0.28245 -0.11907,-0.58713 -0.26459,-0.67707 -0.15006,-0.0927 -0.26458,0.12955 -0.26458,0.51355 0,0.37239 0.11906,0.67708 0.26458,0.67708 0.14552,0 0.26459,-0.2311 0.26459,-0.51356 z m 15.33619,-0.36196 c -0.0119,-0.38755 -1.79423,-1.77032 -2.28192,-1.77032 -0.59659,0 -0.40301,0.34034 0.77021,1.35408 1.09202,0.94359 1.53155,1.06461 1.51171,0.41624 z m -102.38411,-0.18282 c 0,-0.29104 -0.11907,-0.52917 -0.26459,-0.52917 -0.14552,0 -0.26458,0.23813 -0.26458,0.52917 0,0.29104 0.11906,0.52917 0.26458,0.52917 0.14552,0 0.26459,-0.23813 0.26459,-0.52917 z m 39.17572,-0.009 c 0.6578,-0.35205 0.64896,-0.69241 -0.0274,-1.05438 -1.04875,-0.56127 -2.03827,0.23251 -1.26001,1.01077 0.38872,0.38871 0.62745,0.3968 1.28739,0.0436 z m 11.26839,-0.1344 c 0.21427,-0.55836 -0.14336,-0.85981 -0.4482,-0.3778 -0.3239,0.51217 -0.31741,0.78609 0.0186,0.78609 0.15009,0 0.34339,-0.18373 0.42956,-0.40829 z m -55.00441,-0.0767 c 0.2653,-0.1684 0.25048,-0.38074 -0.0716,-1.02644 -0.59457,-1.19184 -1.0916,-1.54451 -1.59174,-1.12943 -0.36054,0.29922 -0.3599,0.39986 0.006,0.95844 0.22491,0.34326 0.33208,0.62412 0.23815,0.62412 -0.0939,0 -0.0226,0.17859 0.15859,0.39687 0.3659,0.44089 0.75757,0.49571 1.26053,0.17644 z m 17.78946,-0.45663 c 0,-0.2097 -0.11906,-0.38126 -0.26458,-0.38126 -0.14552,0 -0.26458,0.24515 -0.26458,0.54478 0,0.29963 0.11906,0.4712 0.26458,0.38126 0.14552,-0.0899 0.26458,-0.33509 0.26458,-0.54478 z m 32.738,0.22662 c 0.16593,-0.49779 -1.12507,-1.77176 -1.60776,-1.58653 -0.59743,0.22925 -0.55401,0.46268 0.24669,1.3262 0.6738,0.72666 1.17375,0.82229 1.36107,0.26033 z m 40.02242,-0.0631 c 0,-0.31217 -0.51603,-0.64611 -0.70555,-0.45659 -0.18953,0.18953 0.14441,0.70556 0.45658,0.70556 0.13694,0 0.24897,-0.11204 0.24897,-0.24897 z m -79.375,-0.41249 c 0,-0.21828 -0.11906,-0.39688 -0.26458,-0.39688 -0.14552,0 -0.26459,0.1786 -0.26459,0.39688 0,0.21828 0.11907,0.39687 0.26459,0.39687 0.14552,0 0.26458,-0.17859 0.26458,-0.39687 z m 75.67084,0.13229 c 0,-0.14552 -0.1786,-0.26458 -0.39688,-0.26458 -0.21828,0 -0.39687,0.11906 -0.39687,0.26458 0,0.14552 0.17859,0.26458 0.39687,0.26458 0.21828,0 0.39688,-0.11906 0.39688,-0.26458 z m 6.77168,-0.0401 c 0.10358,-0.16759 -0.0312,-0.46525 -0.29954,-0.66145 -0.56821,-0.41549 -0.90249,-0.44083 -1.42805,-0.10827 -0.31481,0.1992 -0.32059,0.31178 -0.0337,0.6574 0.40307,0.48567 1.48785,0.55484 1.76134,0.11232 z m -86.88804,-0.8859 c -0.1005,-0.99857 -0.7252,-1.49322 -1.61653,-1.28 -0.92772,0.22192 -0.92286,0.20841 -0.38135,1.05861 0.61576,0.96677 0.90027,1.1657 1.54861,1.0828 0.41799,-0.0534 0.51238,-0.23442 0.44927,-0.86141 z m 17.49586,0.55503 c 0.14939,-0.3893 -0.0216,-0.68732 -0.39444,-0.68732 -0.12126,0 -0.22048,0.23812 -0.22048,0.52916 0,0.60667 0.40303,0.71033 0.61492,0.15816 z m 32.5914,0.10462 c 0.22023,-0.35634 -0.8998,-1.90346 -1.28513,-1.77517 -0.52756,0.17564 -0.48865,0.93035 0.0771,1.49613 0.6014,0.6014 0.95789,0.68375 1.20801,0.27904 z m 10.81868,-0.15259 c 0.0989,-0.25768 0.0398,-0.37864 -0.1536,-0.31419 -0.39551,0.13183 -0.61327,0.73317 -0.26551,0.73317 0.14208,0 0.33068,-0.18854 0.41911,-0.41898 z m -54.24603,-0.44907 c 0.42863,-0.31342 0.40106,-0.39447 -0.36691,-1.07873 -1.01538,-0.90471 -1.5423,-0.78227 -1.38041,0.32076 0.10216,0.69603 0.31495,0.89574 1.13601,1.06616 0.0813,0.0169 0.35642,-0.1218 0.61131,-0.30819 z m 85.97776,0.16479 c 0.27177,-0.27177 -0.35996,-0.88424 -0.91204,-0.88424 -0.48353,0 -0.67507,0.52726 -0.32038,0.88195 0.22671,0.22672 1.00654,0.22817 1.23242,0.002 z m -79.78351,-0.64912 c 0.0809,-0.41657 -0.85946,-1.55804 -1.2835,-1.55804 -0.57279,0 -0.55206,0.84776 0.036,1.47376 0.64733,0.68905 1.1238,0.72124 1.24747,0.0843 z M 289.8042,271.655 c 0,-0.28245 -0.11907,-0.51355 -0.26459,-0.51355 -0.14552,0 -0.26458,0.30469 -0.26458,0.67708 0,0.384 0.11452,0.60629 0.26458,0.51355 0.14552,-0.0899 0.26459,-0.39462 0.26459,-0.67708 z m 45.87776,0.38862 c 0.22036,-0.57426 -0.10463,-1.06339 -0.39845,-0.59969 -0.29799,0.4703 -0.29761,1.02044 7.9e-4,1.02044 0.12996,0 0.30894,-0.18934 0.39774,-0.42075 z m -56.72568,-0.2443 c 0,-0.68954 -0.8605,-1.97268 -1.32292,-1.97268 -0.0728,0 -0.27783,0.0925 -0.45571,0.20548 -0.55445,0.35227 0.42733,2.16766 1.1723,2.16766 0.36499,0 0.60633,-0.1594 0.60633,-0.40046 z m 4.23333,-0.26099 c 0,-0.21828 -0.0468,-0.39688 -0.10398,-0.39688 -0.0572,0 -0.17252,0.1786 -0.25628,0.39688 -0.0838,0.21828 -0.037,0.39687 0.10398,0.39687 0.14096,0 0.25628,-0.17859 0.25628,-0.39687 z m 12.70807,-1.02381 c -0.18714,-0.18715 -0.26739,0.0136 -0.25588,0.64016 0.0158,0.8577 0.0322,0.87417 0.27265,0.27265 0.16943,-0.4239 0.16377,-0.73227 -0.0168,-0.91281 z m 27.20895,1.01478 c 0.0552,-0.0553 0.0241,-0.29941 -0.0692,-0.54259 -0.13365,-0.34831 -0.37923,-0.4075 -1.15716,-0.2789 -0.54312,0.0898 -1.37445,0.16454 -1.8474,0.16615 -0.86953,0.003 -1.21688,0.59359 -0.52916,0.89984 0.33532,0.14932 3.41835,-0.0599 3.60295,-0.2445 z m -37.80035,-1.03129 c 0,-0.20837 -0.35719,-0.6332 -0.79375,-0.94406 l -0.79375,-0.5652 v 0.78972 c 0,0.43434 0.14883,0.84977 0.33073,0.92317 0.65634,0.26484 1.25677,0.16755 1.25677,-0.20363 z m 6.61458,-0.059 c 0,-0.15753 -1.41561,-1.39532 -1.60782,-1.40585 -0.37195,-0.0204 0.11838,1.56054 0.51132,1.64858 0.45327,0.10156 1.0965,-0.0408 1.0965,-0.24273 z m 55.47866,-0.14091 c -0.0845,-0.21106 -0.14715,-0.14837 -0.15985,0.15986 -0.0115,0.27891 0.0511,0.43518 0.13897,0.34726 0.0879,-0.0879 0.0973,-0.31612 0.0209,-0.50712 z m 6.16926,-0.36288 c 0,-0.35521 -0.11906,-0.64584 -0.26458,-0.64584 -0.14552,0 -0.26458,0.36421 -0.26458,0.80936 0,0.47221 0.11022,0.74125 0.26458,0.64585 0.14552,-0.0899 0.26458,-0.45416 0.26458,-0.80937 z m -51.06458,0.41249 c 0,-0.14552 -0.11906,-0.26458 -0.26459,-0.26458 -0.14552,0 -0.26458,0.11906 -0.26458,0.26458 0,0.14552 0.11906,0.26458 0.26458,0.26458 0.14553,0 0.26459,-0.11906 0.26459,-0.26458 z m 6.35,-0.41249 c 0,-0.20969 -0.10633,-0.38126 -0.23628,-0.38126 -0.29203,0 -0.57652,0.68651 -0.37005,0.89298 0.2316,0.2316 0.60633,-0.0847 0.60633,-0.51172 z m 28.97904,0.4009 c 0.25612,-0.41442 -0.38753,-1.04674 -1.0655,-1.04674 -0.67797,0 -1.32162,0.63232 -1.0655,1.04674 0.0939,0.1519 0.57335,0.27617 1.0655,0.27617 0.49215,0 0.97162,-0.12427 1.0655,-0.27617 z m -22.78542,-1.3503 c -0.2917,-0.47197 -0.63703,-0.19634 -0.62896,0.502 0.008,0.6894 0.0284,0.70125 0.3884,0.2256 0.20899,-0.2761 0.31724,-0.60352 0.24056,-0.7276 z m 28.66138,0.64981 c 0.13537,-0.41128 -1.3625,-1.18287 -1.89761,-0.97753 -0.57239,0.21964 -0.51751,0.52804 0.18167,1.021 0.66054,0.46573 1.55582,0.44304 1.71594,-0.0435 z m -39.43017,-0.511 c 0.0544,-0.16337 -0.14459,-0.36071 -0.44219,-0.43854 -0.36297,-0.0949 -0.48785,-0.28019 -0.37939,-0.56285 0.11638,-0.30327 0.005,-0.42136 -0.39578,-0.42136 -0.6491,0 -0.74682,0.47311 -0.14539,0.7039 0.22664,0.087 0.35391,0.30972 0.28281,0.495 -0.0711,0.18527 -0.054,0.41215 0.038,0.50417 0.24627,0.24627 0.92762,0.063 1.0419,-0.28032 z m 16.85154,-0.93688 c -0.23592,-0.38171 -0.63527,0.0355 -0.62629,0.65422 0.008,0.56064 0.0209,0.5632 0.3884,0.0777 0.20899,-0.2761 0.31604,-0.60546 0.23789,-0.73192 z m 28.46946,0.84384 c 0,-0.14179 -0.36574,-0.44692 -0.81275,-0.67808 -0.63777,-0.3298 -0.89482,-0.35219 -1.19389,-0.10398 -0.28905,0.23989 -0.30859,0.40371 -0.0809,0.67808 0.34093,0.41079 2.08753,0.49779 2.08753,0.10398 z m -32.17064,-1.29125 c 0.0769,-0.12437 -0.13664,-0.48578 -0.47445,-0.80313 -0.50998,-0.47911 -0.8004,-0.54723 -1.71163,-0.40152 -1.12197,0.17941 -1.21703,0.28211 -0.93685,1.01226 0.11867,0.30925 0.52906,0.41851 1.57189,0.41851 0.77621,0 1.47417,-0.10175 1.55104,-0.22612 z m 21.85189,-0.30305 c 0,-0.14552 -0.11906,-0.26458 -0.26458,-0.26458 -0.14552,0 -0.26458,0.11906 -0.26458,0.26458 0,0.14553 0.11906,0.26459 0.26458,0.26459 0.14552,0 0.26458,-0.11906 0.26458,-0.26459 z m -45.24375,-0.69268 c 0,-0.21828 -0.11906,-0.32329 -0.26458,-0.23336 -0.14552,0.0899 -0.26459,0.34212 -0.26459,0.5604 0,0.21828 0.11907,0.32329 0.26459,0.23335 0.14552,-0.0899 0.26458,-0.34211 0.26458,-0.56039 z m 50.98074,0.11391 c -0.0845,-0.21107 -0.14715,-0.14837 -0.15985,0.15985 -0.0115,0.27892 0.051,0.43519 0.13897,0.34727 0.0879,-0.0879 0.0973,-0.31613 0.0209,-0.50712 z m -22.86046,0.0532 c 0.65518,-0.002 1.05457,-0.14453 1.15717,-0.4119 0.0862,-0.22456 0.10259,-0.46237 0.0365,-0.52846 -0.12913,-0.12913 -3.11839,0.3758 -3.45524,0.58363 -0.40761,0.25149 0.14654,0.65941 0.69563,0.51207 0.311,-0.0835 1.01567,-0.15335 1.56594,-0.15534 z m 12.42598,-1.12809 c 0.17961,-0.48841 -0.0582,-0.99219 -0.46832,-0.99219 -0.53888,0 -0.74264,0.50167 -0.38082,0.93763 0.39225,0.47264 0.6884,0.49167 0.84914,0.0546 z M 312.8189,264.7253 c 0.002,-0.10915 -0.11501,-0.19844 -0.26054,-0.19844 -0.14552,0 -0.26276,0.26789 -0.26053,0.59531 0.003,0.48139 0.0531,0.51937 0.26053,0.19844 0.14107,-0.21828 0.25831,-0.48617 0.26054,-0.59531 z m 28.12877,0.69281 c 0.33325,-0.33325 -0.37744,-1.15584 -0.99862,-1.15584 -0.82704,0 -1.04456,0.37917 -0.51901,0.90472 0.42465,0.42464 1.21356,0.55519 1.51763,0.25112 z m -45.32264,-0.48507 c 0,-0.51144 -0.9621,-1.04052 -1.19801,-0.65881 -0.28382,0.45922 0.0868,1.04638 0.66054,1.04638 0.29563,0 0.53747,-0.17439 0.53747,-0.38757 z m 51.20404,-0.15319 c 0.2613,-0.42279 -0.39314,-1.04674 -1.09789,-1.04674 -0.74045,0 -0.82013,0.45808 -0.16604,0.9546 0.5632,0.42754 1.03537,0.46196 1.26393,0.0921 z m -44.96152,-0.29313 c 0.178,-0.28801 -0.54015,-1.0182 -1.00142,-1.0182 -0.34651,0 -0.24462,1.00189 0.11671,1.14769 0.53353,0.21528 0.68536,0.19306 0.88471,-0.12949 z m 6.3255,-0.75411 c 0.18798,-0.30416 -1.11174,-0.87343 -1.47772,-0.64724 -0.13331,0.0824 -0.24238,0.32137 -0.24238,0.53106 0,0.44074 1.45862,0.53927 1.7201,0.11618 z m 28.57469,-0.26409 c 0.0899,-0.14552 0.0374,-0.26458 -0.11668,-0.26458 -0.1541,0 -0.28019,0.11906 -0.28019,0.26458 0,0.14553 0.0525,0.26459 0.11667,0.26459 0.0642,0 0.19026,-0.11906 0.2802,-0.26459 z m -22.35729,-0.52916 c 0,-0.41158 -0.17639,-0.52917 -0.79375,-0.52917 -0.48507,0 -0.79375,0.13719 -0.79375,0.35278 0,0.50985 0.26909,0.70555 0.97014,0.70555 0.44097,0 0.61736,-0.15119 0.61736,-0.52916 z m 17.84614,-1.08807 c 0.15011,-0.14024 -0.0834,-0.23485 -0.57969,-0.23485 -0.82496,0 -1.27053,0.29731 -0.94038,0.62747 0.19865,0.19864 1.15033,-0.0472 1.52007,-0.39262 z m 6.85727,-0.77269 c -0.15029,-0.15029 -0.48847,-0.19067 -0.7515,-0.0897 -0.45972,0.17641 -0.45942,0.19728 0.008,0.53883 0.56397,0.41239 1.21327,0.0204 0.74381,-0.44909 z m -1.42008,0.27326 c 0,-0.14552 -0.17156,-0.26459 -0.38126,-0.26459 -0.20969,0 -0.45484,0.11907 -0.54478,0.26459 -0.0899,0.14552 0.0816,0.26458 0.38126,0.26458 0.29963,0 0.54478,-0.11906 0.54478,-0.26458 z m 7.26474,-0.51089 c 0.0837,-0.13546 0.0435,-0.31347 -0.0893,-0.39556 -0.35024,-0.21647 -2.67753,0.14273 -2.67753,0.41324 0,0.30929 2.57492,0.29284 2.76682,-0.0177 z m 4.11235,-0.54745 c 0,-0.3315 -0.28079,-0.3315 -0.79375,0 -0.32093,0.2074 -0.28296,0.25726 0.19843,0.26054 0.32743,0.002 0.59532,-0.11501 0.59532,-0.26054 z m -21.23282,41.62894 c 0.1819,-0.0734 0.47956,-0.0734 0.66146,0 0.1819,0.0734 0.0331,0.13346 -0.33073,0.13346 -0.3638,0 -0.51263,-0.0601 -0.33073,-0.13346 z m 32.80385,-33.48573 c -1.27084,-1.66683 -2.31062,-3.08969 -2.31062,-3.1619 0,-0.0722 0.92695,-0.0776 2.05988,-0.012 1.92209,0.11127 2.11482,0.073 2.88153,-0.57214 1.64737,-1.38616 1.33396,-2.61593 -1.29823,-5.09405 -1.90411,-1.79264 -3.31995,-2.71844 -6.39335,-4.1805 -1.43983,-0.68495 -3.22418,-1.65367 -3.96521,-2.15271 -0.74104,-0.49904 -1.64659,-0.91114 -2.01234,-0.91577 -0.36574,-0.005 -0.8961,-0.18322 -1.17858,-0.39687 -0.28247,-0.21366 -0.75872,-0.38925 -1.05833,-0.39021 -0.29961,-9.7e-4 -0.90193,-0.23831 -1.33849,-0.52743 -0.43657,-0.28913 -1.03889,-0.52647 -1.3385,-0.52743 -0.2996,-0.001 -0.77585,-0.17655 -1.05833,-0.3902 -0.28247,-0.21365 -0.87078,-0.4013 -1.30734,-0.417 -0.43656,-0.0157 -1.21047,-0.17895 -1.71979,-0.36278 l -0.92604,-0.33422 0.0955,-1.69617 c 0.0525,-0.93289 0.11203,-1.99382 0.13229,-2.35762 0.0348,-0.62545 -0.0352,-0.66004 -1.2861,-0.63549 -1.80853,0.0355 -4.27931,0.26779 -6.41657,0.60326 -0.98203,0.15414 -2.9166,0.40823 -4.29905,0.56464 -1.38245,0.15641 -3.70417,0.45671 -5.15938,0.66732 -3.53252,0.51126 -10.54489,1.39671 -13.49375,1.70384 -2.87766,0.29972 -10.03053,1.17836 -14.02291,1.72254 -1.60073,0.21818 -3.6248,0.45246 -4.49792,0.52061 -0.87313,0.0682 -2.48047,0.2505 -3.57188,0.40521 -1.0914,0.15471 -3.65125,0.45492 -5.68854,0.66714 -2.03729,0.21222 -4.77573,0.55949 -6.08542,0.77171 -1.30968,0.21223 -3.75046,0.52595 -5.42395,0.69716 -1.67349,0.1712 -3.34037,0.35001 -3.70417,0.39736 -1.53225,0.1994 -7.9087,0.93855 -9.12813,1.05811 -0.7276,0.0713 -3.40651,0.3717 -5.95312,0.66747 -2.54662,0.29576 -6.97815,0.76382 -9.84786,1.04013 -2.86971,0.27631 -6.79877,0.67888 -8.73125,0.8946 -1.93248,0.21572 -5.06141,0.52568 -6.95318,0.6888 -1.89177,0.16312 -4.92787,0.46241 -6.74688,0.6651 -1.81901,0.20269 -4.73604,0.4412 -6.48229,0.53003 -2.90296,0.14766 -3.24868,0.11509 -4.0349,-0.38013 -0.47294,-0.2979 -0.85989,-0.64024 -0.85989,-0.76077 0,-0.21368 6.80742,-1.40205 10.91953,-1.90621 1.13079,-0.13864 2.70681,-0.44128 3.50225,-0.67252 0.79545,-0.23124 1.5437,-0.36022 1.66278,-0.28662 0.11909,0.0736 0.6862,0.025 1.26025,-0.10811 1.44757,-0.33553 9.19133,-1.3459 16.25727,-2.12116 2.32855,-0.25549 3.74292,-0.43755 9.12813,-1.17503 1.74625,-0.23914 3.65125,-0.48406 4.23333,-0.54427 0.58208,-0.0602 2.18943,-0.23448 3.57188,-0.38724 1.38244,-0.15277 3.5851,-0.39351 4.89479,-0.53498 4.04544,-0.43697 4.89797,-0.53727 9.12812,-1.07388 2.25558,-0.28613 6.36323,-0.8074 9.12813,-1.15838 2.76489,-0.35098 5.92005,-0.70493 7.01146,-0.78655 1.0914,-0.0816 3.35359,-0.32937 5.02708,-0.55054 1.67349,-0.22117 7.50755,-0.87976 12.96458,-1.46355 5.45704,-0.58378 10.87438,-1.17704 12.03855,-1.31835 1.16416,-0.14131 3.84307,-0.43712 5.95312,-0.65735 6.78459,-0.70811 10.85235,-1.19607 16.74855,-2.00912 6.04771,-0.83393 7.16428,-0.88006 6.01685,-0.24857 -0.35763,0.19682 -1.91936,0.44268 -3.47051,0.54636 -1.55115,0.10367 -2.95519,0.27188 -3.12008,0.37379 -0.1649,0.10191 -0.29981,0.59498 -0.29981,1.09571 0,0.8049 0.08,0.91043 0.69037,0.91043 0.37971,0 1.92084,0.53578 3.42474,1.19063 1.5039,0.65484 2.87151,1.19062 3.03912,1.19062 0.16761,0 0.62078,0.16939 1.00703,0.37642 0.38626,0.20703 1.2976,0.63658 2.0252,0.95456 0.7276,0.31798 1.92252,0.85927 2.65537,1.20285 0.73285,0.34359 1.85367,0.80859 2.4907,1.03335 0.63703,0.22476 1.28759,0.51116 1.44567,0.63645 0.15809,0.12528 1.71618,0.97164 3.46243,1.88078 1.74625,0.90914 3.53219,2.0004 3.96875,2.42501 0.43656,0.42462 1.3704,1.26896 2.07521,1.87631 0.7048,0.60735 1.6573,1.80409 2.11667,2.65943 0.45936,0.85533 1.04338,1.93126 1.29781,2.39093 0.55262,0.99839 0.604,3.55252 0.0999,4.96305 -0.50014,1.3993 -2.41942,4.01775 -3.34625,4.56524 -0.44283,0.26159 -1.4284,0.53994 -2.19016,0.61856 l -1.38503,0.14295 z M 222.67761,238.74358 c -1.62907,-0.50917 -3.05613,-1.7668 -3.97975,-3.50727 -1.02661,-1.93455 -1.0793,-2.39858 -1.25562,-11.0584 -0.3081,-15.13222 -0.86629,-33.62708 -1.47727,-48.94792 -0.22886,-5.73876 -0.38298,-7.34092 -0.92968,-9.66455 -0.7678,-3.26333 -1.11189,-3.86535 -2.92038,-5.10937 -1.38817,-0.95489 -2.7421,-1.29757 -8.16801,-2.06734 -1.16416,-0.16516 -2.22791,-0.4004 -2.36387,-0.52276 -0.13597,-0.12237 1.5373,-0.21912 3.71838,-0.215 2.18107,0.004 4.13778,-0.0488 4.34825,-0.11753 0.39769,-0.12991 0.91234,-0.15773 15.06703,-0.81438 4.72943,-0.2194 10.92068,-0.52093 13.75834,-0.67005 24.83026,-1.3049 34.1445,-1.67272 42.99479,-1.69783 7.91463,-0.0225 16.04016,0.45266 20.23096,1.18295 2.5771,0.44908 4.18297,2.68318 4.92719,6.85472 0.24433,1.36948 0.48001,7.83037 0.75315,20.64635 0.54666,25.64925 0.64924,30.04618 0.83956,35.98333 0.15821,4.93546 0.13933,5.22792 -0.43499,6.73868 -0.74539,1.96076 -2.77626,4.09136 -4.49057,4.71108 -0.7104,0.25682 -6.07941,0.9694 -13.35863,1.77298 -6.69396,0.73897 -14.79021,1.63676 -17.99167,1.99508 -9.6374,1.07867 -25.0884,2.67161 -35.85104,3.69611 -2.25557,0.21471 -5.8104,0.57129 -7.89962,0.7924 -4.41116,0.46684 -4.08635,0.46574 -5.51655,0.0187 z m 35.90929,-11.78751 c 0.64403,0 11.92286,-0.43417 11.80703,-0.1323 32.6524,-3.84045 27.87456,4.62717 25.37038,-45.16495 -0.10237,-0.2477 -0.12762,-0.54535 -0.0561,-0.66146 0.11737,-0.19058 -0.40811,-4.09744 -0.74904,-5.56892 -0.0759,-0.32742 -0.29967,-0.59532 -0.49736,-0.59532 -0.19769,0 -0.51401,-0.18624 -0.70293,-0.41388 -0.21455,-0.25852 -0.56907,-0.35726 -0.94444,-0.26306 -19.78942,-2.19045 -38.8533,0.12358 -64.91185,2.23717 -2.95345,0.23845 -3.34664,0.32942 -3.77873,0.87432 -1.5883,2.00296 -1.70618,3.12577 -1.10548,10.53005 0.25382,3.1287 0.49457,6.52198 0.53499,7.54062 0.0404,1.01865 0.12527,3.69094 0.18854,5.29167 3.50259,36.98564 -1.51654,27.96646 34.84499,26.32606 z m 60.23754,-4.4197 c -0.25059,-0.40547 -0.26733,-5.12537 -0.019,-5.35748 0.12936,-0.12091 3.0927,-0.53904 6.5852,-0.92918 3.4925,-0.39013 7.69556,-0.87925 9.34012,-1.08693 1.64456,-0.20767 3.5198,-0.37759 4.16719,-0.37759 h 1.17707 l 0.0249,1.12448 c 0.0137,0.61846 0.0434,1.83676 0.0661,2.70732 l 0.0413,1.58284 -5.95312,0.71216 c -3.27422,0.39169 -7.56047,0.90317 -9.525,1.13663 -1.96454,0.23346 -4.06382,0.49204 -4.66508,0.57463 -0.60125,0.0826 -1.15911,0.0435 -1.23968,-0.0869 z m 7.62455,-1.6881 c 2.78746,-0.35675 3.56238,-0.44046 4.41287,-0.47666 1.15693,-0.0493 1.5495,-0.66006 1.40433,-2.18498 -0.19858,-2.08594 0.48675,-1.96753 -6.47866,-1.11937 -4.97839,0.6062 -4.5121,0.36298 -4.38368,2.28651 0.0606,0.90702 0.11916,1.7496 0.13023,1.87239 0.0197,0.21845 0.61032,0.17303 4.91491,-0.37789 z"
             style="fill:#595959;stroke:none;stroke-width:0.264583" />
        </g>
        <path
           style="color:#000000;clip-rule:nonzero;display:inline;overflow:visible;visibility:visible;opacity:1;isolation:auto;mix-blend-mode:normal;color-interpolation:sRGB;color-interpolation-filters:linearRGB;solid-color:#000000;solid-opacity:1;vector-effect:none;fill:#e6e6e6;fill-opacity:1;fill-rule:evenodd;stroke:none;stroke-width:0.534506;stroke-linecap:round;stroke-linejoin:round;stroke-miterlimit:4;stroke-dasharray:none;stroke-dashoffset:0;stroke-opacity:1;paint-order:normal;color-rendering:auto;image-rendering:auto;shape-rendering:auto;text-rendering:auto;enable-background:accumulate"
           d="m 1466.3736,719.06814 c -8.556,-1.07403 -26.6933,-2.33844 -40.3051,-2.80978 -24.6948,-0.85512 -71.0827,-4.39529 -77.7817,-5.93605 -16.5479,-3.80595 -17.5825,-9.58825 -13.4492,-75.16934 2.564,-40.68137 3.074,-44.71405 5.9581,-47.10716 3.9624,-3.2879 84.0282,-2.4275 126.9921,1.36468 45.6524,4.02948 43.8539,3.68343 45.9939,8.84985 1.8869,4.55548 0.5936,33.2692 -3.6886,81.88857 -3.245,36.84475 -4.7379,40.0075 -19.1354,40.53885 -4.9652,0.18325 -16.0281,-0.54558 -24.5841,-1.61962 z"
           id="path1032"
           inkscape:connector-curvature="0"
           transform="matrix(-0.26458334,0,0,0.26458334,701.10305,25.332593)" />
      </g>
    </g>
    <path
       sodipodi:type="spiral"
       style="fill:none;fill-rule:evenodd;stroke:#595959;stroke-width:0.79375;stroke-linecap:butt;stroke-linejoin:miter;stroke-miterlimit:4;stroke-dasharray:none;stroke-opacity:1"
       id="path2761"
       sodipodi:cx="364.99271"
       sodipodi:cy="190.50519"
       sodipodi:expansion="0"
       sodipodi:revolution="0.2"
       sodipodi:radius="9.6000366"
       sodipodi:argument="-201.27014"
       sodipodi:t0="0"
       d="m 374.3854,188.52076 c 0.8501,4.02368 -1.03883,8.25231 -4.60289,10.30419"
       transform="matrix(0.10338503,0.30315603,-0.30315603,0.10338503,322.63534,33.654498)" />
    <path
       sodipodi:type="spiral"
       style="fill:none;fill-rule:evenodd;stroke:#595959;stroke-width:0.79375;stroke-linecap:butt;stroke-linejoin:miter;stroke-miterlimit:4;stroke-dasharray:none;stroke-opacity:1"
       id="path2761-5"
       sodipodi:cx="364.99271"
       sodipodi:cy="190.50519"
       sodipodi:expansion="0"
       sodipodi:revolution="0.2"
       sodipodi:radius="9.6000366"
       sodipodi:argument="-201.27014"
       sodipodi:t0="0"
       d="m 374.3854,188.52076 c 0.8501,4.02368 -1.03883,8.25231 -4.60289,10.30419"
       transform="matrix(0.04966362,0.14562866,-0.14562866,0.04966362,310.04612,98.750325)" />
    <path
       sodipodi:type="spiral"
       style="fill:none;fill-rule:evenodd;stroke:#595959;stroke-width:0.79375;stroke-linecap:butt;stroke-linejoin:miter;stroke-miterlimit:4;stroke-dasharray:none;stroke-opacity:1"
       id="path2761-5-0"
       sodipodi:cx="364.99271"
       sodipodi:cy="190.50519"
       sodipodi:expansion="0"
       sodipodi:revolution="0.2"
       sodipodi:radius="9.6000366"
       sodipodi:argument="-201.27014"
       sodipodi:t0="0"
       d="m 374.3854,188.52076 c 0.8501,4.02368 -1.03883,8.25231 -4.60289,10.30419"
       transform="matrix(0.04966362,0.14562866,-0.14562866,0.04966362,314.83768,99.004839)" />
  </g>
  <style
     id="style10850"
     type="text/css">
	.st0{opacity:0.15;fill:#292F33;}
	.st1{fill:#FFFFFF;}
</style>
</svg>
